<?xml version="1.0" encoding="UTF-8"?>
<!--Generator: Apple Native CoreSVG 175-->
<!DOCTYPE svg
PUBLIC "-//W3C//DTD SVG 1.1//EN"
       "http://www.w3.org/Graphics/SVG/1.1/DTD/svg11.dtd">
<svg version="1.1" xmlns="http://www.w3.org/2000/svg" xmlns:xlink="http://www.w3.org/1999/xlink" width="3300" height="2200">
 <!--glyph: "uni1004BD.medium", point size: 100.0, font version: "17.3d3e1", template writer version: "65.1"-->
 <g id="Notes">
  <rect height="2200" id="artboard" style="fill:white;opacity:1" width="3300" x="0" y="0"/>
  <line style="fill:none;stroke:black;opacity:1;stroke-width:0.5;" x1="263" x2="3036" y1="292" y2="292"/>
  <text style="stroke:none;fill:black;font-family:sans-serif;font-size:13;font-weight:bold;" transform="matrix(1 0 0 1 263 322)">Weight/Scale Variations</text>
  <text style="stroke:none;fill:black;font-family:sans-serif;font-size:13;text-anchor:middle;" transform="matrix(1 0 0 1 559.711 322)">Ultralight</text>
  <text style="stroke:none;fill:black;font-family:sans-serif;font-size:13;text-anchor:middle;" transform="matrix(1 0 0 1 856.422 322)">Thin</text>
  <text style="stroke:none;fill:black;font-family:sans-serif;font-size:13;text-anchor:middle;" transform="matrix(1 0 0 1 1153.13 322)">Light</text>
  <text style="stroke:none;fill:black;font-family:sans-serif;font-size:13;text-anchor:middle;" transform="matrix(1 0 0 1 1449.84 322)">Regular</text>
  <text style="stroke:none;fill:black;font-family:sans-serif;font-size:13;text-anchor:middle;" transform="matrix(1 0 0 1 1746.56 322)">Medium</text>
  <text style="stroke:none;fill:black;font-family:sans-serif;font-size:13;text-anchor:middle;" transform="matrix(1 0 0 1 2043.27 322)">Semibold</text>
  <text style="stroke:none;fill:black;font-family:sans-serif;font-size:13;text-anchor:middle;" transform="matrix(1 0 0 1 2339.98 322)">Bold</text>
  <text style="stroke:none;fill:black;font-family:sans-serif;font-size:13;text-anchor:middle;" transform="matrix(1 0 0 1 2636.69 322)">Heavy</text>
  <text style="stroke:none;fill:black;font-family:sans-serif;font-size:13;text-anchor:middle;" transform="matrix(1 0 0 1 2933.4 322)">Black</text>
  <line style="fill:none;stroke:black;opacity:1;stroke-width:0.5;" x1="263" x2="3036" y1="1903" y2="1903"/>
  <g transform="matrix(1 0 0 1 263 1933)">
   <path d="M9.24805 0.830078Q10.8691 0.830078 12.2949 0.214844Q13.7207-0.400391 14.8096-1.49414Q15.8984-2.58789 16.5186-4.01367Q17.1387-5.43945 17.1387-7.05078Q17.1387-8.66211 16.5186-10.0879Q15.8984-11.5137 14.8047-12.6074Q13.7109-13.7012 12.2852-14.3164Q10.8594-14.9316 9.23828-14.9316Q7.62695-14.9316 6.20117-14.3164Q4.77539-13.7012 3.69141-12.6074Q2.60742-11.5137 1.9873-10.0879Q1.36719-8.66211 1.36719-7.05078Q1.36719-5.43945 1.9873-4.01367Q2.60742-2.58789 3.69629-1.49414Q4.78516-0.400391 6.21094 0.214844Q7.63672 0.830078 9.24805 0.830078ZM9.24805-0.654297Q7.91992-0.654297 6.7627-1.14746Q5.60547-1.64062 4.73145-2.51953Q3.85742-3.39844 3.36426-4.56055Q2.87109-5.72266 2.87109-7.05078Q2.87109-8.37891 3.35938-9.54102Q3.84766-10.7031 4.72168-11.582Q5.5957-12.4609 6.75293-12.9541Q7.91016-13.4473 9.23828-13.4473Q10.5762-13.4473 11.7334-12.9541Q12.8906-12.4609 13.7695-11.582Q14.6484-10.7031 15.1465-9.54102Q15.6445-8.37891 15.6445-7.05078Q15.6445-5.72266 15.1514-4.56055Q14.6582-3.39844 13.7842-2.51953Q12.9102-1.64062 11.748-1.14746Q10.5859-0.654297 9.24805-0.654297ZM5.6543-7.05078Q5.6543-6.72852 5.85938-6.52832Q6.06445-6.32812 6.40625-6.32812L8.51562-6.32812L8.51562-4.20898Q8.51562-3.88672 8.71094-3.67676Q8.90625-3.4668 9.23828-3.4668Q9.56055-3.4668 9.77051-3.67676Q9.98047-3.88672 9.98047-4.20898L9.98047-6.32812L12.0898-6.32812Q12.4219-6.32812 12.627-6.52832Q12.832-6.72852 12.832-7.05078Q12.832-7.38281 12.627-7.58789Q12.4219-7.79297 12.0898-7.79297L9.98047-7.79297L9.98047-9.90234Q9.98047-10.2344 9.77051-10.4443Q9.56055-10.6543 9.23828-10.6543Q8.90625-10.6543 8.71094-10.4443Q8.51562-10.2344 8.51562-9.90234L8.51562-7.79297L6.40625-7.79297Q6.06445-7.79297 5.85938-7.58789Q5.6543-7.38281 5.6543-7.05078Z"/>
  </g>
  <g transform="matrix(1 0 0 1 281.867 1933)">
   <path d="M11.709 2.91016Q13.75 2.91016 15.5518 2.12891Q17.3535 1.34766 18.7305-0.0292969Q20.1074-1.40625 20.8887-3.20801Q21.6699-5.00977 21.6699-7.05078Q21.6699-9.0918 20.8887-10.8936Q20.1074-12.6953 18.7305-14.0723Q17.3535-15.4492 15.5469-16.2305Q13.7402-17.0117 11.6992-17.0117Q9.6582-17.0117 7.85645-16.2305Q6.05469-15.4492 4.68262-14.0723Q3.31055-12.6953 2.5293-10.8936Q1.74805-9.0918 1.74805-7.05078Q1.74805-5.00977 2.5293-3.20801Q3.31055-1.40625 4.6875-0.0292969Q6.06445 1.34766 7.86621 2.12891Q9.66797 2.91016 11.709 2.91016ZM11.709 1.25Q9.98047 1.25 8.47656 0.605469Q6.97266-0.0390625 5.83496-1.17676Q4.69727-2.31445 4.05762-3.81836Q3.41797-5.32227 3.41797-7.05078Q3.41797-8.7793 4.05762-10.2832Q4.69727-11.7871 5.83008-12.9297Q6.96289-14.0723 8.4668-14.7119Q9.9707-15.3516 11.6992-15.3516Q13.4277-15.3516 14.9316-14.7119Q16.4355-14.0723 17.5781-12.9297Q18.7207-11.7871 19.3652-10.2832Q20.0098-8.7793 20.0098-7.05078Q20.0098-5.32227 19.3701-3.81836Q18.7305-2.31445 17.5928-1.17676Q16.4551-0.0390625 14.9463 0.605469Q13.4375 1.25 11.709 1.25ZM7.17773-7.05078Q7.17773-6.69922 7.41211-6.47461Q7.64648-6.25 8.01758-6.25L10.8887-6.25L10.8887-3.36914Q10.8887-2.99805 11.1133-2.76855Q11.3379-2.53906 11.6895-2.53906Q12.0605-2.53906 12.29-2.76855Q12.5195-2.99805 12.5195-3.36914L12.5195-6.25L15.4004-6.25Q15.7715-6.25 16.001-6.47461Q16.2305-6.69922 16.2305-7.05078Q16.2305-7.42188 16.001-7.65137Q15.7715-7.88086 15.4004-7.88086L12.5195-7.88086L12.5195-10.752Q12.5195-11.1328 12.29-11.3623Q12.0605-11.5918 11.6895-11.5918Q11.3379-11.5918 11.1133-11.3574Q10.8887-11.123 10.8887-10.752L10.8887-7.88086L8.01758-7.88086Q7.63672-7.88086 7.40723-7.65137Q7.17773-7.42188 7.17773-7.05078Z"/>
  </g>
  <g transform="matrix(1 0 0 1 305.646 1933)">
   <path d="M14.9707 5.66406Q17.0605 5.66406 18.96 5.01465Q20.8594 4.36523 22.4512 3.19336Q24.043 2.02148 25.2197 0.429688Q26.3965-1.16211 27.0459-3.06641Q27.6953-4.9707 27.6953-7.05078Q27.6953-9.14062 27.0459-11.04Q26.3965-12.9395 25.2197-14.5312Q24.043-16.123 22.4512-17.2998Q20.8594-18.4766 18.9551-19.126Q17.0508-19.7754 14.9609-19.7754Q12.8711-19.7754 10.9717-19.126Q9.07227-18.4766 7.48535-17.2998Q5.89844-16.123 4.72168-14.5312Q3.54492-12.9395 2.90039-11.04Q2.25586-9.14062 2.25586-7.05078Q2.25586-4.9707 2.90527-3.06641Q3.55469-1.16211 4.72656 0.429688Q5.89844 2.02148 7.49023 3.19336Q9.08203 4.36523 10.9814 5.01465Q12.8809 5.66406 14.9707 5.66406ZM14.9707 3.84766Q13.1641 3.84766 11.5283 3.2959Q9.89258 2.74414 8.53516 1.74805Q7.17773 0.751953 6.17676-0.610352Q5.17578-1.97266 4.62891-3.6084Q4.08203-5.24414 4.08203-7.05078Q4.08203-8.86719 4.62891-10.5029Q5.17578-12.1387 6.17188-13.501Q7.16797-14.8633 8.52539-15.8594Q9.88281-16.8555 11.5186-17.4023Q13.1543-17.9492 14.9609-17.9492Q16.7773-17.9492 18.4131-17.4023Q20.0488-16.8555 21.4111-15.8594Q22.7734-14.8633 23.7695-13.501Q24.7656-12.1387 25.3174-10.5029Q25.8691-8.86719 25.8691-7.05078Q25.8789-5.24414 25.332-3.6084Q24.7852-1.97266 23.7842-0.610352Q22.7832 0.751953 21.4209 1.74805Q20.0586 2.74414 18.4229 3.2959Q16.7871 3.84766 14.9707 3.84766ZM9.19922-7.05078Q9.19922-6.66992 9.45801-6.4209Q9.7168-6.17188 10.1172-6.17188L14.0625-6.17188L14.0625-2.2168Q14.0625-1.81641 14.3115-1.55762Q14.5605-1.29883 14.9512-1.29883Q15.3516-1.29883 15.6104-1.55273Q15.8691-1.80664 15.8691-2.2168L15.8691-6.17188L19.8242-6.17188Q20.2246-6.17188 20.4785-6.4209Q20.7324-6.66992 20.7324-7.05078Q20.7324-7.46094 20.4785-7.71484Q20.2246-7.96875 19.8242-7.96875L15.8691-7.96875L15.8691-11.9141Q15.8691-12.3242 15.6104-12.583Q15.3516-12.8418 14.9512-12.8418Q14.5605-12.8418 14.3115-12.583Q14.0625-12.3242 14.0625-11.9141L14.0625-7.96875L10.1172-7.96875Q9.70703-7.96875 9.45312-7.71484Q9.19922-7.46094 9.19922-7.05078Z"/>
  </g>
  <text style="stroke:none;fill:black;font-family:sans-serif;font-size:13;font-weight:bold;" transform="matrix(1 0 0 1 263 1953)">Design Variations</text>
  <text style="stroke:none;fill:black;font-family:sans-serif;font-size:13;" transform="matrix(1 0 0 1 263 1971)">Symbols are supported in up to nine weights and three scales.</text>
  <text style="stroke:none;fill:black;font-family:sans-serif;font-size:13;" transform="matrix(1 0 0 1 263 1989)">For optimal layout with text and other symbols, vertically align</text>
  <text style="stroke:none;fill:black;font-family:sans-serif;font-size:13;" transform="matrix(1 0 0 1 263 2007)">symbols with the adjacent text.</text>
  <line style="fill:none;stroke:#00AEEF;stroke-width:0.5;opacity:1.0;" x1="776" x2="776" y1="1919" y2="1933"/>
  <g transform="matrix(1 0 0 1 776 1933)">
   <path d="M3.31055 0.15625Q3.70117 0.15625 3.91602-0.00976562Q4.13086-0.175781 4.26758-0.585938L5.52734-4.0332L11.2891-4.0332L12.5488-0.585938Q12.6855-0.175781 12.9004-0.00976562Q13.1152 0.15625 13.4961 0.15625Q13.8867 0.15625 14.1162-0.0585938Q14.3457-0.273438 14.3457-0.644531Q14.3457-0.869141 14.2383-1.17188L9.6582-13.3691Q9.48242-13.8184 9.17969-14.043Q8.87695-14.2676 8.4082-14.2676Q7.5-14.2676 7.17773-13.3789L2.59766-1.16211Q2.49023-0.859375 2.49023-0.634766Q2.49023-0.263672 2.70996-0.0537109Q2.92969 0.15625 3.31055 0.15625ZM6.00586-5.51758L8.37891-12.0898L8.42773-12.0898L10.8008-5.51758Z"/>
  </g>
  <line style="fill:none;stroke:#00AEEF;stroke-width:0.5;opacity:1.0;" x1="793.197" x2="793.197" y1="1919" y2="1933"/>
  <text style="stroke:none;fill:black;font-family:sans-serif;font-size:13;font-weight:bold;" transform="matrix(1 0 0 1 776 1953)">Margins</text>
  <text style="stroke:none;fill:black;font-family:sans-serif;font-size:13;" transform="matrix(1 0 0 1 776 1971)">Leading and trailing margins on the left and right side of each symbol</text>
  <text style="stroke:none;fill:black;font-family:sans-serif;font-size:13;" transform="matrix(1 0 0 1 776 1989)">can be adjusted by modifying the x-location of the margin guidelines.</text>
  <text style="stroke:none;fill:black;font-family:sans-serif;font-size:13;" transform="matrix(1 0 0 1 776 2007)">Modifications are automatically applied proportionally to all</text>
  <text style="stroke:none;fill:black;font-family:sans-serif;font-size:13;" transform="matrix(1 0 0 1 776 2025)">scales and weights.</text>
  <g transform="matrix(1 0 0 1 1289 1933)">
   <path d="M2.8418 1.86523L4.54102 3.57422Q5.18555 4.22852 5.90332 4.17969Q6.62109 4.13086 7.31445 3.35938L18.0078-8.42773L17.041-9.4043L6.42578 2.27539Q6.16211 2.57812 5.89355 2.61719Q5.625 2.65625 5.27344 2.30469L4.10156 1.14258Q3.75 0.791016 3.79395 0.522461Q3.83789 0.253906 4.14062-0.0195312L15.6152-10.8203L14.6387-11.7871L3.04688-0.898438Q2.30469-0.214844 2.25098 0.498047Q2.19727 1.21094 2.8418 1.86523ZM9.25781-16.3281Q8.94531-16.0254 8.90625-15.6348Q8.86719-15.2441 9.04297-14.9512Q9.21875-14.6777 9.55566-14.541Q9.89258-14.4043 10.3809-14.5215Q11.4746-14.7754 12.5977-14.7314Q13.7207-14.6875 14.7949-13.9844L14.209-12.5293Q13.9551-11.9043 14.0674-11.4404Q14.1797-10.9766 14.5801-10.5664L16.875-8.25195Q17.2363-7.88086 17.5781-7.82227Q17.9199-7.76367 18.3398-7.8418L19.4043-8.03711L20.0684-7.36328L20.0293-6.80664Q20-6.43555 20.1221-6.12305Q20.2441-5.81055 20.6055-5.44922L21.3672-4.70703Q21.7285-4.3457 22.1533-4.33105Q22.5781-4.31641 22.9297-4.66797L25.8398-7.58789Q26.1914-7.93945 26.1816-8.35449Q26.1719-8.76953 25.8105-9.13086L25.0391-9.89258Q24.6875-10.2539 24.3799-10.3857Q24.0723-10.5176 23.7109-10.4883L23.1348-10.4395L22.4902-11.0742L22.7344-12.1973Q22.832-12.6172 22.6953-12.9834Q22.5586-13.3496 22.1191-13.7891L19.9219-15.9766Q18.6719-17.2168 17.2607-17.8369Q15.8496-18.457 14.4189-18.4814Q12.9883-18.5059 11.665-17.959Q10.3418-17.4121 9.25781-16.3281ZM10.752-15.957Q11.6602-16.6211 12.7002-16.9043Q13.7402-17.1875 14.8047-17.085Q15.8691-16.9824 16.8701-16.5137Q17.8711-16.0449 18.7012-15.2051L21.1328-12.793Q21.3086-12.6172 21.3525-12.4512Q21.3965-12.2852 21.3379-12.0312L21.0156-10.5469L22.5195-9.0625L23.5059-9.12109Q23.6914-9.13086 23.7891-9.09668Q23.8867-9.0625 24.0332-8.91602L24.6094-8.33984L22.168-5.89844L21.5918-6.47461Q21.4453-6.62109 21.4062-6.71875Q21.3672-6.81641 21.377-7.01172L21.4453-7.98828L19.9512-9.47266L18.4277-9.21875Q18.1836-9.16992 18.042-9.2041Q17.9004-9.23828 17.7148-9.41406L15.7129-11.416Q15.5176-11.5918 15.4932-11.7529Q15.4688-11.9141 15.5859-12.1875L16.4648-14.2773Q15.293-15.3711 13.8281-15.791Q12.3633-16.2109 10.8398-15.7617Q10.7227-15.7324 10.6885-15.8057Q10.6543-15.8789 10.752-15.957Z"/>
  </g>
  <text style="stroke:none;fill:black;font-family:sans-serif;font-size:13;font-weight:bold;" transform="matrix(1 0 0 1 1289 1953)">Exporting</text>
  <text style="stroke:none;fill:black;font-family:sans-serif;font-size:13;" transform="matrix(1 0 0 1 1289 1971)">Symbols should be outlined when exporting to ensure the</text>
  <text style="stroke:none;fill:black;font-family:sans-serif;font-size:13;" transform="matrix(1 0 0 1 1289 1989)">design is preserved when submitting to Xcode.</text>
  <text id="template-version" style="stroke:none;fill:black;font-family:sans-serif;font-size:13;text-anchor:end;" transform="matrix(1 0 0 1 3036 1933)">Template v.2.0</text>
  <text style="stroke:none;fill:black;font-family:sans-serif;font-size:13;text-anchor:end;" transform="matrix(1 0 0 1 3036 1951)">Requires Xcode 12 or greater</text>
  <text id="descriptive-name" style="stroke:none;fill:black;font-family:sans-serif;font-size:13;text-anchor:end;" transform="matrix(1 0 0 1 3036 1969)">Generated from music.note.house.fill</text>
  <text style="stroke:none;fill:black;font-family:sans-serif;font-size:13;text-anchor:end;" transform="matrix(1 0 0 1 3036 1987)">Typeset at 100 points</text>
  <text style="stroke:none;fill:black;font-family:sans-serif;font-size:13;" transform="matrix(1 0 0 1 263 726)">Small</text>
  <text style="stroke:none;fill:black;font-family:sans-serif;font-size:13;" transform="matrix(1 0 0 1 263 1156)">Medium</text>
  <text style="stroke:none;fill:black;font-family:sans-serif;font-size:13;" transform="matrix(1 0 0 1 263 1586)">Large</text>
 </g>
 <g id="Guides">
  <g id="H-reference" style="fill:#27AAE1;stroke:none;" transform="matrix(1 0 0 1 339 696)">
   <path d="M0.993347 0L3.6377 0L29.3282-67.1326L30.0301-67.1326L30.0301-70.459L28.1227-70.459ZM11.6882-24.4797L46.9818-24.4797L46.2311-26.7288L12.4382-26.7288ZM55.1193 0L57.7637 0L30.6381-70.459L29.4327-70.459L29.4327-67.1326Z"/>
  </g>
  <line id="Baseline-S" style="fill:none;stroke:#27AAE1;opacity:1;stroke-width:0.5;" x1="263" x2="3036" y1="696" y2="696"/>
  <line id="Capline-S" style="fill:none;stroke:#27AAE1;opacity:1;stroke-width:0.5;" x1="263" x2="3036" y1="625.541" y2="625.541"/>
  <g id="H-reference" style="fill:#27AAE1;stroke:none;" transform="matrix(1 0 0 1 339 1126)">
   <path d="M0.993347 0L3.6377 0L29.3282-67.1326L30.0301-67.1326L30.0301-70.459L28.1227-70.459ZM11.6882-24.4797L46.9818-24.4797L46.2311-26.7288L12.4382-26.7288ZM55.1193 0L57.7637 0L30.6381-70.459L29.4327-70.459L29.4327-67.1326Z"/>
  </g>
  <line id="Baseline-M" style="fill:none;stroke:#27AAE1;opacity:1;stroke-width:0.5;" x1="263" x2="3036" y1="1126" y2="1126"/>
  <line id="Capline-M" style="fill:none;stroke:#27AAE1;opacity:1;stroke-width:0.5;" x1="263" x2="3036" y1="1055.54" y2="1055.54"/>
  <g id="H-reference" style="fill:#27AAE1;stroke:none;" transform="matrix(1 0 0 1 339 1556)">
   <path d="M0.993347 0L3.6377 0L29.3282-67.1326L30.0301-67.1326L30.0301-70.459L28.1227-70.459ZM11.6882-24.4797L46.9818-24.4797L46.2311-26.7288L12.4382-26.7288ZM55.1193 0L57.7637 0L30.6381-70.459L29.4327-70.459L29.4327-67.1326Z"/>
  </g>
  <line id="Baseline-L" style="fill:none;stroke:#27AAE1;opacity:1;stroke-width:0.5;" x1="263" x2="3036" y1="1556" y2="1556"/>
  <line id="Capline-L" style="fill:none;stroke:#27AAE1;opacity:1;stroke-width:0.5;" x1="263" x2="3036" y1="1485.54" y2="1485.54"/>
  <line id="left-margin" style="fill:none;stroke:#00AEEF;stroke-width:0.5;opacity:1.0;" x1="1379.13" x2="1379.13" y1="1030.79" y2="1150.12"/>
  <line id="right-margin" style="fill:none;stroke:#00AEEF;stroke-width:0.5;opacity:1.0;" x1="1520.56" x2="1520.56" y1="1030.79" y2="1150.12"/>
 </g>
 <g id="Symbols">
  <g id="Black-L" transform="matrix(1 0 0 1 2834.53 1556)">
   <path d="M39.0007 14.3108Q39.0007 21.8177 43.8883 26.3633Q48.7758 30.9089 56.9096 30.9089L140.796 30.9089Q148.931 30.9089 153.818 26.3633Q158.705 21.8177 158.705 14.3108L158.705-27.0465L103.113-73.7168Q101.181-75.4044 98.9281-75.4038Q96.6749-75.4032 94.7071-73.7168L39.0007-27.0491ZM16.084-43.6704Q16.084-39.517 18.8237-36.8624Q21.5633-34.2078 26.0824-34.2078Q28.0609-34.2078 30.0513-35.0686Q32.0416-35.9294 33.7984-37.389L94.7333-88.4869Q98.8813-92.02 103.147-88.4869L163.962-37.389Q165.717-35.9294 167.718-35.0686Q169.719-34.2078 171.697-34.2078Q176.15-34.2078 178.902-36.7788Q181.654-39.3499 181.654-43.6082Q181.654-48.383 177.633-51.7345L112.043-106.842Q106.12-111.833 98.9404-111.833Q91.7609-111.833 85.8588-106.842L20.1258-51.6761Q16.084-48.2077 16.084-43.6704ZM134.921-81.5026L159.639-60.9L159.639-95.7709Q159.639-100.831 154.576-100.831L140.083-100.831Q137.773-100.831 136.347-99.4465Q134.921-98.0617 134.921-95.7709ZM117.248-24.4692L102.956-21.0137Q102.204-20.8309 101.937-20.4334Q101.671-20.036 101.671-18.6198L101.671-0.703833Q101.671 6.31374 97.3057 10.8258Q92.9408 15.338 85.9829 15.338Q81.1485 15.338 78.0858 12.5919Q75.0231 9.84579 75.0231 5.5379Q75.0231 1.09923 77.9578-1.861Q80.8924-4.82123 85.9101-6.12233L91.4253-7.57246Q93.4057-8.09901 93.8006-8.55867Q94.1955-9.01833 94.1955-10.8146L94.1955-35.525Q94.1955-38.4696 95.0738-39.5872Q95.952-40.7048 98.5529-41.3248L116.657-45.8375Q119.302-46.4589 120.524-45.6195Q121.746-44.7802 121.746-42.4282L121.746-30.2107Q121.746-27.3829 120.816-26.2361Q119.886-25.0893 117.248-24.4692Z"/>
  </g>
  <g id="Heavy-L" transform="matrix(1 0 0 1 2539.78 1556)">
   <path d="M38.1264 13.7503Q38.1264 20.9826 42.7248 25.3058Q47.3232 29.629 55.0673 29.629L138.755 29.629Q146.506 29.629 151.101 25.3058Q155.696 20.9826 155.696 13.7503L155.696-29.8983L101.062-75.7502Q99.1522-77.4065 96.9543-77.4035Q94.7565-77.4004 92.8381-75.7502L38.1264-29.9103ZM16.084-43.8881Q16.084-40.2845 18.4929-37.9171Q20.9018-35.5498 24.9253-35.5498Q26.7318-35.5498 28.4859-36.3429Q30.2401-37.136 31.8025-38.4246L93.2176-89.9479Q96.9306-93.1102 100.739-89.9479L162.047-38.4246Q163.603-37.136 165.372-36.3429Q167.141-35.5498 168.948-35.5498Q172.837-35.5498 175.283-37.7951Q177.729-40.0403 177.729-43.7988Q177.729-48.0365 174.221-50.9679L108.736-105.999Q103.39-110.497 96.9783-110.497Q90.5668-110.497 85.2503-105.999L19.6225-50.9233Q16.084-47.9026 16.084-43.8881ZM133.931-79.2725L156.41-60.5023L156.41-94.0167Q156.41-98.8928 151.522-98.8928L138.918-98.8928Q136.688-98.8928 135.31-97.5577Q133.931-96.2226 133.931-94.0167ZM114.739-26.7808L100.433-23.3348Q99.617-23.1381 99.3115-22.6972Q99.0061-22.2563 99.0061-20.7668L99.0061-2.02593Q99.0061 4.88044 94.7343 9.32983Q90.4625 13.7792 83.6067 13.7792Q78.8327 13.7792 75.8532 11.084Q72.8737 8.38874 72.8737 4.16878Q72.8737-0.259939 75.8193-3.12322Q78.7648-5.98649 83.5891-7.24624L89.1413-8.70587Q91.1997-9.25998 91.6153-9.77692Q92.0309-10.2939 92.0309-12.1496L92.0309-37.5999Q92.0309-40.4708 92.872-41.5309Q93.7132-42.591 96.2267-43.1925L114.23-47.6715Q116.815-48.279 117.94-47.472Q119.066-46.665 119.066-44.4556L119.066-32.3288Q119.066-29.5471 118.163-28.4647Q117.261-27.3823 114.739-26.7808Z"/>
  </g>
  <g id="Bold-L" transform="matrix(1 0 0 1 2245.57 1556)">
   <path d="M36.9527 13.2096Q36.9527 20.0685 41.1902 24.1084Q45.4276 28.1483 52.6668 28.1483L136.205 28.1483Q143.458 28.1483 147.689 24.1084Q151.919 20.0685 151.919 13.2096L151.919-33.4884L98.4767-78.33Q96.5715-79.9655 94.4399-79.9584Q92.3083-79.9513 90.4251-78.33L36.9527-33.5169ZM16.084-44.1632Q16.084-41.2323 18.0812-39.2309Q20.0784-37.2295 23.4725-37.2295Q25.0492-37.2295 26.5046-37.9267Q27.9601-38.6239 29.2791-39.701L91.1881-91.6657Q94.4434-94.4391 97.7713-91.6657L159.579-39.701Q160.884-38.6239 162.358-37.9267Q163.832-37.2295 165.409-37.2295Q168.61-37.2295 170.667-39.0758Q172.723-40.9221 172.723-44.0522Q172.723-47.6144 169.831-50.0384L104.637-104.846Q99.9759-108.76 94.4797-108.76Q88.9835-108.76 84.3594-104.846L19.0134-50.0092Q16.084-47.5268 16.084-44.1632ZM132.7-76.4037L152.386-59.9251L152.386-91.9019Q152.386-96.4769 147.783-96.4769L137.393-96.4769Q135.302-96.4769 134.001-95.2232Q132.7-93.9695 132.7-91.9019ZM111.572-29.6313L97.2691-26.2017Q96.3838-25.9897 96.0362-25.5029Q95.6887-25.0162 95.6887-23.4507L95.6887-3.65455Q95.6887 3.11017 91.544 7.47643Q87.3994 11.8427 80.6781 11.8427Q75.9831 11.8427 73.1052 9.21011Q70.2274 6.57751 70.2274 2.4674Q70.2274-1.93578 73.1752-4.68197Q76.1229-7.42816 80.7221-8.64164L86.3216-10.1177Q88.4643-10.7026 88.903-11.2807Q89.3417-11.8589 89.3417-13.7753L89.3417-40.1425Q89.3417-42.9282 90.1357-43.9225Q90.9296-44.9168 93.3424-45.4947L111.155-49.9072Q113.67-50.4994 114.683-49.7314Q115.696-48.9634 115.696-46.9164L115.696-34.9543Q115.696-32.2271 114.829-31.2182Q113.962-30.2092 111.572-29.6313Z"/>
  </g>
  <g id="Semibold-L" transform="matrix(1 0 0 1 1950.59 1556)">
   <path d="M36.1435 12.8368Q36.1435 19.4384 40.1322 23.2829Q44.1209 27.1275 51.0119 27.1275L134.447 27.1275Q141.358 27.1275 145.336 23.2829Q149.315 19.4384 149.315 12.8368L149.315-35.9635L96.6945-80.1085Q94.7923-81.7297 92.7064-81.7197Q90.6205-81.7098 88.7616-80.1085L36.1435-36.0032ZM16.084-44.3529Q16.084-41.8856 17.7973-40.1366Q19.5107-38.3875 22.471-38.3875Q23.8892-38.3875 25.1387-39.0186Q26.3882-39.6497 27.5395-40.5809L89.789-92.8499Q92.7287-95.3552 95.7254-92.8499L157.878-40.5809Q159.01-39.6497 160.28-39.0186Q161.551-38.3875 162.969-38.3875Q165.696-38.3875 167.484-39.9587Q169.272-41.53 169.272-44.227Q169.272-47.3234 166.804-49.3976L101.811-104.051Q97.6225-107.563 92.7572-107.563Q87.892-107.563 83.7452-104.051L18.5936-49.3791Q16.084-47.2677 16.084-44.3529ZM131.852-74.4259L149.612-59.5272L149.612-90.444Q149.612-94.8114 145.205-94.8114L136.341-94.8114Q134.347-94.8114 133.099-93.6138Q131.852-92.4162 131.852-90.444ZM109.388-31.5965L95.0877-28.1782Q94.1549-27.9555 93.7783-27.4372Q93.4016-26.9189 93.4016-25.3009L93.4016-4.77731Q93.4016 1.88975 89.3447 6.19871Q85.2877 10.5077 78.6591 10.5077Q74.0186 10.5077 71.2108 7.91827Q68.4031 5.32886 68.4031 1.29449Q68.4031-3.09109 71.3523-5.75656Q74.3016-8.42203 78.7457-9.60363L84.3777-11.0909Q86.5785-11.6971 87.0332-12.3175Q87.4879-12.9378 87.4879-14.8961L87.4879-41.8954Q87.4879-44.6223 88.2493-45.5713Q89.0106-46.5202 91.354-47.0819L109.036-51.4485Q111.503-52.03 112.438-51.289Q113.373-50.5479 113.373-48.6128L113.373-36.7643Q113.373-34.0746 112.531-33.1164Q111.688-32.1581 109.388-31.5965Z"/>
  </g>
  <g id="Medium-L" transform="matrix(1 0 0 1 1655.18 1556)">
   <path d="M35.53 12.5542Q35.53 18.9605 39.33 22.657Q43.13 26.3535 49.7571 26.3535L133.114 26.3535Q139.765 26.3535 143.553 22.657Q147.341 18.9605 147.341 12.5542L147.341-37.8401L95.3433-81.457Q93.4433-83.0674 91.392-83.0553Q89.3408-83.0432 87.5002-81.457L35.53-37.8885ZM16.084-44.4967Q16.084-42.3811 17.5821-40.8233Q19.0802-39.2655 21.7116-39.2655Q23.0097-39.2655 24.103-39.8465Q25.1964-40.4274 26.2205-41.2481L88.7281-93.7479Q91.4286-96.0499 94.1742-93.7479L156.588-41.2481Q157.588-40.4274 158.705-39.8465Q159.821-39.2655 161.119-39.2655Q163.486-39.2655 165.071-40.6282Q166.655-41.9909 166.655-44.3594Q166.655-47.1028 164.509-48.9118L99.6685-103.448Q95.838-106.655 91.4512-106.655Q87.0643-106.655 83.2795-103.448L18.2752-48.9013Q16.084-47.0712 16.084-44.4967ZM131.208-72.9263L147.509-59.2255L147.509-89.3385Q147.509-93.5485 143.251-93.5485L135.544-93.5485Q133.623-93.5485 132.415-92.3935Q131.208-91.2385 131.208-89.3385ZM107.733-33.0865L93.4336-29.6768Q92.4649-29.4461 92.0662-28.9039Q91.6675-28.3617 91.6675-26.7038L91.6675-5.62864Q91.6675 0.964373 87.6771 5.22989Q83.6866 9.49542 77.1283 9.49542Q72.529 9.49542 69.7744 6.93875Q67.0198 4.38208 67.0198 0.405133Q67.0198-3.9671 69.9702-6.57136Q72.9206-9.17563 77.2471-10.333L82.9037-11.8289Q85.1487-12.4512 85.6154-13.1036Q86.0822-13.7559 86.0822-15.7459L86.0822-43.2246Q86.0822-45.9068 86.8189-46.8214Q87.5556-47.736 89.8463-48.2853L107.428-52.6172Q109.859-53.1907 110.735-52.47Q111.612-51.7494 111.612-49.8991L111.612-38.1368Q111.612-35.4755 110.788-34.5557Q109.964-33.6358 107.733-33.0865Z"/>
  </g>
  <g id="Regular-L" transform="matrix(1 0 0 1 1360.18 1556)">
   <path d="M34.7297 12.1856Q34.7297 18.3373 38.2837 21.8406Q41.8376 25.3439 48.1204 25.3439L131.375 25.3439Q137.687 25.3439 141.226 21.8406Q144.765 18.3373 144.765 12.1856L144.765-40.288L93.5807-83.2159Q91.6837-84.8121 89.6776-84.7973Q87.6715-84.7824 85.855-83.2159L34.7297-40.3475ZM16.084-44.6843Q16.084-43.0273 17.3014-41.719Q18.5188-40.4107 20.7211-40.4107Q21.8625-40.4107 22.7521-40.9263Q23.6418-41.4419 24.5-42.1184L87.3444-94.9191Q89.7327-96.956 92.1508-94.9191L154.906-42.1184Q155.734-41.4419 156.649-40.9263Q157.564-40.4107 158.706-40.4107Q160.604-40.4107 161.923-41.5014Q163.242-42.5921 163.242-44.5322Q163.242-46.815 161.516-48.278L96.8738-102.662Q93.5104-105.471 89.7476-105.471Q85.9848-105.471 82.6721-102.662L17.8599-48.278Q16.084-46.815 16.084-44.6843ZM130.369-70.9703L144.765-58.8319L144.765-87.8966Q144.765-91.9012 140.701-91.9012L134.504-91.9012Q132.678-91.9012 131.523-90.8018Q130.369-89.7023 130.369-87.8966ZM105.573-35.0301L91.2762-31.6315Q90.2605-31.3903 89.833-30.8169Q89.4056-30.2435 89.4056-28.5337L89.4056-6.73906Q89.4056-0.242636 85.5019 3.96622Q81.5982 8.17507 75.1315 8.17507Q70.5861 8.17507 67.9008 5.66111Q65.2155 3.14715 65.2155-0.754894Q65.2155-5.10972 68.1674-7.63415Q71.1193-10.1586 75.2923-11.2845L80.9812-12.7915Q83.2836-13.4349 83.7661-14.1289Q84.2487-14.8229 84.2487-16.8544L84.2487-44.9582Q84.2487-47.5823 84.9532-48.4521Q85.6577-49.3218 87.8797-49.855L105.332-54.1416Q107.715-54.7045 108.515-54.0105Q109.315-53.3164 109.315-51.5769L109.315-39.9269Q109.315-37.3028 108.515-36.4331Q107.715-35.5633 105.573-35.0301Z"/>
  </g>
  <g id="Light-L" transform="matrix(1 0 0 1 1065.66 1556)">
   <path d="M33.3342 12.8012Q33.3342 18.4809 36.6214 21.738Q39.9086 24.995 45.6988 24.995L129.466 24.995Q135.307 24.995 138.569 21.738Q141.831 18.4809 141.831 12.8012L141.831-43.1405L91.508-85.3912Q89.4674-87.0901 87.4921-87.0649Q85.5167-87.0398 83.5565-85.3912L33.3342-43.2411ZM16.084-44.91Q16.084-43.6635 17.0038-42.6733Q17.9236-41.6831 19.5924-41.6831Q20.467-41.6831 21.1104-42.055Q21.7538-42.427 22.4273-42.9598L84.9639-95.5142Q87.5574-97.7358 90.2012-95.5142L152.587-42.9598Q153.21-42.427 153.869-42.055Q154.527-41.6831 155.402-41.6831Q156.89-41.6831 157.87-42.5275Q158.85-43.3719 158.85-44.8195Q158.85-46.5687 157.432-47.765L94.0212-101.164Q90.9451-103.747 87.5825-103.747Q84.2199-103.747 81.174-101.164L17.5316-47.765Q16.084-46.5687 16.084-44.91ZM129.486-68.3024L141.831-57.8879L141.831-86.8089Q141.831-90.1364 138.403-90.1364L132.924-90.1364Q131.446-90.1364 130.466-89.2216Q129.486-88.3068 129.486-86.8089ZM103.008-36.9181L88.8341-33.5606Q87.8389-33.3193 87.4217-32.7665Q87.0045-32.2136 87.0045-30.5448L87.0045-7.8062Q87.0045-1.43291 83.265 2.68359Q79.5254 6.8001 73.2024 6.8001Q68.7391 6.8001 66.1154 4.32718Q63.4917 1.85426 63.4917-1.96569Q63.4917-6.2179 66.3717-8.68077Q69.2518-11.1436 73.3633-12.2695L79.0932-13.8176Q81.3751-14.461 81.8576-15.1345Q82.3401-15.808 82.3401-17.7984L82.3401-46.5384Q82.3401-49.142 83.0036-50.0015Q83.6671-50.861 85.8686-51.3737L102.767-55.455Q105.129-56.0179 105.898-55.3444Q106.667-54.6709 106.667-52.9519L106.667-41.7534Q106.667-39.1498 105.898-38.2903Q105.129-37.4308 103.008-36.9181Z"/>
  </g>
  <g id="Thin-L" transform="matrix(1 0 0 1 771.856 1556)">
   <path d="M31.4885 13.6155Q31.4885 18.6709 34.4229 21.6023Q37.3572 24.5336 42.4961 24.5336L126.942 24.5336Q132.158 24.5336 135.054 21.6023Q137.95 18.6709 137.95 13.6155L137.95-46.9133L88.7667-88.2683Q86.536-90.1028 84.6014-90.0641Q82.6668-90.0254 80.5166-88.2683L31.4885-47.0681ZM16.084-45.2086Q16.084-44.5049 16.6103-43.9354Q17.1365-43.3659 18.0996-43.3659Q18.6213-43.3659 18.939-43.5478Q19.2567-43.7298 19.686-44.0726L81.8154-96.3013Q84.6803-98.7672 87.6227-96.3013L149.52-44.0726Q149.872-43.7298 150.191-43.5478Q150.51-43.3659 151.032-43.3659Q151.977-43.3659 152.509-43.8846Q153.041-44.4033 153.041-45.1995Q153.041-46.243 152.031-47.0864L90.2485-99.1826Q87.5524-101.468 84.719-101.468Q81.8857-101.468 79.1926-99.1826L17.0973-47.0864Q16.084-46.243 16.084-45.2086ZM128.319-64.774L137.95-56.6394L137.95-85.3704Q137.95-87.8021 135.363-87.8021L130.834-87.8021Q129.818-87.8021 129.069-87.1316Q128.319-86.4611 128.319-85.3704ZM99.6154-39.4152L85.6042-36.1119Q84.6361-35.8707 84.2325-35.3449Q83.8289-34.8192 83.8289-33.2048L83.8289-9.21758Q83.8289-3.00714 80.3065 0.987221Q76.7841 4.98159 70.6511 4.98159Q66.2963 4.98159 63.754 2.56295Q61.2118 0.144321 61.2118-3.56707Q61.2118-7.68357 63.9968-10.065Q66.7819-12.4464 70.8119-13.5723L76.5961-15.1747Q78.8509-15.8181 79.3334-16.4644Q79.8159-17.1108 79.8159-19.0469L79.8159-48.6283Q79.8159-51.2048 80.4251-52.0507Q81.0343-52.8966 83.2086-53.3822L99.3741-57.1921Q101.709-57.755 102.438-57.1086Q103.166-56.4623 103.166-54.7704L103.166-44.169Q103.166-41.5926 102.438-40.7467Q101.709-39.9007 99.6154-39.4152Z"/>
  </g>
  <g id="Ultralight-L" transform="matrix(1 0 0 1 476.631 1556)">
   <path d="M30.5432 14.0326Q30.5432 18.7683 33.2968 21.5328Q36.0504 24.2973 40.8557 24.2973L125.649 24.2973Q130.546 24.2973 133.254 21.5328Q135.962 18.7683 135.962 14.0326L135.962-48.8456L87.3626-89.7419Q85.0346-91.646 83.1209-91.6003Q81.2071-91.5547 78.9596-89.7419L30.5432-49.0283ZM16.084-45.3615Q16.084-44.9358 16.4087-44.5818Q16.7334-44.2278 17.335-44.2278Q17.676-44.2278 17.8269-44.3124Q17.9777-44.3971 18.2819-44.6426L80.2028-96.7045Q83.2067-99.2955 86.302-96.7045L147.949-44.6426Q148.162-44.3971 148.307-44.3124Q148.453-44.2278 148.794-44.2278Q149.461-44.2278 149.764-44.5797Q150.066-44.9316 150.066-45.3942Q150.066-46.0762 149.265-46.7389L88.3161-98.1677Q85.8146-100.3 83.2524-100.3Q80.6901-100.3 78.1778-98.1677L16.8749-46.7389Q16.084-46.0762 16.084-45.3615ZM127.721-62.9667L135.962-55.9999L135.962-84.6336Q135.962-86.6066 133.806-86.6066L129.764-86.6066Q128.984-86.6066 128.353-86.0612Q127.721-85.5158 127.721-84.6336ZM97.8776-40.6942L83.9499-37.4187Q82.9957-37.1775 82.599-36.6656Q82.2024-36.1538 82.2024-34.5672L82.2024-9.94048Q82.2024-3.81346 78.7912 0.118348Q75.38 4.05015 69.3443 4.05015Q65.0451 4.05015 62.5446 1.65932Q60.044-0.731504 60.044-4.38728Q60.044-8.43428 62.7804-10.774Q65.5168-13.1137 69.5051-14.2396L75.3171-15.8698Q77.558-16.5131 78.0405-17.1456Q78.523-17.7781 78.523-19.6864L78.523-49.6988Q78.523-52.2613 79.1044-53.1003Q79.6858-53.9393 81.8463-54.4109L97.6364-58.0818Q99.9576-58.6447 100.665-58.0123Q101.373-57.3798 101.373-55.7018L101.373-45.4063Q101.373-42.8437 100.665-42.0048Q99.9576-41.1658 97.8776-40.6942Z"/>
  </g>
  <g id="Black-M" transform="matrix(1 0 0 1 2855.41 1126)">
   <path d="M30.7778 3.71655Q30.7778 9.70461 34.7768 13.384Q38.7757 17.0635 45.3455 17.0635L110.576 17.0635Q117.145 17.0635 121.144 13.384Q125.143 9.70461 125.143 3.71655L125.143-26.8254L81.3677-63.5944Q79.833-64.9427 78.0439-64.9429Q76.2549-64.943 74.6683-63.5944L30.7778-26.8248ZM12.4609-41.6126Q12.4609-37.9778 14.8274-35.7174Q17.1939-33.4569 21.0487-33.4569Q22.6932-33.4569 24.4049-34.1626Q26.1165-34.8682 27.6195-36.1266L74.374-75.3153Q77.9893-78.3961 81.7184-75.3153L128.36-36.1266Q129.863-34.8682 131.577-34.1626Q133.292-33.4569 134.936-33.4569Q138.815-33.4569 141.164-35.6955Q143.513-37.934 143.513-41.596Q143.513-45.6844 139.999-48.6059L89.2595-91.2319Q84.2143-95.4922 78.0462-95.4922Q71.8781-95.4922 66.8385-91.2319L15.9803-48.5488Q12.4609-45.5131 12.4609-41.6126ZM105.26-72.6344L126.057-55.3314L126.057-83.4936Q126.057-87.4808 122.07-87.4808L109.315-87.4808Q107.503-87.4808 106.382-86.3903Q105.26-85.2998 105.26-83.4936ZM92.6465-25.1623L81.6011-22.4826Q81.0763-22.3527 80.9048-22.085Q80.7333-21.8172 80.7333-20.7885L80.7333-7.48935Q80.7333-1.97366 77.2938 1.56346Q73.8542 5.10057 68.3953 5.10057Q64.6092 5.10057 62.1733 2.93492Q59.7374 0.769273 59.7374-2.63266Q59.7374-6.06615 61.9918-8.43454Q64.2463-10.8029 68.2916-11.8465L72.5381-12.9674Q74.0027-13.3516 74.2908-13.6557Q74.579-13.9598 74.579-15.2949L74.579-33.8893Q74.579-36.2311 75.2857-37.145Q75.9924-38.0589 78.0798-38.5524L92.117-42.0498Q94.2148-42.543 95.2406-41.8677Q96.2664-41.1925 96.2664-39.2505L96.2664-29.7683Q96.2664-27.5407 95.5261-26.5982Q94.7858-25.6558 92.6465-25.1623Z"/>
  </g>
  <g id="Heavy-M" transform="matrix(1 0 0 1 2560.42 1126)">
   <path d="M30.0519 3.11182Q30.0519 8.87494 33.7928 12.3597Q37.5337 15.8444 43.7679 15.8444L108.757 15.8444Q114.994 15.8444 118.733 12.3597Q122.473 8.87494 122.473 3.11182L122.473-29.35L79.5539-65.3815Q78.0539-66.6897 76.3161-66.6885Q74.5783-66.6873 73.0534-65.3815L30.0519-29.3549ZM12.4609-41.8045Q12.4609-38.6694 14.5315-36.6604Q16.6021-34.6515 20.0216-34.6515Q21.5226-34.6515 23.0261-35.3042Q24.5295-35.9568 25.8596-37.0613L73.1119-76.6886Q76.283-79.39 79.5438-76.6886L126.702-37.0613Q128.029-35.9568 129.541-35.3042Q131.052-34.6515 132.553-34.6515Q135.919-34.6515 138-36.5942Q140.082-38.537 140.082-41.7558Q140.082-45.3685 137.04-47.9038L86.2902-90.5461Q81.7821-94.345 76.3279-94.345Q70.8736-94.345 66.3818-90.5461L15.5186-47.8602Q12.4609-45.2376 12.4609-41.8045ZM104.374-70.7004L123.171-55.0297L123.171-81.8792Q123.171-85.7486 119.297-85.7486L108.322-85.7486Q106.557-85.7486 105.465-84.6896Q104.374-83.6307 104.374-81.8792ZM90.4299-27.2478L79.3605-24.5736Q78.7711-24.4303 78.5606-24.1181Q78.35-23.8059 78.35-22.7019L78.35-8.68334Q78.35-3.26499 74.9863 0.219322Q71.6227 3.70364 66.2504 3.70364Q62.5157 3.70364 60.1554 1.58391Q57.7951-0.535812 57.7951-3.85938Q57.7951-7.29259 60.0669-9.57189Q62.3387-11.8512 66.2006-12.8543L70.4795-13.9807Q72.0222-14.3919 72.3306-14.7539Q72.639-15.1159 72.639-16.5128L72.639-35.7719Q72.639-38.0436 73.3132-38.9022Q73.9875-39.7608 75.9913-40.2381L89.9812-43.7214Q92.0224-44.2012 92.9565-43.5556Q93.8905-42.9101 93.8905-41.1056L93.8905-31.6704Q93.8905-29.4859 93.1746-28.6055Q92.4586-27.7251 90.4299-27.2478Z"/>
  </g>
  <g id="Bold-M" transform="matrix(1 0 0 1 2265.63 1126)">
   <path d="M29.2398 2.43534Q29.2398 7.94685 32.692 11.2138Q36.1442 14.4808 42.0032 14.4808L106.722 14.4808Q112.587 14.4808 116.036 11.2138Q119.486 7.94685 119.486 2.43534L119.486-32.1742L77.5249-67.3807Q76.0636-68.644 74.3832-68.6412Q72.7028-68.6384 71.2468-67.3807L29.2398-32.1852ZM12.4609-42.0192Q12.4609-39.443 14.2006-37.7154Q15.9402-35.9877 18.8727-35.9877Q20.2131-35.9877 21.4837-36.5812Q22.7543-37.1747 23.8909-38.1069L71.7-78.2248Q74.3743-80.5017 77.1112-78.2248L124.847-38.1069Q125.978-37.1747 127.262-36.5812Q128.547-35.9877 129.888-35.9877Q132.679-35.9877 134.461-37.5997Q136.243-39.2116 136.243-41.9345Q136.243-45.015 133.73-47.1185L82.9686-89.7789Q79.0613-93.0616 74.4056-93.0616Q69.7499-93.0616 65.8709-89.7789L15.0021-47.09Q12.4609-44.9294 12.4609-42.0192ZM103.383-68.537L119.943-54.6923L119.943-80.0732Q119.943-83.811 116.194-83.811L107.211-83.811Q105.498-83.811 104.44-82.7872Q103.383-81.7634 103.383-80.0732ZM87.9502-29.5807L76.8541-26.9126Q76.1924-26.7543 75.9382-26.3924Q75.6839-26.0306 75.6839-24.8422L75.6839-10.019Q75.6839-4.70954 72.4052-1.28429Q69.1265 2.14097 63.8511 2.14097Q60.1738 2.14097 57.8981 0.0726153Q55.6224-1.99574 55.6224-5.23163Q55.6224-8.66454 57.9136-10.8442Q60.2048-13.0238 63.8615-13.9817L68.1768-15.1142Q69.8068-15.5556 70.1378-15.9823Q70.4688-16.4091 70.4688-17.8752L70.4688-37.8778Q70.4688-40.0711 71.1067-40.8678Q71.7447-41.6646 73.655-42.1238L87.592-45.5914Q89.5698-46.0561 90.4013-45.4438Q91.2328-44.8314 91.2328-43.1808L91.2328-33.7982Q91.2328-31.662 90.544-30.8509Q89.8553-30.0399 87.9502-29.5807Z"/>
  </g>
  <g id="Semibold-M" transform="matrix(1 0 0 1 1970.24 1126)">
   <path d="M28.6799 1.96898Q28.6799 7.30702 31.9331 10.4238Q35.1863 13.5407 40.7866 13.5407L105.32 13.5407Q110.928 13.5407 114.177 10.4238Q117.426 7.30702 117.426 1.96898L117.426-34.1211L76.1261-68.7589Q74.6916-69.9912 73.0507-69.9874Q71.4099-69.9836 70.0013-68.7589L28.6799-34.1364ZM12.4609-42.1672Q12.4609-39.9764 13.9724-38.4427Q15.4838-36.909 18.0806-36.909Q19.3104-36.909 20.4204-37.4616Q21.5305-38.0143 22.5337-38.8277L70.7266-79.2839Q73.0584-81.2681 75.4342-79.2839L123.568-38.8277Q124.563-38.0143 125.692-37.4616Q126.82-36.909 128.05-36.909Q130.446-36.909 132.021-38.2928Q133.597-39.6767 133.597-42.0577Q133.597-44.7713 131.448-46.5771L80.6787-89.2501Q77.1856-92.1769 73.0804-92.1769Q68.9753-92.1769 65.5187-89.2501L14.6461-46.5589Q12.4609-44.7169 12.4609-42.1672ZM102.699-67.0456L117.717-54.4597L117.717-78.8281Q117.717-82.4752 114.055-82.4752L106.445-82.4752Q104.768-82.4752 103.734-81.4757Q102.699-80.4762 102.699-78.8281ZM86.2408-31.189L75.1262-28.5252Q74.4147-28.3564 74.1303-27.9603Q73.8459-27.5642 73.8459-26.3178L73.8459-10.9398Q73.8459-5.70541 70.6257-2.32087Q67.4055 1.06367 62.1969 1.06367Q58.5594 1.06367 56.342-0.969264Q54.1246-3.0022 54.1246-6.17766Q54.1246-9.61036 56.4291-11.7213Q58.7337-13.8322 62.2489-14.7589L66.5892-15.8957Q68.2795-16.3578 68.6261-16.8292Q68.9727-17.3006 68.9727-18.8145L68.9727-39.3296Q68.9727-41.4688 69.5856-42.2229Q70.1985-42.9771 72.0444-43.4237L85.9449-46.8806Q87.879-47.3348 88.6398-46.7454Q89.4005-46.156 89.4005-44.6114L89.4005-35.265Q89.4005-33.1621 88.7306-32.3989Q88.0606-31.6357 86.2408-31.189Z"/>
  </g>
  <g id="Medium-M" transform="matrix(1 0 0 1 1674.53 1126)">
   <path d="M28.2554 1.61536Q28.2554 6.82188 31.3577 9.82485Q34.46 12.8278 39.8641 12.8278L104.256 12.8278Q109.67 12.8278 112.767 9.82485Q115.865 6.82188 115.865 1.61536L115.865-35.5974L75.0655-69.8039Q73.6512-71.0127 72.0403-71.0081Q70.4295-71.0035 69.057-69.8039L28.2554-35.6159ZM12.4609-42.2795Q12.4609-40.3808 13.7994-38.9941Q15.1378-37.6075 17.4801-37.6075Q18.6259-37.6075 19.6142-38.1292Q20.6025-38.6509 21.5046-39.3742L69.9886-80.0869Q72.0607-81.8492 74.1626-80.0869L122.598-39.3742Q123.491-38.6509 124.501-38.1292Q125.511-37.6075 126.656-37.6075Q128.752-37.6075 130.171-38.8184Q131.59-40.0293 131.59-42.1511Q131.59-44.5866 129.718-46.1666L78.9424-88.8491Q75.7633-91.5061 72.0756-91.5061Q68.3879-91.5061 65.2516-88.8491L14.3761-46.1563Q12.4609-44.5558 12.4609-42.2795ZM102.181-65.9147L116.029-54.2833L116.029-77.8841Q116.029-81.4623 112.433-81.4623L105.864-81.4623Q104.215-81.4623 103.198-80.4812Q102.181-79.5002 102.181-77.8841ZM84.9446-32.4085L73.8161-29.7479Q73.0667-29.5713 72.7595-29.1492Q72.4523-28.7271 72.4523-27.4366L72.4523-11.638Q72.4523-6.46051 69.2765-3.10684Q66.1007 0.246825 60.9427 0.246825Q57.3352 0.246825 55.1621-1.75926Q52.9889-3.76535 52.9889-6.89497Q52.9889-10.3275 55.3036-12.3863Q57.6182-14.4452 61.0262-15.3483L65.3855-16.4882Q67.1214-16.9661 67.4798-17.4714Q67.8382-17.9766 67.8382-19.5267L67.8382-40.4304Q67.8382-42.5286 68.4322-43.2504Q69.0261-43.9723 70.8231-44.4094L84.696-47.858Q86.597-48.3045 87.3041-47.7324Q88.0113-47.1604 88.0113-45.6961L88.0113-36.3773Q88.0113-34.2996 87.3555-33.5726Q86.6998-32.8457 84.9446-32.4085Z"/>
  </g>
  <g id="Regular-M" transform="matrix(1 0 0 1 1379.13 1126)">
   <path d="M27.7018 1.15413Q27.7018 6.18909 30.6072 9.04357Q33.5126 11.898 38.6609 11.898L102.869 11.898Q108.029 11.898 110.928 9.04357Q113.828 6.18909 113.828 1.15413L113.828-37.523L73.6821-71.167Q72.2942-72.3452 70.7225-72.3395Q69.1507-72.3338 67.8252-71.167L27.7018-37.5457ZM12.4609-42.4259Q12.4609-40.9082 13.5737-39.7134Q14.6864-38.5185 16.6967-38.5185Q17.733-38.5185 18.5626-38.9999Q19.3922-39.4812 20.1623-40.0871L69.0259-81.1344Q70.7593-82.6072 72.504-81.1344L121.334-40.0871Q122.092-39.4812 122.947-38.9999Q123.803-38.5185 124.839-38.5185Q126.543-38.5185 127.758-39.5039Q128.973-40.4892 128.973-42.273Q128.973-44.3456 127.461-45.6311L76.6777-88.326Q73.9082-90.6311 70.765-90.6311Q67.6218-90.6311 64.9032-88.326L14.0239-45.6311Q12.4609-44.3456 12.4609-42.4259ZM101.505-64.4397L113.828-54.0532L113.828-76.6527Q113.828-80.1412 110.317-80.1412L105.107-80.1412Q103.493-80.1412 102.499-79.1841Q101.505-78.2271 101.505-76.6527ZM83.2539-33.9991L72.1071-31.3427Q71.3085-31.1558 70.9715-30.6999Q70.6345-30.2439 70.6345-28.8959L70.6345-12.5486Q70.6345-7.44543 67.5166-4.13203Q64.3987-0.818631 59.3068-0.818631Q55.7385-0.818631 53.623-2.78969Q51.5075-4.76075 51.5075-7.8306Q51.5075-11.2629 53.8354-13.2538Q56.1633-15.2447 59.4314-16.1169L63.8154-17.2611Q65.6109-17.7595 65.9847-18.3089Q66.3586-18.8583 66.3586-20.4556L66.3586-41.8663Q66.3586-43.911 66.9278-44.5907Q67.497-45.2703 69.2302-45.6951L83.067-49.133Q84.9248-49.5692 85.562-49.0198Q86.1992-48.4704 86.1992-47.111L86.1992-37.828Q86.1992-35.7833 85.562-35.1036Q84.9248-34.4239 83.2539-33.9991Z"/>
  </g>
  <g id="Light-M" transform="matrix(1 0 0 1 1084.38 1126)">
   <path d="M26.4506 1.7061Q26.4506 6.31788 29.1169 8.95157Q31.7831 11.5853 36.4898 11.5853L101.158 11.5853Q105.894 11.5853 108.546 8.95157Q111.197 6.31788 111.197 1.7061L111.197-40.0805L71.8238-73.1173Q70.3071-74.3875 68.763-74.3726Q67.2188-74.3577 65.7645-73.1173L26.4506-40.1399ZM12.4609-42.6283Q12.4609-41.4786 13.3069-40.5689Q14.1528-39.6593 15.6848-39.6593Q16.4819-39.6593 17.0907-40.0118Q17.6995-40.3643 18.304-40.8415L66.8917-81.668Q68.809-83.3064 70.7561-81.668L119.255-40.8415Q119.829-40.3643 120.454-40.0118Q121.079-39.6593 121.877-39.6593Q123.213-39.6593 124.124-40.4238Q125.035-41.1884 125.035-42.5306Q125.035-44.1248 123.799-45.1711L74.1202-86.9829Q71.6083-89.0856 68.8239-89.0856Q66.0395-89.0856 63.5601-86.9829L13.7296-45.1711Q12.4609-44.1248 12.4609-42.6283ZM100.714-62.0478L111.197-53.2069L111.197-75.6776Q111.197-78.5589 108.256-78.5589L103.69-78.5589Q102.389-78.5589 101.551-77.7674Q100.714-76.9759 100.714-75.6776ZM80.954-35.6918L69.9177-33.0722Q69.1374-32.8853 68.8096-32.4478Q68.4818-32.0102 68.4818-30.699L68.4818-13.5054Q68.4818-8.51257 65.5111-5.28197Q62.5404-2.05136 57.5773-2.05136Q54.0826-2.05136 52.0223-3.98563Q49.962-5.91989 49.962-8.91614Q49.962-12.2565 52.2255-14.1922Q54.489-16.1278 57.7019-17.0001L62.1227-18.1811Q63.8998-18.6795 64.2736-19.2105Q64.6475-19.7415 64.6475-21.3019L64.6475-43.283Q64.6475-45.3093 65.1799-45.9798Q65.7123-46.6503 67.4271-47.0566L80.7671-50.3106Q82.6065-50.7467 83.2161-50.2157Q83.8257-49.6847 83.8257-48.3437L83.8257-39.4655Q83.8257-37.4392 83.2161-36.7687Q82.6065-36.0982 80.954-35.6918Z"/>
  </g>
  <g id="Thin-M" transform="matrix(1 0 0 1 790.275 1126)">
   <path d="M24.7959 2.43612Q24.7959 6.48822 27.1458 8.8299Q29.4957 11.1716 33.6184 11.1716L98.8949 11.1716Q103.072 11.1716 105.394 8.8299Q107.717 6.48822 107.717 2.43612L107.717-43.4629L69.366-75.6967Q67.6791-77.0885 66.1714-77.0615Q64.6638-77.0345 63.0391-75.6967L24.7959-43.5711ZM12.4609-42.8959Q12.4609-42.233 12.954-41.7005Q13.4472-41.168 14.3464-41.168Q14.8272-41.168 15.1439-41.3502Q15.4607-41.5324 15.8463-41.8392L64.0689-82.3736Q66.2296-84.2311 68.4444-82.3736L116.505-41.8392Q116.836-41.5324 117.157-41.3502Q117.478-41.168 117.959-41.168Q118.809-41.168 119.318-41.6405Q119.828-42.1131 119.828-42.8713Q119.828-43.8328 118.957-44.5628L70.7378-85.2065Q68.5666-87.0415 66.2566-87.0415Q63.9467-87.0415 61.7837-85.2065L13.3402-44.5628Q12.4609-43.8328 12.4609-42.8959ZM99.6674-58.8844L107.717-52.0875L107.717-74.3878Q107.717-76.4661 105.531-76.4661L101.816-76.4661Q100.929-76.4661 100.298-75.8937Q99.6674-75.3212 99.6674-74.3878ZM77.9123-37.9306L67.0219-35.3596Q66.266-35.1727 65.9504-34.7595Q65.6347-34.3463 65.6347-33.0838L65.6347-14.7708Q65.6347-9.92395 62.8587-6.80285Q60.0826-3.68175 55.2899-3.68175Q51.8925-3.68175 49.9052-5.56735Q47.918-7.45294 47.918-10.3519Q47.918-13.5705 50.0963-15.4332Q52.2746-17.2959 55.4145-18.1681L59.884-19.3978Q61.6367-19.8962 62.0105-20.4029Q62.3844-20.9095 62.3844-22.4213L62.3844-45.1567Q62.3844-47.1587 62.8681-47.817Q63.3519-48.4753 65.0423-48.8574L77.7253-51.868Q79.5404-52.3041 80.1135-51.7974Q80.6866-51.2908 80.6866-49.9741L80.6866-41.6312Q80.6866-39.6293 80.1135-38.971Q79.5404-38.3126 77.9123-37.9306Z"/>
  </g>
  <g id="Ultralight-M" transform="matrix(1 0 0 1 494.897 1126)">
   <path d="M23.9484 2.81004Q23.9484 6.57546 26.1362 8.76758Q28.3241 10.9597 32.1476 10.9597L97.7358 10.9597Q101.626 10.9597 103.78 8.76758Q105.935 6.57546 105.935 2.81004L105.935-45.1954L68.1072-77.0178Q66.333-78.472 64.844-78.4388Q63.3551-78.4055 61.6432-77.0178L23.9484-45.3285ZM12.4609-43.033Q12.4609-42.6194 12.7733-42.2801Q13.0857-41.9408 13.6609-41.9408Q13.9796-41.9408 14.1468-42.0357Q14.314-42.1307 14.5874-42.3502L62.6231-82.7351Q64.9084-84.7047 67.2603-82.7351L115.096-42.3502Q115.303-42.1307 115.468-42.0357Q115.633-41.9408 115.952-41.9408Q116.553-41.9408 116.857-42.2637Q117.161-42.5867 117.161-43.0458Q117.161-43.6832 116.476-44.2512L69.0053-84.2966Q67.0086-85.9945 64.9417-85.9945Q62.8748-85.9945 60.8739-84.2966L13.1408-44.2512Q12.4609-43.6832 12.4609-43.033ZM99.1315-57.2641L105.935-51.5142L105.935-73.7273Q105.935-75.3943 104.135-75.3943L100.857-75.3943Q100.181-75.3943 99.6562-74.934Q99.1315-74.4737 99.1315-73.7273ZM76.3543-39.0773L65.5387-36.5312Q64.7953-36.3443 64.4859-35.9436Q64.1765-35.5428 64.1765-34.3052L64.1765-15.4189Q64.1765-10.6469 61.5001-7.58184Q58.8238-4.51683 54.1183-4.51683Q50.7708-4.51683 48.8209-6.3775Q46.871-8.23816 46.871-11.0872Q46.871-14.2436 49.0057-16.0689Q51.1404-17.8941 54.2429-18.7664L58.7373-20.021Q60.4776-20.5194 60.8514-21.0136Q61.2252-21.5078 61.2252-22.9946L61.2252-46.1164Q61.2252-48.1059 61.684-48.758Q62.1429-49.4101 63.8208-49.7797L76.1674-52.6656Q77.97-53.1018 78.5244-52.6076Q79.0787-52.1134 79.0787-50.8092L79.0787-42.7405Q79.0787-40.751 78.5244-40.0989Q77.97-39.4469 76.3543-39.0773Z"/>
  </g>
  <g id="Black-S" transform="matrix(1 0 0 1 2871.88 696)">
   <path d="M24.2676-4.49219Q24.2676 0.244141 27.4658 3.17383Q30.6641 6.10352 35.8887 6.10352L87.1094 6.10352Q92.334 6.10352 95.5322 3.17383Q98.7305 0.244141 98.7305-4.49219L98.7305-28.0273L64.209-57.0312Q62.9883-58.1055 61.5723-58.1055Q60.1562-58.1055 58.8867-57.0312L24.2676-28.0273ZM9.76562-40.1855Q9.76562-37.207 11.6943-35.376Q13.623-33.5449 16.748-33.5449Q18.0664-33.5449 19.458-34.1064Q20.8496-34.668 22.0703-35.6934L58.5449-66.2598Q61.5234-68.7988 64.5996-66.2598L100.977-35.6934Q102.197-34.668 103.589-34.1064Q104.98-33.5449 106.299-33.5449Q109.473-33.5449 111.377-35.376Q113.281-37.207 113.281-40.1855Q113.281-43.5059 110.4-45.8984L70.7031-79.248Q66.6016-82.7148 61.5723-82.7148Q56.543-82.7148 52.4414-79.248L12.6465-45.8496Q9.76562-43.3594 9.76562-40.1855ZM82.7148-64.9902L99.5117-51.0254L99.5117-73.4863Q99.5117-76.6113 96.3867-76.6113L85.8887-76.6113Q84.4727-76.6113 83.5938-75.7568Q82.7148-74.9023 82.7148-73.4863ZM73.1445-26.8066L64.502-24.707Q64.1113-24.6094 63.9893-24.4141Q63.8672-24.2188 63.8672-23.4375L63.8672-13.1836Q63.8672-8.83789 61.1572-6.05469Q58.4473-3.27148 54.1504-3.27148Q51.1719-3.27148 49.2432-4.98047Q47.3145-6.68945 47.3145-9.375Q47.3145-12.0605 49.0723-13.9404Q50.8301-15.8203 54.0527-16.6504L57.373-17.5293Q58.4961-17.8223 58.7158-18.042Q58.9355-18.2617 58.9355-19.2871L58.9355-33.6914Q58.9355-35.5469 59.4971-36.2793Q60.0586-37.0117 61.7188-37.4023L72.7051-40.1367Q74.3652-40.5273 75.1953-39.9902Q76.0254-39.4531 76.0254-37.8906L76.0254-30.4688Q76.0254-28.7109 75.4395-27.9541Q74.8535-27.1973 73.1445-26.8066Z"/>
  </g>
  <g id="Heavy-S" transform="matrix(1 0 0 1 2576.38 696)">
   <path d="M23.8066-5.07994Q23.8066-0.481901 26.8147 2.30949Q29.8228 5.10089 34.8169 5.10089L85.7725 5.10089Q90.7667 5.10089 93.7747 2.30949Q96.7828-0.481901 96.7828-5.07994L96.7828-29.8597L62.8952-58.3105Q61.7206-59.3386 60.3449-59.3386Q58.9692-59.3386 57.7688-58.3105L23.8066-29.8597ZM9.76562-40.3238Q9.76562-37.7256 11.4754-36.0732Q13.1851-34.4208 15.999-34.4208Q17.2251-34.4208 18.4669-34.9535Q19.7087-35.4862 20.8026-36.3964L57.7382-67.3661Q60.3134-69.5594 62.9631-67.3661L99.8241-36.3964Q100.918-35.4862 102.166-34.9535Q103.413-34.4208 104.639-34.4208Q107.421-34.4208 109.135-36.0271Q110.85-37.6334 110.85-40.2893Q110.85-43.2638 108.338-45.3568L68.4904-78.8332Q64.8153-81.9312 60.3507-81.9312Q55.8861-81.9312 52.2224-78.8332L12.2892-45.3195Q9.76562-43.1519 9.76562-40.3238ZM82.0579-63.6419L97.3797-50.8756L97.3797-72.2302Q97.3797-75.3321 94.2777-75.3321L85.2203-75.3321Q83.8042-75.3321 82.9311-74.4834Q82.0579-73.6347 82.0579-72.2302ZM71.5426-28.374L62.8655-26.2744Q62.4172-26.1652 62.2606-25.9295Q62.1039-25.6939 62.1039-24.8435L62.1039-14.0825Q62.1039-9.80595 59.4401-7.05732Q56.7762-4.30869 52.537-4.30869Q49.593-4.30869 47.7219-5.9831Q45.8508-7.65751 45.8508-10.2854Q45.8508-12.9825 47.6317-14.7932Q49.4126-16.604 52.4854-17.3995L55.8288-18.2784Q57.021-18.5944 57.258-18.866Q57.495-19.1376 57.495-20.2206L57.495-35.1204Q57.495-36.9183 58.0335-37.6046Q58.5719-38.2909 60.1629-38.67L71.1723-41.4159Q72.7864-41.795 73.5416-41.281Q74.2967-40.7669 74.2967-39.3197L74.2967-31.8863Q74.2967-30.163 73.7281-29.458Q73.1594-28.7531 71.5426-28.374Z"/>
  </g>
  <g id="Bold-S" transform="matrix(1 0 0 1 2281.03 696)">
   <path d="M23.291-5.7373Q23.291-1.29395 26.0864 1.34277Q28.8818 3.97949 33.6182 3.97949L84.2773 3.97949Q89.0137 3.97949 91.8091 1.34277Q94.6045-1.29395 94.6045-5.7373L94.6045-31.9092L61.4258-59.7412Q60.3027-60.7178 58.9722-60.7178Q57.6416-60.7178 56.5186-59.7412L23.291-31.9092ZM9.76562-40.4785Q9.76562-38.3057 11.2305-36.853Q12.6953-35.4004 15.1611-35.4004Q16.2842-35.4004 17.3584-35.9009Q18.4326-36.4014 19.3848-37.1826L56.8359-68.6035Q58.96-70.4102 61.1328-68.6035L98.5352-37.1826Q99.4873-36.4014 100.574-35.9009Q101.66-35.4004 102.783-35.4004Q105.127-35.4004 106.628-36.7554Q108.13-38.1104 108.13-40.4053Q108.13-42.9932 106.03-44.751L66.0156-78.3691Q62.8174-81.0547 58.9844-81.0547Q55.1514-81.0547 51.9775-78.3691L11.8896-44.7266Q9.76562-42.9199 9.76562-40.4785ZM81.3232-62.1338L94.9951-50.708L94.9951-70.8252Q94.9951-73.9014 91.9189-73.9014L84.4727-73.9014Q83.0566-73.9014 82.1899-73.0591Q81.3232-72.2168 81.3232-70.8252ZM69.751-30.127L61.0352-28.0273Q60.5225-27.9053 60.3271-27.6245Q60.1318-27.3438 60.1318-26.416L60.1318-15.0879Q60.1318-10.8887 57.5195-8.17871Q54.9072-5.46875 50.7324-5.46875Q47.8271-5.46875 46.0205-7.10449Q44.2139-8.74023 44.2139-11.3037Q44.2139-14.0137 46.0205-15.7471Q47.8271-17.4805 50.7324-18.2373L54.1016-19.1162Q55.3711-19.458 55.6274-19.7876Q55.8838-20.1172 55.8838-21.2646L55.8838-36.7188Q55.8838-38.4521 56.3965-39.0869Q56.9092-39.7217 58.4229-40.0879L69.458-42.8467Q71.0205-43.2129 71.6919-42.7246Q72.3633-42.2363 72.3633-40.918L72.3633-33.4717Q72.3633-31.7871 71.814-31.1401Q71.2646-30.4932 69.751-30.127Z"/>
  </g>
  <g id="Semibold-S" transform="matrix(1 0 0 1 1985.26 696)">
   <path d="M22.9355-6.19053Q22.9355-1.85381 25.5843 0.67627Q28.2331 3.20635 32.7917 3.20635L83.2465 3.20635Q87.8051 3.20635 90.4539 0.67627Q93.1026-1.85381 93.1026-6.19053L93.1026-33.3222L60.4127-60.7276Q59.3252-61.6687 58.0257-61.6687Q56.7263-61.6687 55.6565-60.7276L22.9355-33.3222ZM9.76562-40.5852Q9.76562-38.7056 11.0616-37.3907Q12.3576-36.0758 14.5835-36.0758Q15.6354-36.0758 16.5941-36.5541Q17.5528-37.0323 18.4072-37.7247L56.2139-69.4566Q58.0269-70.9967 59.8709-69.4566L97.6465-37.7247Q98.5009-37.0323 99.4762-36.5541Q100.452-36.0758 101.504-36.0758Q103.545-36.0758 104.9-37.2575Q106.255-38.4392 106.255-40.4853Q106.255-42.8065 104.44-44.3333L64.3094-78.0492Q61.4399-80.4504 58.0424-80.4504Q54.6448-80.4504 51.8087-78.0492L11.6142-44.3178Q9.76562-42.76 9.76562-40.5852ZM80.8167-61.094L93.3511-50.5925L93.3511-69.8565Q93.3511-72.9149 90.2927-72.9149L83.9572-72.9149Q82.5412-72.9149 81.679-72.0771Q80.8167-71.2393 80.8167-69.8565ZM68.5157-31.3355L59.7732-29.2359Q59.2161-29.105 58.9941-28.7931Q58.7722-28.4812 58.7722-27.5002L58.7722-15.7811Q58.7722-11.6352 56.1954-8.95186Q53.6187-6.26855 49.4883-6.26855Q46.6097-6.26855 44.8475-7.87764Q43.0853-9.48672 43.0853-12.0058Q43.0853-14.7246 44.9097-16.4047Q46.7341-18.0848 49.5238-18.8149L52.9107-19.6938Q54.2336-20.0534 54.5033-20.423Q54.7729-20.7926 54.7729-21.9845L54.7729-37.8207Q54.7729-39.5097 55.2679-40.1089Q55.7628-40.7081 57.2231-41.0654L68.2761-43.8331Q69.803-44.1904 70.4167-43.7199Q71.0303-43.2494 71.0303-42.0199L71.0303-34.5647Q71.0303-32.9068 70.4943-32.2999Q69.9583-31.6929 68.5157-31.3355Z"/>
  </g>
  <g id="Medium-S" transform="matrix(1 0 0 1 1689.26 696)">
   <path d="M22.666-6.53418Q22.666-2.27832 25.2036 0.170898Q27.7412 2.62012 32.165 2.62012L82.4648 2.62012Q86.8887 2.62012 89.4263 0.170898Q91.9639-2.27832 91.9639-6.53418L91.9639-34.3936L59.6445-61.4756Q58.584-62.3896 57.3081-62.3896Q56.0322-62.3896 55.0029-61.4756L22.666-34.3936ZM9.76562-40.666Q9.76562-39.0088 10.9336-37.7983Q12.1016-36.5879 14.1455-36.5879Q15.1436-36.5879 16.0146-37.0493Q16.8857-37.5107 17.666-38.1357L55.7422-70.1035Q57.3193-71.4414 58.9141-70.1035L96.9727-38.1357Q97.7529-37.5107 98.644-37.0493Q99.5352-36.5879 100.533-36.5879Q102.346-36.5879 103.589-37.6382Q104.833-38.6885 104.833-40.5459Q104.833-42.665 103.233-44.0166L63.0156-77.8066Q60.3955-79.9922 57.3281-79.9922Q54.2607-79.9922 51.6807-77.8066L11.4053-44.0078Q9.76562-42.6387 9.76562-40.666ZM80.4326-60.3057L92.1045-50.5049L92.1045-69.1221Q92.1045-72.167 89.0596-72.167L83.5664-72.167Q82.1504-72.167 81.2915-71.3325Q80.4326-70.498 80.4326-69.1221ZM67.5791-32.252L58.8164-30.1523Q58.2256-30.0146 57.9834-29.6792Q57.7412-29.3438 57.7412-28.3223L57.7412-16.3066Q57.7412-12.2012 55.1914-9.53809Q52.6416-6.875 48.5449-6.875Q45.6865-6.875 43.958-8.46387Q42.2295-10.0527 42.2295-12.5381Q42.2295-15.2637 44.0674-16.9033Q45.9053-18.543 48.6074-19.2529L52.0078-20.1318Q53.3711-20.5049 53.6509-20.9048Q53.9307-21.3047 53.9307-22.5303L53.9307-38.6562Q53.9307-40.3115 54.4121-40.8838Q54.8936-41.4561 56.3135-41.8066L67.3799-44.5811Q68.8799-44.9316 69.4497-44.4746Q70.0195-44.0176 70.0195-42.8555L70.0195-35.3936Q70.0195-33.7559 69.4937-33.1792Q68.9678-32.6025 67.5791-32.252Z"/>
  </g>
  <g id="Regular-S" transform="matrix(1 0 0 1 1393.47 696)">
   <path d="M22.3145-6.98242Q22.3145-2.83203 24.707-0.488281Q27.0996 1.85547 31.3477 1.85547L81.4453 1.85547Q85.6934 1.85547 88.0859-0.488281Q90.4785-2.83203 90.4785-6.98242L90.4785-35.791L58.6426-62.4512Q57.6172-63.3301 56.3721-63.3301Q55.127-63.3301 54.1504-62.4512L22.3145-35.791ZM9.76562-40.7715Q9.76562-39.4043 10.7666-38.3301Q11.7676-37.2559 13.5742-37.2559Q14.502-37.2559 15.2588-37.6953Q16.0156-38.1348 16.6992-38.6719L55.127-70.9473Q56.3965-72.0215 57.666-70.9473L96.0938-38.6719Q96.7773-38.1348 97.5586-37.6953Q98.3398-37.2559 99.2676-37.2559Q100.781-37.2559 101.88-38.1348Q102.979-39.0137 102.979-40.625Q102.979-42.4805 101.66-43.6035L61.3281-77.4902Q59.0332-79.3945 56.3965-79.3945Q53.7598-79.3945 51.5137-77.4902L11.1328-43.6035Q9.76562-42.4805 9.76562-40.7715ZM79.9316-59.2773L90.4785-50.3906L90.4785-68.1641Q90.4785-71.1914 87.4512-71.1914L83.0566-71.1914Q81.6406-71.1914 80.7861-70.3613Q79.9316-69.5312 79.9316-68.1641ZM66.3574-33.4473L57.5684-31.3477Q56.9336-31.2012 56.665-30.835Q56.3965-30.4688 56.3965-29.3945L56.3965-16.9922Q56.3965-12.9395 53.8818-10.3027Q51.3672-7.66602 47.3145-7.66602Q44.4824-7.66602 42.7979-9.22852Q41.1133-10.791 41.1133-13.2324Q41.1133-15.9668 42.9688-17.5537Q44.8242-19.1406 47.4121-19.8242L50.8301-20.7031Q52.2461-21.0938 52.5391-21.5332Q52.832-21.9727 52.832-23.2422L52.832-39.7461Q52.832-41.3574 53.2959-41.8945Q53.7598-42.4316 55.127-42.7734L66.2109-45.5566Q67.6758-45.8984 68.1885-45.459Q68.7012-45.0195 68.7012-43.9453L68.7012-36.4746Q68.7012-34.8633 68.1885-34.3262Q67.6758-33.7891 66.3574-33.4473Z"/>
  </g>
  <g id="Light-S" transform="matrix(1 0 0 1 1098.5 696)">
   <path d="M21.2077-6.49414Q21.2077-2.7181 23.3887-0.569661Q25.5697 1.57878 29.4271 1.57878L79.9316 1.57878Q83.8053 1.57878 85.9782-0.569661Q88.151-2.7181 88.151-6.49414L88.151-38.0534L56.9987-64.1764Q55.8594-65.1367 54.6387-65.1286Q53.418-65.1204 52.3275-64.1764L21.2077-38.0859ZM9.76562-40.9505Q9.76562-39.9089 10.5306-39.0869Q11.2956-38.265 12.679-38.265Q13.3952-38.265 13.9567-38.5905Q14.5182-38.916 15.0553-39.3392L53.2389-71.4193Q54.6712-72.64 56.1198-71.4193L94.2546-39.3392Q94.7754-38.916 95.3532-38.5905Q95.931-38.265 96.6471-38.265Q97.8353-38.265 98.6654-38.9486Q99.4954-39.6322 99.4954-40.8529Q99.4954-42.2852 98.4212-43.1966L59.0658-76.3021Q56.9987-78.0273 54.6794-78.0273Q52.36-78.0273 50.3255-76.3021L10.8724-43.1966Q9.76562-42.2852 9.76562-40.9505ZM79.2318-57.1615L88.151-49.6419L88.151-67.3014Q88.151-69.7917 85.6283-69.7917L81.8034-69.7917Q80.6641-69.7917 79.9479-69.1081Q79.2318-68.4245 79.2318-67.3014ZM64.3229-34.9447L55.6315-32.8776Q55.013-32.7311 54.7526-32.3812Q54.4922-32.0312 54.4922-30.9896L54.4922-17.8385Q54.4922-13.8835 52.1077-11.32Q49.7233-8.75651 45.7845-8.75651Q43.0176-8.75651 41.3818-10.2865Q39.7461-11.8164 39.7461-14.1927Q39.7461-16.8457 41.5446-18.3838Q43.3431-19.9219 45.8822-20.6055L49.3327-21.5169Q50.7324-21.9076 51.0254-22.3307Q51.3184-22.7539 51.3184-23.9909L51.3184-40.9993Q51.3184-42.5944 51.7497-43.1234Q52.181-43.6523 53.5319-43.9779L64.1764-46.5983Q65.625-46.9401 66.1133-46.5169Q66.6016-46.0938 66.6016-45.0358L66.6016-37.9232Q66.6016-36.3281 66.1133-35.7992Q65.625-35.2702 64.3229-34.9447Z"/>
  </g>
  <g id="Thin-S" transform="matrix(1 0 0 1 804.093 696)">
   <path d="M19.7439-5.84835Q19.7439-2.56741 21.645-0.677293Q23.5462 1.21283 26.887 1.21283L77.9297 1.21283Q81.3083 1.21283 83.1905-0.677293Q85.0728-2.56741 85.0728-5.84835L85.0728-41.0456L54.8245-66.4582Q53.5345-67.5261 52.3461-67.5072Q51.1577-67.4883 49.9165-66.4582L19.7439-41.1212ZM9.76562-41.1873Q9.76562-40.5762 10.2185-40.0879Q10.6713-39.5996 11.4951-39.5996Q11.9314-39.5996 12.2346-39.7744Q12.5378-39.9493 12.8812-40.2218L50.7419-72.0435Q52.3894-73.458 54.0748-72.0435L91.8221-40.2218Q92.1276-39.9493 92.4364-39.7744Q92.7451-39.5996 93.1814-39.5996Q93.939-39.5996 94.4139-40.0249Q94.8888-40.4502 94.8888-41.1542Q94.8888-42.0268 94.1375-42.6585L56.0736-74.7307Q54.3079-76.2191 52.4083-76.2191Q50.5088-76.2191 48.7541-74.7307L10.528-42.6585Q9.76562-42.0268 9.76562-41.1873ZM78.3061-54.363L85.0728-48.6517L85.0728-66.1605Q85.0728-67.9404 83.2173-67.9404L80.1459-67.9404Q79.3725-67.9404 78.8393-67.4505Q78.3061-66.9607 78.3061-66.1605ZM61.6321-36.9251L53.0699-34.9011Q52.4729-34.7546 52.2233-34.4262Q51.9736-34.0978 51.9736-33.0992L51.9736-18.9579Q51.9736-15.132 49.7614-12.6654Q47.5491-10.1988 43.761-10.1988Q41.0802-10.1988 39.509-11.6857Q37.9379-13.1726 37.9379-15.4628Q37.9379-18.0081 39.661-19.4816Q41.3842-20.9551 43.8587-21.6387L47.3523-22.5932Q48.7305-22.9839 49.0234-23.3855Q49.3164-23.7872 49.3164-24.9811L49.3164-42.6569Q49.3164-44.2304 49.7047-44.7486Q50.0929-45.2668 51.4223-45.5708L61.4856-47.976Q62.9127-48.3178 63.3687-47.9161Q63.8247-47.5145 63.8247-46.4781L63.8247-39.839Q63.8247-38.2655 63.3687-37.7473Q62.9127-37.2291 61.6321-36.9251Z"/>
  </g>
  <g id="Ultralight-S" transform="matrix(1 0 0 1 508.561 696)">
   <path d="M18.9941-5.51758Q18.9941-2.49023 20.752-0.732422Q22.5098 1.02539 25.5859 1.02539L76.9043 1.02539Q80.0293 1.02539 81.7627-0.732422Q83.4961-2.49023 83.4961-5.51758L83.4961-42.5781L53.7109-67.627Q52.3438-68.75 51.1719-68.7256Q50-68.7012 48.6816-67.627L18.9941-42.6758ZM9.76562-41.3086Q9.76562-40.918 10.0586-40.6006Q10.3516-40.2832 10.8887-40.2832Q11.1816-40.2832 11.3525-40.3809Q11.5234-40.4785 11.7676-40.6738L49.4629-72.3633Q51.2207-73.877 53.0273-72.3633L90.5762-40.6738Q90.7715-40.4785 90.9424-40.3809Q91.1133-40.2832 91.4062-40.2832Q91.9434-40.2832 92.2363-40.5762Q92.5293-40.8691 92.5293-41.3086Q92.5293-41.8945 91.9434-42.3828L54.541-73.9258Q52.9297-75.293 51.2451-75.293Q49.5605-75.293 47.9492-73.9258L10.3516-42.3828Q9.76562-41.8945 9.76562-41.3086ZM77.832-52.9297L83.4961-48.1445L83.4961-65.5762Q83.4961-66.9922 81.9824-66.9922L79.2969-66.9922Q78.7109-66.9922 78.2715-66.6016Q77.832-66.2109 77.832-65.5762ZM60.2539-37.9395L51.7578-35.9375Q51.1719-35.791 50.9277-35.4736Q50.6836-35.1562 50.6836-34.1797L50.6836-19.5312Q50.6836-15.7715 48.5596-13.3545Q46.4355-10.9375 42.7246-10.9375Q40.0879-10.9375 38.5498-12.4023Q37.0117-13.8672 37.0117-16.1133Q37.0117-18.6035 38.6963-20.0439Q40.3809-21.4844 42.8223-22.168L46.3379-23.1445Q47.7051-23.5352 47.998-23.9258Q48.291-24.3164 48.291-25.4883L48.291-43.5059Q48.291-45.0684 48.6572-45.5811Q49.0234-46.0938 50.3418-46.3867L60.1074-48.6816Q61.5234-49.0234 61.9629-48.6328Q62.4023-48.2422 62.4023-47.2168L62.4023-40.8203Q62.4023-39.2578 61.9629-38.7451Q61.5234-38.2324 60.2539-37.9395Z"/>
  </g>
 </g>
</svg>
