<?xml version="1.0" encoding="UTF-8"?>
<!--Generator: Apple Native CoreSVG 175-->
<!DOCTYPE svg
PUBLIC "-//W3C//DTD SVG 1.1//EN"
       "http://www.w3.org/Graphics/SVG/1.1/DTD/svg11.dtd">
<svg version="1.1" xmlns="http://www.w3.org/2000/svg" xmlns:xlink="http://www.w3.org/1999/xlink" width="3300" height="2200">
 <!--glyph: "uni100285.medium", point size: 100.0, font version: "17.3d3e1", template writer version: "65.1"-->
 <g id="Notes">
  <rect height="2200" id="artboard" style="fill:white;opacity:1" width="3300" x="0" y="0"/>
  <line style="fill:none;stroke:black;opacity:1;stroke-width:0.5;" x1="263" x2="3036" y1="292" y2="292"/>
  <text style="stroke:none;fill:black;font-family:sans-serif;font-size:13;font-weight:bold;" transform="matrix(1 0 0 1 263 322)">Weight/Scale Variations</text>
  <text style="stroke:none;fill:black;font-family:sans-serif;font-size:13;text-anchor:middle;" transform="matrix(1 0 0 1 559.711 322)">Ultralight</text>
  <text style="stroke:none;fill:black;font-family:sans-serif;font-size:13;text-anchor:middle;" transform="matrix(1 0 0 1 856.422 322)">Thin</text>
  <text style="stroke:none;fill:black;font-family:sans-serif;font-size:13;text-anchor:middle;" transform="matrix(1 0 0 1 1153.13 322)">Light</text>
  <text style="stroke:none;fill:black;font-family:sans-serif;font-size:13;text-anchor:middle;" transform="matrix(1 0 0 1 1449.84 322)">Regular</text>
  <text style="stroke:none;fill:black;font-family:sans-serif;font-size:13;text-anchor:middle;" transform="matrix(1 0 0 1 1746.56 322)">Medium</text>
  <text style="stroke:none;fill:black;font-family:sans-serif;font-size:13;text-anchor:middle;" transform="matrix(1 0 0 1 2043.27 322)">Semibold</text>
  <text style="stroke:none;fill:black;font-family:sans-serif;font-size:13;text-anchor:middle;" transform="matrix(1 0 0 1 2339.98 322)">Bold</text>
  <text style="stroke:none;fill:black;font-family:sans-serif;font-size:13;text-anchor:middle;" transform="matrix(1 0 0 1 2636.69 322)">Heavy</text>
  <text style="stroke:none;fill:black;font-family:sans-serif;font-size:13;text-anchor:middle;" transform="matrix(1 0 0 1 2933.4 322)">Black</text>
  <line style="fill:none;stroke:black;opacity:1;stroke-width:0.5;" x1="263" x2="3036" y1="1903" y2="1903"/>
  <g transform="matrix(1 0 0 1 263 1933)">
   <path d="M9.24805 0.830078Q10.8691 0.830078 12.2949 0.214844Q13.7207-0.400391 14.8096-1.49414Q15.8984-2.58789 16.5186-4.01367Q17.1387-5.43945 17.1387-7.05078Q17.1387-8.66211 16.5186-10.0879Q15.8984-11.5137 14.8047-12.6074Q13.7109-13.7012 12.2852-14.3164Q10.8594-14.9316 9.23828-14.9316Q7.62695-14.9316 6.20117-14.3164Q4.77539-13.7012 3.69141-12.6074Q2.60742-11.5137 1.9873-10.0879Q1.36719-8.66211 1.36719-7.05078Q1.36719-5.43945 1.9873-4.01367Q2.60742-2.58789 3.69629-1.49414Q4.78516-0.400391 6.21094 0.214844Q7.63672 0.830078 9.24805 0.830078ZM9.24805-0.654297Q7.91992-0.654297 6.7627-1.14746Q5.60547-1.64062 4.73145-2.51953Q3.85742-3.39844 3.36426-4.56055Q2.87109-5.72266 2.87109-7.05078Q2.87109-8.37891 3.35938-9.54102Q3.84766-10.7031 4.72168-11.582Q5.5957-12.4609 6.75293-12.9541Q7.91016-13.4473 9.23828-13.4473Q10.5762-13.4473 11.7334-12.9541Q12.8906-12.4609 13.7695-11.582Q14.6484-10.7031 15.1465-9.54102Q15.6445-8.37891 15.6445-7.05078Q15.6445-5.72266 15.1514-4.56055Q14.6582-3.39844 13.7842-2.51953Q12.9102-1.64062 11.748-1.14746Q10.5859-0.654297 9.24805-0.654297ZM5.6543-7.05078Q5.6543-6.72852 5.85938-6.52832Q6.06445-6.32812 6.40625-6.32812L8.51562-6.32812L8.51562-4.20898Q8.51562-3.88672 8.71094-3.67676Q8.90625-3.4668 9.23828-3.4668Q9.56055-3.4668 9.77051-3.67676Q9.98047-3.88672 9.98047-4.20898L9.98047-6.32812L12.0898-6.32812Q12.4219-6.32812 12.627-6.52832Q12.832-6.72852 12.832-7.05078Q12.832-7.38281 12.627-7.58789Q12.4219-7.79297 12.0898-7.79297L9.98047-7.79297L9.98047-9.90234Q9.98047-10.2344 9.77051-10.4443Q9.56055-10.6543 9.23828-10.6543Q8.90625-10.6543 8.71094-10.4443Q8.51562-10.2344 8.51562-9.90234L8.51562-7.79297L6.40625-7.79297Q6.06445-7.79297 5.85938-7.58789Q5.6543-7.38281 5.6543-7.05078Z"/>
  </g>
  <g transform="matrix(1 0 0 1 281.867 1933)">
   <path d="M11.709 2.91016Q13.75 2.91016 15.5518 2.12891Q17.3535 1.34766 18.7305-0.0292969Q20.1074-1.40625 20.8887-3.20801Q21.6699-5.00977 21.6699-7.05078Q21.6699-9.0918 20.8887-10.8936Q20.1074-12.6953 18.7305-14.0723Q17.3535-15.4492 15.5469-16.2305Q13.7402-17.0117 11.6992-17.0117Q9.6582-17.0117 7.85645-16.2305Q6.05469-15.4492 4.68262-14.0723Q3.31055-12.6953 2.5293-10.8936Q1.74805-9.0918 1.74805-7.05078Q1.74805-5.00977 2.5293-3.20801Q3.31055-1.40625 4.6875-0.0292969Q6.06445 1.34766 7.86621 2.12891Q9.66797 2.91016 11.709 2.91016ZM11.709 1.25Q9.98047 1.25 8.47656 0.605469Q6.97266-0.0390625 5.83496-1.17676Q4.69727-2.31445 4.05762-3.81836Q3.41797-5.32227 3.41797-7.05078Q3.41797-8.7793 4.05762-10.2832Q4.69727-11.7871 5.83008-12.9297Q6.96289-14.0723 8.4668-14.7119Q9.9707-15.3516 11.6992-15.3516Q13.4277-15.3516 14.9316-14.7119Q16.4355-14.0723 17.5781-12.9297Q18.7207-11.7871 19.3652-10.2832Q20.0098-8.7793 20.0098-7.05078Q20.0098-5.32227 19.3701-3.81836Q18.7305-2.31445 17.5928-1.17676Q16.4551-0.0390625 14.9463 0.605469Q13.4375 1.25 11.709 1.25ZM7.17773-7.05078Q7.17773-6.69922 7.41211-6.47461Q7.64648-6.25 8.01758-6.25L10.8887-6.25L10.8887-3.36914Q10.8887-2.99805 11.1133-2.76855Q11.3379-2.53906 11.6895-2.53906Q12.0605-2.53906 12.29-2.76855Q12.5195-2.99805 12.5195-3.36914L12.5195-6.25L15.4004-6.25Q15.7715-6.25 16.001-6.47461Q16.2305-6.69922 16.2305-7.05078Q16.2305-7.42188 16.001-7.65137Q15.7715-7.88086 15.4004-7.88086L12.5195-7.88086L12.5195-10.752Q12.5195-11.1328 12.29-11.3623Q12.0605-11.5918 11.6895-11.5918Q11.3379-11.5918 11.1133-11.3574Q10.8887-11.123 10.8887-10.752L10.8887-7.88086L8.01758-7.88086Q7.63672-7.88086 7.40723-7.65137Q7.17773-7.42188 7.17773-7.05078Z"/>
  </g>
  <g transform="matrix(1 0 0 1 305.646 1933)">
   <path d="M14.9707 5.66406Q17.0605 5.66406 18.96 5.01465Q20.8594 4.36523 22.4512 3.19336Q24.043 2.02148 25.2197 0.429688Q26.3965-1.16211 27.0459-3.06641Q27.6953-4.9707 27.6953-7.05078Q27.6953-9.14062 27.0459-11.04Q26.3965-12.9395 25.2197-14.5312Q24.043-16.123 22.4512-17.2998Q20.8594-18.4766 18.9551-19.126Q17.0508-19.7754 14.9609-19.7754Q12.8711-19.7754 10.9717-19.126Q9.07227-18.4766 7.48535-17.2998Q5.89844-16.123 4.72168-14.5312Q3.54492-12.9395 2.90039-11.04Q2.25586-9.14062 2.25586-7.05078Q2.25586-4.9707 2.90527-3.06641Q3.55469-1.16211 4.72656 0.429688Q5.89844 2.02148 7.49023 3.19336Q9.08203 4.36523 10.9814 5.01465Q12.8809 5.66406 14.9707 5.66406ZM14.9707 3.84766Q13.1641 3.84766 11.5283 3.2959Q9.89258 2.74414 8.53516 1.74805Q7.17773 0.751953 6.17676-0.610352Q5.17578-1.97266 4.62891-3.6084Q4.08203-5.24414 4.08203-7.05078Q4.08203-8.86719 4.62891-10.5029Q5.17578-12.1387 6.17188-13.501Q7.16797-14.8633 8.52539-15.8594Q9.88281-16.8555 11.5186-17.4023Q13.1543-17.9492 14.9609-17.9492Q16.7773-17.9492 18.4131-17.4023Q20.0488-16.8555 21.4111-15.8594Q22.7734-14.8633 23.7695-13.501Q24.7656-12.1387 25.3174-10.5029Q25.8691-8.86719 25.8691-7.05078Q25.8789-5.24414 25.332-3.6084Q24.7852-1.97266 23.7842-0.610352Q22.7832 0.751953 21.4209 1.74805Q20.0586 2.74414 18.4229 3.2959Q16.7871 3.84766 14.9707 3.84766ZM9.19922-7.05078Q9.19922-6.66992 9.45801-6.4209Q9.7168-6.17188 10.1172-6.17188L14.0625-6.17188L14.0625-2.2168Q14.0625-1.81641 14.3115-1.55762Q14.5605-1.29883 14.9512-1.29883Q15.3516-1.29883 15.6104-1.55273Q15.8691-1.80664 15.8691-2.2168L15.8691-6.17188L19.8242-6.17188Q20.2246-6.17188 20.4785-6.4209Q20.7324-6.66992 20.7324-7.05078Q20.7324-7.46094 20.4785-7.71484Q20.2246-7.96875 19.8242-7.96875L15.8691-7.96875L15.8691-11.9141Q15.8691-12.3242 15.6104-12.583Q15.3516-12.8418 14.9512-12.8418Q14.5605-12.8418 14.3115-12.583Q14.0625-12.3242 14.0625-11.9141L14.0625-7.96875L10.1172-7.96875Q9.70703-7.96875 9.45312-7.71484Q9.19922-7.46094 9.19922-7.05078Z"/>
  </g>
  <text style="stroke:none;fill:black;font-family:sans-serif;font-size:13;font-weight:bold;" transform="matrix(1 0 0 1 263 1953)">Design Variations</text>
  <text style="stroke:none;fill:black;font-family:sans-serif;font-size:13;" transform="matrix(1 0 0 1 263 1971)">Symbols are supported in up to nine weights and three scales.</text>
  <text style="stroke:none;fill:black;font-family:sans-serif;font-size:13;" transform="matrix(1 0 0 1 263 1989)">For optimal layout with text and other symbols, vertically align</text>
  <text style="stroke:none;fill:black;font-family:sans-serif;font-size:13;" transform="matrix(1 0 0 1 263 2007)">symbols with the adjacent text.</text>
  <line style="fill:none;stroke:#00AEEF;stroke-width:0.5;opacity:1.0;" x1="776" x2="776" y1="1919" y2="1933"/>
  <g transform="matrix(1 0 0 1 776 1933)">
   <path d="M3.31055 0.15625Q3.70117 0.15625 3.91602-0.00976562Q4.13086-0.175781 4.26758-0.585938L5.52734-4.0332L11.2891-4.0332L12.5488-0.585938Q12.6855-0.175781 12.9004-0.00976562Q13.1152 0.15625 13.4961 0.15625Q13.8867 0.15625 14.1162-0.0585938Q14.3457-0.273438 14.3457-0.644531Q14.3457-0.869141 14.2383-1.17188L9.6582-13.3691Q9.48242-13.8184 9.17969-14.043Q8.87695-14.2676 8.4082-14.2676Q7.5-14.2676 7.17773-13.3789L2.59766-1.16211Q2.49023-0.859375 2.49023-0.634766Q2.49023-0.263672 2.70996-0.0537109Q2.92969 0.15625 3.31055 0.15625ZM6.00586-5.51758L8.37891-12.0898L8.42773-12.0898L10.8008-5.51758Z"/>
  </g>
  <line style="fill:none;stroke:#00AEEF;stroke-width:0.5;opacity:1.0;" x1="793.197" x2="793.197" y1="1919" y2="1933"/>
  <text style="stroke:none;fill:black;font-family:sans-serif;font-size:13;font-weight:bold;" transform="matrix(1 0 0 1 776 1953)">Margins</text>
  <text style="stroke:none;fill:black;font-family:sans-serif;font-size:13;" transform="matrix(1 0 0 1 776 1971)">Leading and trailing margins on the left and right side of each symbol</text>
  <text style="stroke:none;fill:black;font-family:sans-serif;font-size:13;" transform="matrix(1 0 0 1 776 1989)">can be adjusted by modifying the x-location of the margin guidelines.</text>
  <text style="stroke:none;fill:black;font-family:sans-serif;font-size:13;" transform="matrix(1 0 0 1 776 2007)">Modifications are automatically applied proportionally to all</text>
  <text style="stroke:none;fill:black;font-family:sans-serif;font-size:13;" transform="matrix(1 0 0 1 776 2025)">scales and weights.</text>
  <g transform="matrix(1 0 0 1 1289 1933)">
   <path d="M2.8418 1.86523L4.54102 3.57422Q5.18555 4.22852 5.90332 4.17969Q6.62109 4.13086 7.31445 3.35938L18.0078-8.42773L17.041-9.4043L6.42578 2.27539Q6.16211 2.57812 5.89355 2.61719Q5.625 2.65625 5.27344 2.30469L4.10156 1.14258Q3.75 0.791016 3.79395 0.522461Q3.83789 0.253906 4.14062-0.0195312L15.6152-10.8203L14.6387-11.7871L3.04688-0.898438Q2.30469-0.214844 2.25098 0.498047Q2.19727 1.21094 2.8418 1.86523ZM9.25781-16.3281Q8.94531-16.0254 8.90625-15.6348Q8.86719-15.2441 9.04297-14.9512Q9.21875-14.6777 9.55566-14.541Q9.89258-14.4043 10.3809-14.5215Q11.4746-14.7754 12.5977-14.7314Q13.7207-14.6875 14.7949-13.9844L14.209-12.5293Q13.9551-11.9043 14.0674-11.4404Q14.1797-10.9766 14.5801-10.5664L16.875-8.25195Q17.2363-7.88086 17.5781-7.82227Q17.9199-7.76367 18.3398-7.8418L19.4043-8.03711L20.0684-7.36328L20.0293-6.80664Q20-6.43555 20.1221-6.12305Q20.2441-5.81055 20.6055-5.44922L21.3672-4.70703Q21.7285-4.3457 22.1533-4.33105Q22.5781-4.31641 22.9297-4.66797L25.8398-7.58789Q26.1914-7.93945 26.1816-8.35449Q26.1719-8.76953 25.8105-9.13086L25.0391-9.89258Q24.6875-10.2539 24.3799-10.3857Q24.0723-10.5176 23.7109-10.4883L23.1348-10.4395L22.4902-11.0742L22.7344-12.1973Q22.832-12.6172 22.6953-12.9834Q22.5586-13.3496 22.1191-13.7891L19.9219-15.9766Q18.6719-17.2168 17.2607-17.8369Q15.8496-18.457 14.4189-18.4814Q12.9883-18.5059 11.665-17.959Q10.3418-17.4121 9.25781-16.3281ZM10.752-15.957Q11.6602-16.6211 12.7002-16.9043Q13.7402-17.1875 14.8047-17.085Q15.8691-16.9824 16.8701-16.5137Q17.8711-16.0449 18.7012-15.2051L21.1328-12.793Q21.3086-12.6172 21.3525-12.4512Q21.3965-12.2852 21.3379-12.0312L21.0156-10.5469L22.5195-9.0625L23.5059-9.12109Q23.6914-9.13086 23.7891-9.09668Q23.8867-9.0625 24.0332-8.91602L24.6094-8.33984L22.168-5.89844L21.5918-6.47461Q21.4453-6.62109 21.4062-6.71875Q21.3672-6.81641 21.377-7.01172L21.4453-7.98828L19.9512-9.47266L18.4277-9.21875Q18.1836-9.16992 18.042-9.2041Q17.9004-9.23828 17.7148-9.41406L15.7129-11.416Q15.5176-11.5918 15.4932-11.7529Q15.4688-11.9141 15.5859-12.1875L16.4648-14.2773Q15.293-15.3711 13.8281-15.791Q12.3633-16.2109 10.8398-15.7617Q10.7227-15.7324 10.6885-15.8057Q10.6543-15.8789 10.752-15.957Z"/>
  </g>
  <text style="stroke:none;fill:black;font-family:sans-serif;font-size:13;font-weight:bold;" transform="matrix(1 0 0 1 1289 1953)">Exporting</text>
  <text style="stroke:none;fill:black;font-family:sans-serif;font-size:13;" transform="matrix(1 0 0 1 1289 1971)">Symbols should be outlined when exporting to ensure the</text>
  <text style="stroke:none;fill:black;font-family:sans-serif;font-size:13;" transform="matrix(1 0 0 1 1289 1989)">design is preserved when submitting to Xcode.</text>
  <text id="template-version" style="stroke:none;fill:black;font-family:sans-serif;font-size:13;text-anchor:end;" transform="matrix(1 0 0 1 3036 1933)">Template v.2.0</text>
  <text style="stroke:none;fill:black;font-family:sans-serif;font-size:13;text-anchor:end;" transform="matrix(1 0 0 1 3036 1951)">Requires Xcode 12 or greater</text>
  <text id="descriptive-name" style="stroke:none;fill:black;font-family:sans-serif;font-size:13;text-anchor:end;" transform="matrix(1 0 0 1 3036 1969)">Generated from pause</text>
  <text style="stroke:none;fill:black;font-family:sans-serif;font-size:13;text-anchor:end;" transform="matrix(1 0 0 1 3036 1987)">Typeset at 100 points</text>
  <text style="stroke:none;fill:black;font-family:sans-serif;font-size:13;" transform="matrix(1 0 0 1 263 726)">Small</text>
  <text style="stroke:none;fill:black;font-family:sans-serif;font-size:13;" transform="matrix(1 0 0 1 263 1156)">Medium</text>
  <text style="stroke:none;fill:black;font-family:sans-serif;font-size:13;" transform="matrix(1 0 0 1 263 1586)">Large</text>
 </g>
 <g id="Guides">
  <g id="H-reference" style="fill:#27AAE1;stroke:none;" transform="matrix(1 0 0 1 339 696)">
   <path d="M0.993347 0L3.6377 0L29.3282-67.1326L30.0301-67.1326L30.0301-70.459L28.1227-70.459ZM11.6882-24.4797L46.9818-24.4797L46.2311-26.7288L12.4382-26.7288ZM55.1193 0L57.7637 0L30.6381-70.459L29.4327-70.459L29.4327-67.1326Z"/>
  </g>
  <line id="Baseline-S" style="fill:none;stroke:#27AAE1;opacity:1;stroke-width:0.5;" x1="263" x2="3036" y1="696" y2="696"/>
  <line id="Capline-S" style="fill:none;stroke:#27AAE1;opacity:1;stroke-width:0.5;" x1="263" x2="3036" y1="625.541" y2="625.541"/>
  <g id="H-reference" style="fill:#27AAE1;stroke:none;" transform="matrix(1 0 0 1 339 1126)">
   <path d="M0.993347 0L3.6377 0L29.3282-67.1326L30.0301-67.1326L30.0301-70.459L28.1227-70.459ZM11.6882-24.4797L46.9818-24.4797L46.2311-26.7288L12.4382-26.7288ZM55.1193 0L57.7637 0L30.6381-70.459L29.4327-70.459L29.4327-67.1326Z"/>
  </g>
  <line id="Baseline-M" style="fill:none;stroke:#27AAE1;opacity:1;stroke-width:0.5;" x1="263" x2="3036" y1="1126" y2="1126"/>
  <line id="Capline-M" style="fill:none;stroke:#27AAE1;opacity:1;stroke-width:0.5;" x1="263" x2="3036" y1="1055.54" y2="1055.54"/>
  <g id="H-reference" style="fill:#27AAE1;stroke:none;" transform="matrix(1 0 0 1 339 1556)">
   <path d="M0.993347 0L3.6377 0L29.3282-67.1326L30.0301-67.1326L30.0301-70.459L28.1227-70.459ZM11.6882-24.4797L46.9818-24.4797L46.2311-26.7288L12.4382-26.7288ZM55.1193 0L57.7637 0L30.6381-70.459L29.4327-70.459L29.4327-67.1326Z"/>
  </g>
  <line id="Baseline-L" style="fill:none;stroke:#27AAE1;opacity:1;stroke-width:0.5;" x1="263" x2="3036" y1="1556" y2="1556"/>
  <line id="Capline-L" style="fill:none;stroke:#27AAE1;opacity:1;stroke-width:0.5;" x1="263" x2="3036" y1="1485.54" y2="1485.54"/>
  <line id="left-margin" style="fill:none;stroke:#00AEEF;stroke-width:0.5;opacity:1.0;" x1="1417.08" x2="1417.08" y1="1030.79" y2="1150.12"/>
  <line id="right-margin" style="fill:none;stroke:#00AEEF;stroke-width:0.5;opacity:1.0;" x1="1482.61" x2="1482.61" y1="1030.79" y2="1150.12"/>
 </g>
 <g id="Symbols">
  <g id="Black-L" transform="matrix(1 0 0 1 2879.61 1556)">
   <path d="M28.2228 21.3325Q33.5114 21.3325 36.9359 17.9768Q40.3604 14.6211 40.3604 9.58572L40.3604-80.0227Q40.3604-85.0581 36.9359-88.4138Q33.5114-91.7694 28.2228-91.7694Q22.933-91.7694 19.5085-88.4138Q16.084-85.0581 16.084-80.0227L16.084 9.58572Q16.084 14.6211 19.5085 17.9768Q22.933 21.3325 28.2228 21.3325ZM79.3534 21.3325Q84.6421 21.3325 88.0666 17.9768Q91.4911 14.6211 91.4911 9.58572L91.4911-80.0227Q91.4911-85.0581 88.0666-88.4138Q84.6421-91.7694 79.3534-91.7694Q74.0844-91.7694 70.6495-88.4138Q67.2146-85.0581 67.2146-80.0227L67.2146 9.58572Q67.2146 14.6211 70.6495 17.9768Q74.0844 21.3325 79.3534 21.3325Z"/>
  </g>
  <g id="Heavy-L" transform="matrix(1 0 0 1 2585.71 1556)">
   <path d="M26.5469 20.1903Q31.0773 20.1903 34.0407 17.2865Q37.0042 14.3828 37.0042 10.0555L37.0042-80.4786Q37.0042-84.8059 34.0407-87.7097Q31.0773-90.6135 26.5469-90.6135Q22.0109-90.6135 19.0474-87.7097Q16.084-84.8059 16.084-80.4786L16.084 10.0555Q16.084 14.3828 19.0474 17.2865Q22.0109 20.1903 26.5469 20.1903ZM75.4185 20.1903Q79.9489 20.1903 82.9124 17.2865Q85.8759 14.3828 85.8759 10.0555L85.8759-80.4786Q85.8759-84.8059 82.9124-87.7097Q79.9489-90.6135 75.4185-90.6135Q70.9127-90.6135 67.9342-87.7097Q64.9556-84.8059 64.9556-80.4786L64.9556 10.0555Q64.9556 14.3828 67.9342 17.2865Q70.9127 20.1903 75.4185 20.1903Z"/>
  </g>
  <g id="Bold-L" transform="matrix(1 0 0 1 2292.31 1556)">
   <path d="M24.5169 18.7466Q28.1322 18.7466 30.5344 16.3926Q32.9366 14.0385 32.9366 10.5649L32.9366-80.9726Q32.9366-84.4463 30.5344-86.8003Q28.1322-89.1544 24.5169-89.1544Q20.8884-89.1544 18.4862-86.8003Q16.084-84.4463 16.084-80.9726L16.084 10.5649Q16.084 14.0385 18.4862 16.3926Q20.8884 18.7466 24.5169 18.7466ZM70.8375 18.7466Q74.4527 18.7466 76.855 16.3926Q79.2573 14.0385 79.2573 10.5649L79.2573-80.9726Q79.2573-84.4463 76.855-86.8003Q74.4527-89.1544 70.8375-89.1544Q67.247-89.1544 64.8258-86.8003Q62.4045-84.4463 62.4045-80.9726L62.4045 10.5649Q62.4045 14.0385 64.8258 16.3926Q67.247 18.7466 70.8375 18.7466Z"/>
  </g>
  <g id="Semibold-L" transform="matrix(1 0 0 1 1997.88 1556)">
   <path d="M23.1175 17.7514Q26.1018 17.7514 28.1171 15.7763Q30.1324 13.8012 30.1324 10.916L30.1324-81.3132Q30.1324-84.1983 28.1171-86.1734Q26.1018-88.1485 23.1175-88.1485Q20.1145-88.1485 18.0992-86.1734Q16.084-84.1983 16.084-81.3132L16.084 10.916Q16.084 13.8012 18.0992 15.7763Q20.1145 17.7514 23.1175 17.7514ZM67.6793 17.7514Q70.6636 17.7514 72.6791 15.7763Q74.6945 13.8012 74.6945 10.916L74.6945-81.3132Q74.6945-84.1983 72.6791-86.1734Q70.6636-88.1485 67.6793-88.1485Q64.7198-88.1485 62.6828-86.1734Q60.6458-84.1983 60.6458-81.3132L60.6458 10.916Q60.6458 13.8012 62.6828 15.7763Q64.7198 17.7514 67.6793 17.7514Z"/>
  </g>
  <g id="Medium-L" transform="matrix(1 0 0 1 1702.9 1556)">
   <path d="M22.0564 16.9967Q24.5623 16.9967 26.2842 15.309Q28.0061 13.6212 28.0061 11.1823L28.0061-81.5714Q28.0061-84.0103 26.2842-85.6981Q24.5623-87.3858 22.0564-87.3858Q19.5277-87.3858 17.8059-85.6981Q16.084-84.0103 16.084-81.5714L16.084 11.1823Q16.084 13.6212 17.8059 15.309Q19.5277 16.9967 22.0564 16.9967ZM65.2846 16.9967Q67.7906 16.9967 69.5127 15.309Q71.2348 13.6212 71.2348 11.1823L71.2348-81.5714Q71.2348-84.0103 69.5127-85.6981Q67.7906-87.3858 65.2846-87.3858Q62.8037-87.3858 61.058-85.6981Q59.3123-84.0103 59.3123-81.5714L59.3123 11.1823Q59.3123 13.6212 61.058 15.309Q62.8037 16.9967 65.2846 16.9967Z"/>
  </g>
  <g id="Regular-L" transform="matrix(1 0 0 1 1408.44 1556)">
   <path d="M20.6723 16.0124Q22.5543 16.0124 23.8935 14.6995Q25.2327 13.3865 25.2327 11.5296L25.2327-81.9082Q25.2327-83.7651 23.8935-85.078Q22.5543-86.391 20.6723-86.391Q18.7624-86.391 17.4232-85.078Q16.084-83.7651 16.084-81.9082L16.084 11.5296Q16.084 13.3865 17.4232 14.6995Q18.7624 16.0124 20.6723 16.0124ZM62.1612 16.0124Q64.0432 16.0124 65.3826 14.6995Q66.7221 13.3865 66.7221 11.5296L66.7221-81.9082Q66.7221-83.7651 65.3826-85.078Q64.0432-86.391 62.1612-86.391Q60.3043-86.391 58.9386-85.078Q57.5729-83.7651 57.5729-81.9082L57.5729 11.5296Q57.5729 13.3865 58.9386 14.6995Q60.3043 16.0124 62.1612 16.0124Z"/>
  </g>
  <g id="Light-L" transform="matrix(1 0 0 1 1112.93 1556)">
   <path d="M19.5654 14.8292Q20.9703 14.8292 21.985 13.8311Q22.9997 12.8331 22.9997 11.4152L22.9997-81.7937Q22.9997-83.2116 21.985-84.2097Q20.9703-85.2078 19.5654-85.2078Q18.1134-85.2078 17.0987-84.2097Q16.084-83.2116 16.084-81.7937L16.084 11.4152Q16.084 12.8331 17.0987 13.8311Q18.1134 14.8292 19.5654 14.8292ZM60.8824 14.8292Q62.2873 14.8292 63.3024 13.8311Q64.3175 12.8331 64.3175 11.4152L64.3175-81.7937Q64.3175-83.2116 63.3024-84.2097Q62.2873-85.2078 60.8824-85.2078Q59.4645-85.2078 58.4327-84.2097Q57.401-83.2116 57.401-81.7937L57.401 11.4152Q57.401 12.8331 58.4327 13.8311Q59.4645 14.8292 60.8824 14.8292Z"/>
  </g>
  <g id="Thin-L" transform="matrix(1 0 0 1 817.812 1556)">
   <path d="M18.1014 13.2643Q18.8752 13.2643 19.4608 12.6827Q20.0463 12.1011 20.0463 11.2638L20.0463-81.6423Q20.0463-82.4797 19.4608-83.0613Q18.8752-83.6429 18.1014-83.6429Q17.255-83.6429 16.6695-83.0613Q16.084-82.4797 16.084-81.6423L16.084 11.2638Q16.084 12.1011 16.6695 12.6827Q17.255 13.2643 18.1014 13.2643ZM59.1911 13.2643Q59.9649 13.2643 60.5511 12.6827Q61.1372 12.1011 61.1372 11.2638L61.1372-81.6423Q61.1372-82.4797 60.5511-83.0613Q59.9649-83.6429 59.1911-83.6429Q58.3538-83.6429 57.7637-83.0613Q57.1737-82.4797 57.1737-81.6423L57.1737 11.2638Q57.1737 12.1011 57.7637 12.6827Q58.3538 13.2643 59.1911 13.2643Z"/>
  </g>
  <g id="Ultralight-L" transform="matrix(1 0 0 1 521.915 1556)">
   <path d="M17.3516 12.4628Q17.8022 12.4628 18.1679 12.0945Q18.5336 11.7262 18.5336 11.1862L18.5336-81.5648Q18.5336-82.1047 18.1679-82.473Q17.8022-82.8413 17.3516-82.8413Q16.8154-82.8413 16.4497-82.473Q16.084-82.1047 16.084-81.5648L16.084 11.1862Q16.084 11.7262 16.4497 12.0945Q16.8154 12.4628 17.3516 12.4628ZM58.3248 12.4628Q58.7755 12.4628 59.1419 12.0945Q59.5083 11.7262 59.5083 11.1862L59.5083-81.5648Q59.5083-82.1047 59.1419-82.473Q58.7755-82.8413 58.3248-82.8413Q57.7849-82.8413 57.4211-82.473Q57.0572-82.1047 57.0572-81.5648L57.0572 11.1862Q57.0572 11.7262 57.4211 12.0945Q57.7849 12.4628 58.3248 12.4628Z"/>
  </g>
  <g id="Black-M" transform="matrix(1 0 0 1 2889.48 1126)">
   <path d="M23.1557 9.41276Q27.8401 9.41276 30.8455 6.46724Q33.8508 3.52172 33.8508-0.928478L33.8508-69.5253Q33.8508-73.9755 30.8455-76.921Q27.8401-79.8665 23.1557-79.8665Q18.4717-79.8665 15.4663-76.921Q12.4609-73.9755 12.4609-69.5253L12.4609-0.928478Q12.4609 3.52172 15.4663 6.46724Q18.4717 9.41276 23.1557 9.41276ZM64.6869 9.41276Q69.3713 9.41276 72.3767 6.46724Q75.382 3.52172 75.382-0.928478L75.382-69.5253Q75.382-73.9755 72.3767-76.921Q69.3713-79.8665 64.6869-79.8665Q60.0084-79.8665 57.0002-76.921Q53.9921-73.9755 53.9921-69.5253L53.9921-0.928478Q53.9921 3.52172 57.0002 6.46724Q60.0084 9.41276 64.6869 9.41276Z"/>
  </g>
  <g id="Heavy-M" transform="matrix(1 0 0 1 2595.4 1126)">
   <path d="M21.6196 8.40534Q25.6067 8.40534 28.1913 5.87256Q30.7759 3.33977 30.7759-0.458723L30.7759-69.9816Q30.7759-73.7801 28.1913-76.3129Q25.6067-78.8456 21.6196-78.8456Q17.6301-78.8456 15.0455-76.3129Q12.4609-73.7801 12.4609-69.9816L12.4609-0.458723Q12.4609 3.33977 15.0455 5.87256Q17.6301 8.40534 21.6196 8.40534ZM60.9583 8.40534Q64.9454 8.40534 67.53 5.87256Q70.1146 3.33977 70.1146-0.458723L70.1146-69.9816Q70.1146-73.7801 67.53-76.3129Q64.9454-78.8456 60.9583-78.8456Q56.9853-78.8456 54.3925-76.3129Q51.7997-73.7801 51.7997-69.9816L51.7997-0.458723Q51.7997 3.33977 54.3925 5.87256Q56.9853 8.40534 60.9583 8.40534Z"/>
  </g>
  <g id="Bold-M" transform="matrix(1 0 0 1 2301.64 1126)">
   <path d="M19.9011 7.27839Q23.1083 7.27839 25.2222 5.20732Q27.3361 3.13624 27.3361 0.0667648L27.3361-70.492Q27.3361-73.5615 25.2222-75.6325Q23.1083-77.7036 19.9011-77.7036Q16.6888-77.7036 14.5748-75.6325Q12.4609-73.5615 12.4609-70.492L12.4609 0.0667648Q12.4609 3.13624 14.5748 5.20732Q16.6888 7.27839 19.9011 7.27839ZM56.7873 7.27839Q59.9944 7.27839 62.1084 5.20732Q64.2223 3.13624 64.2223 0.0667648L64.2223-70.492Q64.2223-73.5615 62.1084-75.6325Q59.9944-77.7036 56.7873-77.7036Q53.6036-77.7036 51.4753-75.6325Q49.3471-73.5615 49.3471-70.492L49.3471 0.0667648Q49.3471 3.13624 51.4753 5.20732Q53.6036 7.27839 56.7873 7.27839Z"/>
  </g>
  <g id="Semibold-M" transform="matrix(1 0 0 1 2006.96 1126)">
   <path d="M18.7164 6.50148Q21.3859 6.50148 23.1753 4.74871Q24.9647 2.99593 24.9647 0.429033L24.9647-70.8439Q24.9647-73.4108 23.1753-75.1635Q21.3859-76.9163 18.7164-76.9163Q16.0398-76.9163 14.2504-75.1635Q12.4609-73.4108 12.4609-70.8439L12.4609 0.429033Q12.4609 2.99593 14.2504 4.74871Q16.0398 6.50148 18.7164 6.50148ZM53.9118 6.50148Q56.5812 6.50148 58.3707 4.74871Q60.1602 2.99593 60.1602 0.429033L60.1602-70.8439Q60.1602-73.4108 58.3707-75.1635Q56.5812-76.9163 53.9118-76.9163Q51.2722-76.9163 49.4643-75.1635Q47.6563-73.4108 47.6563-70.8439L47.6563 0.429033Q47.6563 2.99593 49.4643 4.74871Q51.2722 6.50148 53.9118 6.50148Z"/>
  </g>
  <g id="Medium-M" transform="matrix(1 0 0 1 1711.79 1126)">
   <path d="M17.8181 5.91239Q20.0799 5.91239 21.6233 4.40097Q23.1667 2.88954 23.1667 0.70372L23.1667-71.1107Q23.1667-73.2965 21.6233-74.8079Q20.0799-76.3193 17.8181-76.3193Q15.5477-76.3193 14.0043-74.8079Q12.4609-73.2965 12.4609-71.1107L12.4609 0.70372Q12.4609 2.88954 14.0043 4.40097Q15.5477 5.91239 17.8181 5.91239ZM51.7315 5.91239Q53.9932 5.91239 55.5367 4.40097Q57.0801 2.88954 57.0801 0.70372L57.0801-71.1107Q57.0801-73.2965 55.5367-74.8079Q53.9932-76.3193 51.7315-76.3193Q49.5045-76.3193 47.9394-74.8079Q46.3743-73.2965 46.3743-71.1107L46.3743 0.70372Q46.3743 2.88954 47.9394 4.40097Q49.5045 5.91239 51.7315 5.91239Z"/>
  </g>
  <g id="Regular-M" transform="matrix(1 0 0 1 1417.08 1126)">
   <path d="M16.6465 5.14402Q18.3764 5.14402 19.5989 3.94739Q20.8213 2.75077 20.8213 1.06201L20.8213-71.4587Q20.8213-73.1474 19.5989-74.3441Q18.3764-75.5407 16.6465-75.5407Q14.9059-75.5407 13.6834-74.3441Q12.4609-73.1474 12.4609-71.4587L12.4609 1.06201Q12.4609 2.75077 13.6834 3.94739Q14.9059 5.14402 16.6465 5.14402ZM48.8876 5.14402Q50.6175 5.14402 51.8401 3.94739Q53.0626 2.75077 53.0626 1.06201L53.0626-71.4587Q53.0626-73.1474 51.8401-74.3441Q50.6175-75.5407 48.8876-75.5407Q47.1988-75.5407 45.9504-74.3441Q44.7021-73.1474 44.7021-71.4587L44.7021 1.06201Q44.7021 2.75077 45.9504 3.94739Q47.1988 5.14402 48.8876 5.14402Z"/>
  </g>
  <g id="Light-M" transform="matrix(1 0 0 1 1121.45 1126)">
   <path d="M15.6541 4.0832Q16.9563 4.0832 17.8878 3.16889Q18.8193 2.25457 18.8193 0.959376L18.8193-71.3561Q18.8193-72.6513 17.8878-73.5656Q16.9563-74.4799 15.6541-74.4799Q14.324-74.4799 13.3925-73.5656Q12.4609-72.6513 12.4609-71.3561L12.4609 0.959376Q12.4609 2.25457 13.3925 3.16889Q14.324 4.0832 15.6541 4.0832ZM47.7411 4.0832Q49.0433 4.0832 49.975 3.16889Q50.9068 2.25457 50.9068 0.959376L50.9068-71.3561Q50.9068-72.6513 49.975-73.5656Q49.0433-74.4799 47.7411-74.4799Q46.4459-74.4799 45.4969-73.5656Q44.548-72.6513 44.548-71.3561L44.548 0.959376Q44.548 2.25457 45.4969 3.16889Q46.4459 4.0832 47.7411 4.0832Z"/>
  </g>
  <g id="Thin-M" transform="matrix(1 0 0 1 826.164 1126)">
   <path d="M14.3415 2.68018Q15.078 2.68018 15.6247 2.13925Q16.1714 1.59831 16.1714 0.823637L16.1714-71.2203Q16.1714-71.995 15.6247-72.5359Q15.078-73.0769 14.3415-73.0769Q13.5544-73.0769 13.0077-72.5359Q12.4609-71.995 12.4609-71.2203L12.4609 0.823637Q12.4609 1.59831 13.0077 2.13925Q13.5544 2.68018 14.3415 2.68018ZM46.2248 2.68018Q46.9612 2.68018 47.5084 2.13925Q48.0555 1.59831 48.0555 0.823637L48.0555-71.2203Q48.0555-71.995 47.5084-72.5359Q46.9612-73.0769 46.2248-73.0769Q45.4501-73.0769 44.8971-72.5359Q44.3442-71.995 44.3442-71.2203L44.3442 0.823637Q44.3442 1.59831 44.8971 2.13925Q45.4501 2.68018 46.2248 2.68018Z"/>
  </g>
  <g id="Ultralight-M" transform="matrix(1 0 0 1 530.183 1126)">
   <path d="M13.6693 1.96156Q14.1159 1.96156 14.4656 1.61187Q14.8152 1.26218 14.8152 0.754112L14.8152-71.1508Q14.8152-71.6589 14.4656-72.0085Q14.1159-72.3582 13.6693-72.3582Q13.1602-72.3582 12.8106-72.0085Q12.4609-71.6589 12.4609-71.1508L12.4609 0.754112Q12.4609 1.26218 12.8106 1.61187Q13.1602 1.96156 13.6693 1.96156ZM45.4481 1.96156Q45.8948 1.96156 46.2449 1.61187Q46.5951 1.26218 46.5951 0.754112L46.5951-71.1508Q46.5951-71.6589 46.2449-72.0085Q45.8948-72.3582 45.4481-72.3582Q44.9401-72.3582 44.5899-72.0085Q44.2398-71.6589 44.2398-71.1508L44.2398 0.754112Q44.2398 1.26218 44.5899 1.61187Q44.9401 1.96156 45.4481 1.96156Z"/>
  </g>
  <g id="Black-S" transform="matrix(1 0 0 1 2898.24 696)">
   <path d="M18.5547 0Q22.4121 0 24.8779-2.41699Q27.3438-4.83398 27.3438-8.49609L27.3438-61.9629Q27.3438-65.625 24.8779-68.042Q22.4121-70.459 18.5547-70.459Q14.6973-70.459 12.2314-68.042Q9.76562-65.625 9.76562-61.9629L9.76562-8.49609Q9.76562-4.83398 12.2314-2.41699Q14.6973 0 18.5547 0ZM51.7578 0Q55.6152 0 58.0811-2.41699Q60.5469-4.83398 60.5469-8.49609L60.5469-61.9629Q60.5469-65.625 58.0811-68.042Q55.6152-70.459 51.7578-70.459Q47.9004-70.459 45.4346-68.042Q42.9688-65.625 42.9688-61.9629L42.9688-8.49609Q42.9688-4.83398 45.4346-2.41699Q47.9004 0 51.7578 0Z"/>
  </g>
  <g id="Heavy-S" transform="matrix(1 0 0 1 2603.65 696)">
   <path d="M17.3677-0.726041Q20.6834-0.726041 22.8266-2.82611Q24.9697-4.92618 24.9697-8.08121L24.9697-62.3662Q24.9697-65.5213 22.8266-67.6213Q20.6834-69.7214 17.3677-69.7214Q14.0519-69.7214 11.9088-67.6213Q9.76562-65.5213 9.76562-62.3662L9.76562-8.08121Q9.76562-4.92618 11.9088-2.82611Q14.0519-0.726041 17.3677-0.726041ZM48.7154-0.726041Q52.0311-0.726041 54.1743-2.82611Q56.3174-4.92618 56.3174-8.08121L56.3174-62.3662Q56.3174-65.5213 54.1743-67.6213Q52.0311-69.7214 48.7154-69.7214Q45.4111-69.7214 43.2622-67.6213Q41.1133-65.5213 41.1133-62.3662L41.1133-8.08121Q41.1133-4.92618 43.2622-2.82611Q45.4111-0.726041 48.7154-0.726041Z"/>
  </g>
  <g id="Bold-S" transform="matrix(1 0 0 1 2309.3 696)">
   <path d="M16.04-1.53809Q18.75-1.53809 20.5322-3.28369Q22.3145-5.0293 22.3145-7.61719L22.3145-62.8174Q22.3145-65.4053 20.5322-67.1509Q18.75-68.8965 16.04-68.8965Q13.3301-68.8965 11.5479-67.1509Q9.76562-65.4053 9.76562-62.8174L9.76562-7.61719Q9.76562-5.0293 11.5479-3.28369Q13.3301-1.53809 16.04-1.53809ZM45.3125-1.53809Q48.0225-1.53809 49.8047-3.28369Q51.5869-5.0293 51.5869-7.61719L51.5869-62.8174Q51.5869-65.4053 49.8047-67.1509Q48.0225-68.8965 45.3125-68.8965Q42.627-68.8965 40.8325-67.1509Q39.0381-65.4053 39.0381-62.8174L39.0381-7.61719Q39.0381-5.0293 40.8325-3.28369Q42.627-1.53809 45.3125-1.53809Z"/>
  </g>
  <g id="Semibold-S" transform="matrix(1 0 0 1 2014.22 696)">
   <path d="M15.1247-2.09795Q17.417-2.09795 18.9504-3.59917Q20.4838-5.10039 20.4838-7.29727L20.4838-63.1284Q20.4838-65.3253 18.9504-66.8265Q17.417-68.3277 15.1247-68.3277Q12.8324-68.3277 11.299-66.8265Q9.76562-65.3253 9.76562-63.1284L9.76562-7.29727Q9.76562-5.10039 11.299-3.59917Q12.8324-2.09795 15.1247-2.09795ZM42.9664-2.09795Q45.2587-2.09795 46.7921-3.59917Q48.3255-5.10039 48.3255-7.29727L48.3255-63.1284Q48.3255-65.3253 46.7921-66.8265Q45.2587-68.3277 42.9664-68.3277Q40.7074-68.3277 39.1574-66.8265Q37.6073-65.3253 37.6073-63.1284L37.6073-7.29727Q37.6073-5.10039 39.1574-3.59917Q40.7074-2.09795 42.9664-2.09795Z"/>
  </g>
  <g id="Medium-S" transform="matrix(1 0 0 1 1718.75 696)">
   <path d="M14.4307-2.52246Q16.4062-2.52246 17.751-3.83838Q19.0957-5.1543 19.0957-7.05469L19.0957-63.3643Q19.0957-65.2646 17.751-66.5806Q16.4062-67.8965 14.4307-67.8965Q12.4551-67.8965 11.1104-66.5806Q9.76562-65.2646 9.76562-63.3643L9.76562-7.05469Q9.76562-5.1543 11.1104-3.83838Q12.4551-2.52246 14.4307-2.52246ZM41.1875-2.52246Q43.1631-2.52246 44.5078-3.83838Q45.8525-5.1543 45.8525-7.05469L45.8525-63.3643Q45.8525-65.2646 44.5078-66.5806Q43.1631-67.8965 41.1875-67.8965Q39.252-67.8965 37.8872-66.5806Q36.5225-65.2646 36.5225-63.3643L36.5225-7.05469Q36.5225-5.1543 37.8872-3.83838Q39.252-2.52246 41.1875-2.52246Z"/>
  </g>
  <g id="Regular-S" transform="matrix(1 0 0 1 1423.65 696)">
   <path d="M13.5254-3.07617Q15.0879-3.07617 16.1865-4.15039Q17.2852-5.22461 17.2852-6.73828L17.2852-63.6719Q17.2852-65.1855 16.1865-66.2598Q15.0879-67.334 13.5254-67.334Q11.9629-67.334 10.8643-66.2598Q9.76562-65.1855 9.76562-63.6719L9.76562-6.73828Q9.76562-5.22461 10.8643-4.15039Q11.9629-3.07617 13.5254-3.07617ZM38.8672-3.07617Q40.4297-3.07617 41.5283-4.15039Q42.627-5.22461 42.627-6.73828L42.627-63.6719Q42.627-65.1855 41.5283-66.2598Q40.4297-67.334 38.8672-67.334Q37.3535-67.334 36.2305-66.2598Q35.1074-65.1855 35.1074-63.6719L35.1074-6.73828Q35.1074-5.22461 36.2305-4.15039Q37.3535-3.07617 38.8672-3.07617Z"/>
  </g>
  <g id="Light-S" transform="matrix(1 0 0 1 1127.89 696)">
   <path d="M12.6475-4.01459Q13.8316-4.01459 14.6729-4.83907Q15.5141-5.66355 15.5141-6.82907L15.5141-63.5811Q15.5141-64.7466 14.6729-65.5711Q13.8316-66.3956 12.6475-66.3956Q11.4482-66.3956 10.6069-65.5711Q9.76562-64.7466 9.76562-63.5811L9.76562-6.82907Q9.76562-5.66355 10.6069-4.83907Q11.4482-4.01459 12.6475-4.01459ZM37.853-4.01459Q39.0371-4.01459 39.8785-4.83907Q40.7199-5.66355 40.7199-6.82907L40.7199-63.5811Q40.7199-64.7466 39.8785-65.5711Q39.0371-66.3956 37.853-66.3956Q36.6875-66.3956 35.8293-65.5711Q34.9711-64.7466 34.9711-63.5811L34.9711-6.82907Q34.9711-5.66355 35.8293-4.83907Q36.6875-4.01459 37.853-4.01459Z"/>
  </g>
  <g id="Thin-S" transform="matrix(1 0 0 1 832.441 696)">
   <path d="M11.4864-5.25572Q12.17-5.25572 12.6709-5.74991Q13.1718-6.24409 13.1718-6.94915L13.1718-63.461Q13.1718-64.1661 12.6709-64.6603Q12.17-65.1544 11.4864-65.1544Q10.7674-65.1544 10.2665-64.6603Q9.76562-64.1661 9.76562-63.461L9.76562-6.94915Q9.76562-6.24409 10.2665-5.74991Q10.7674-5.25572 11.4864-5.25572ZM36.5116-5.25572Q37.1952-5.25572 37.6964-5.74991Q38.1976-6.24409 38.1976-6.94915L38.1976-63.461Q38.1976-64.1661 37.6964-64.6603Q37.1952-65.1544 36.5116-65.1544Q35.8066-65.1544 35.2987-64.6603Q34.7908-64.1661 34.7908-63.461L34.7908-6.94915Q34.7908-6.24409 35.2987-5.74991Q35.8066-5.25572 36.5116-5.25572Z"/>
  </g>
  <g id="Ultralight-S" transform="matrix(1 0 0 1 536.376 696)">
   <path d="M10.8917-5.89142Q11.319-5.89142 11.6455-6.21643Q11.972-6.54144 11.972-7.01065L11.972-63.3995Q11.972-63.8687 11.6455-64.1937Q11.319-64.5187 10.8917-64.5187Q10.4187-64.5187 10.0922-64.1937Q9.76562-63.8687 9.76562-63.3995L9.76562-7.01065Q9.76562-6.54144 10.0922-6.21643Q10.4187-5.89142 10.8917-5.89142ZM35.8246-5.89142Q36.2518-5.89142 36.5788-6.21643Q36.9057-6.54144 36.9057-7.01065L36.9057-63.3995Q36.9057-63.8687 36.5788-64.1937Q36.2518-64.5187 35.8246-64.5187Q35.3554-64.5187 35.0269-64.1937Q34.6985-63.8687 34.6985-63.3995L34.6985-7.01065Q34.6985-6.54144 35.0269-6.21643Q35.3554-5.89142 35.8246-5.89142Z"/>
  </g>
 </g>
</svg>
