<?xml version="1.0" encoding="UTF-8"?>
<!--Generator: Apple Native CoreSVG 175-->
<!DOCTYPE svg
PUBLIC "-//W3C//DTD SVG 1.1//EN"
       "http://www.w3.org/Graphics/SVG/1.1/DTD/svg11.dtd">
<svg version="1.1" xmlns="http://www.w3.org/2000/svg" xmlns:xlink="http://www.w3.org/1999/xlink" width="3300" height="2200">
 <!--glyph: "uni100205.medium", point size: 100.0, font version: "17.3d3e1", template writer version: "65.1"-->
 <g id="Notes">
  <rect height="2200" id="artboard" style="fill:white;opacity:1" width="3300" x="0" y="0"/>
  <line style="fill:none;stroke:black;opacity:1;stroke-width:0.5;" x1="263" x2="3036" y1="292" y2="292"/>
  <text style="stroke:none;fill:black;font-family:sans-serif;font-size:13;font-weight:bold;" transform="matrix(1 0 0 1 263 322)">Weight/Scale Variations</text>
  <text style="stroke:none;fill:black;font-family:sans-serif;font-size:13;text-anchor:middle;" transform="matrix(1 0 0 1 559.711 322)">Ultralight</text>
  <text style="stroke:none;fill:black;font-family:sans-serif;font-size:13;text-anchor:middle;" transform="matrix(1 0 0 1 856.422 322)">Thin</text>
  <text style="stroke:none;fill:black;font-family:sans-serif;font-size:13;text-anchor:middle;" transform="matrix(1 0 0 1 1153.13 322)">Light</text>
  <text style="stroke:none;fill:black;font-family:sans-serif;font-size:13;text-anchor:middle;" transform="matrix(1 0 0 1 1449.84 322)">Regular</text>
  <text style="stroke:none;fill:black;font-family:sans-serif;font-size:13;text-anchor:middle;" transform="matrix(1 0 0 1 1746.56 322)">Medium</text>
  <text style="stroke:none;fill:black;font-family:sans-serif;font-size:13;text-anchor:middle;" transform="matrix(1 0 0 1 2043.27 322)">Semibold</text>
  <text style="stroke:none;fill:black;font-family:sans-serif;font-size:13;text-anchor:middle;" transform="matrix(1 0 0 1 2339.98 322)">Bold</text>
  <text style="stroke:none;fill:black;font-family:sans-serif;font-size:13;text-anchor:middle;" transform="matrix(1 0 0 1 2636.69 322)">Heavy</text>
  <text style="stroke:none;fill:black;font-family:sans-serif;font-size:13;text-anchor:middle;" transform="matrix(1 0 0 1 2933.4 322)">Black</text>
  <line style="fill:none;stroke:black;opacity:1;stroke-width:0.5;" x1="263" x2="3036" y1="1903" y2="1903"/>
  <g transform="matrix(1 0 0 1 263 1933)">
   <path d="M9.24805 0.830078Q10.8691 0.830078 12.2949 0.214844Q13.7207-0.400391 14.8096-1.49414Q15.8984-2.58789 16.5186-4.01367Q17.1387-5.43945 17.1387-7.05078Q17.1387-8.66211 16.5186-10.0879Q15.8984-11.5137 14.8047-12.6074Q13.7109-13.7012 12.2852-14.3164Q10.8594-14.9316 9.23828-14.9316Q7.62695-14.9316 6.20117-14.3164Q4.77539-13.7012 3.69141-12.6074Q2.60742-11.5137 1.9873-10.0879Q1.36719-8.66211 1.36719-7.05078Q1.36719-5.43945 1.9873-4.01367Q2.60742-2.58789 3.69629-1.49414Q4.78516-0.400391 6.21094 0.214844Q7.63672 0.830078 9.24805 0.830078ZM9.24805-0.654297Q7.91992-0.654297 6.7627-1.14746Q5.60547-1.64062 4.73145-2.51953Q3.85742-3.39844 3.36426-4.56055Q2.87109-5.72266 2.87109-7.05078Q2.87109-8.37891 3.35938-9.54102Q3.84766-10.7031 4.72168-11.582Q5.5957-12.4609 6.75293-12.9541Q7.91016-13.4473 9.23828-13.4473Q10.5762-13.4473 11.7334-12.9541Q12.8906-12.4609 13.7695-11.582Q14.6484-10.7031 15.1465-9.54102Q15.6445-8.37891 15.6445-7.05078Q15.6445-5.72266 15.1514-4.56055Q14.6582-3.39844 13.7842-2.51953Q12.9102-1.64062 11.748-1.14746Q10.5859-0.654297 9.24805-0.654297ZM5.6543-7.05078Q5.6543-6.72852 5.85938-6.52832Q6.06445-6.32812 6.40625-6.32812L8.51562-6.32812L8.51562-4.20898Q8.51562-3.88672 8.71094-3.67676Q8.90625-3.4668 9.23828-3.4668Q9.56055-3.4668 9.77051-3.67676Q9.98047-3.88672 9.98047-4.20898L9.98047-6.32812L12.0898-6.32812Q12.4219-6.32812 12.627-6.52832Q12.832-6.72852 12.832-7.05078Q12.832-7.38281 12.627-7.58789Q12.4219-7.79297 12.0898-7.79297L9.98047-7.79297L9.98047-9.90234Q9.98047-10.2344 9.77051-10.4443Q9.56055-10.6543 9.23828-10.6543Q8.90625-10.6543 8.71094-10.4443Q8.51562-10.2344 8.51562-9.90234L8.51562-7.79297L6.40625-7.79297Q6.06445-7.79297 5.85938-7.58789Q5.6543-7.38281 5.6543-7.05078Z"/>
  </g>
  <g transform="matrix(1 0 0 1 281.867 1933)">
   <path d="M11.709 2.91016Q13.75 2.91016 15.5518 2.12891Q17.3535 1.34766 18.7305-0.0292969Q20.1074-1.40625 20.8887-3.20801Q21.6699-5.00977 21.6699-7.05078Q21.6699-9.0918 20.8887-10.8936Q20.1074-12.6953 18.7305-14.0723Q17.3535-15.4492 15.5469-16.2305Q13.7402-17.0117 11.6992-17.0117Q9.6582-17.0117 7.85645-16.2305Q6.05469-15.4492 4.68262-14.0723Q3.31055-12.6953 2.5293-10.8936Q1.74805-9.0918 1.74805-7.05078Q1.74805-5.00977 2.5293-3.20801Q3.31055-1.40625 4.6875-0.0292969Q6.06445 1.34766 7.86621 2.12891Q9.66797 2.91016 11.709 2.91016ZM11.709 1.25Q9.98047 1.25 8.47656 0.605469Q6.97266-0.0390625 5.83496-1.17676Q4.69727-2.31445 4.05762-3.81836Q3.41797-5.32227 3.41797-7.05078Q3.41797-8.7793 4.05762-10.2832Q4.69727-11.7871 5.83008-12.9297Q6.96289-14.0723 8.4668-14.7119Q9.9707-15.3516 11.6992-15.3516Q13.4277-15.3516 14.9316-14.7119Q16.4355-14.0723 17.5781-12.9297Q18.7207-11.7871 19.3652-10.2832Q20.0098-8.7793 20.0098-7.05078Q20.0098-5.32227 19.3701-3.81836Q18.7305-2.31445 17.5928-1.17676Q16.4551-0.0390625 14.9463 0.605469Q13.4375 1.25 11.709 1.25ZM7.17773-7.05078Q7.17773-6.69922 7.41211-6.47461Q7.64648-6.25 8.01758-6.25L10.8887-6.25L10.8887-3.36914Q10.8887-2.99805 11.1133-2.76855Q11.3379-2.53906 11.6895-2.53906Q12.0605-2.53906 12.29-2.76855Q12.5195-2.99805 12.5195-3.36914L12.5195-6.25L15.4004-6.25Q15.7715-6.25 16.001-6.47461Q16.2305-6.69922 16.2305-7.05078Q16.2305-7.42188 16.001-7.65137Q15.7715-7.88086 15.4004-7.88086L12.5195-7.88086L12.5195-10.752Q12.5195-11.1328 12.29-11.3623Q12.0605-11.5918 11.6895-11.5918Q11.3379-11.5918 11.1133-11.3574Q10.8887-11.123 10.8887-10.752L10.8887-7.88086L8.01758-7.88086Q7.63672-7.88086 7.40723-7.65137Q7.17773-7.42188 7.17773-7.05078Z"/>
  </g>
  <g transform="matrix(1 0 0 1 305.646 1933)">
   <path d="M14.9707 5.66406Q17.0605 5.66406 18.96 5.01465Q20.8594 4.36523 22.4512 3.19336Q24.043 2.02148 25.2197 0.429688Q26.3965-1.16211 27.0459-3.06641Q27.6953-4.9707 27.6953-7.05078Q27.6953-9.14062 27.0459-11.04Q26.3965-12.9395 25.2197-14.5312Q24.043-16.123 22.4512-17.2998Q20.8594-18.4766 18.9551-19.126Q17.0508-19.7754 14.9609-19.7754Q12.8711-19.7754 10.9717-19.126Q9.07227-18.4766 7.48535-17.2998Q5.89844-16.123 4.72168-14.5312Q3.54492-12.9395 2.90039-11.04Q2.25586-9.14062 2.25586-7.05078Q2.25586-4.9707 2.90527-3.06641Q3.55469-1.16211 4.72656 0.429688Q5.89844 2.02148 7.49023 3.19336Q9.08203 4.36523 10.9814 5.01465Q12.8809 5.66406 14.9707 5.66406ZM14.9707 3.84766Q13.1641 3.84766 11.5283 3.2959Q9.89258 2.74414 8.53516 1.74805Q7.17773 0.751953 6.17676-0.610352Q5.17578-1.97266 4.62891-3.6084Q4.08203-5.24414 4.08203-7.05078Q4.08203-8.86719 4.62891-10.5029Q5.17578-12.1387 6.17188-13.501Q7.16797-14.8633 8.52539-15.8594Q9.88281-16.8555 11.5186-17.4023Q13.1543-17.9492 14.9609-17.9492Q16.7773-17.9492 18.4131-17.4023Q20.0488-16.8555 21.4111-15.8594Q22.7734-14.8633 23.7695-13.501Q24.7656-12.1387 25.3174-10.5029Q25.8691-8.86719 25.8691-7.05078Q25.8789-5.24414 25.332-3.6084Q24.7852-1.97266 23.7842-0.610352Q22.7832 0.751953 21.4209 1.74805Q20.0586 2.74414 18.4229 3.2959Q16.7871 3.84766 14.9707 3.84766ZM9.19922-7.05078Q9.19922-6.66992 9.45801-6.4209Q9.7168-6.17188 10.1172-6.17188L14.0625-6.17188L14.0625-2.2168Q14.0625-1.81641 14.3115-1.55762Q14.5605-1.29883 14.9512-1.29883Q15.3516-1.29883 15.6104-1.55273Q15.8691-1.80664 15.8691-2.2168L15.8691-6.17188L19.8242-6.17188Q20.2246-6.17188 20.4785-6.4209Q20.7324-6.66992 20.7324-7.05078Q20.7324-7.46094 20.4785-7.71484Q20.2246-7.96875 19.8242-7.96875L15.8691-7.96875L15.8691-11.9141Q15.8691-12.3242 15.6104-12.583Q15.3516-12.8418 14.9512-12.8418Q14.5605-12.8418 14.3115-12.583Q14.0625-12.3242 14.0625-11.9141L14.0625-7.96875L10.1172-7.96875Q9.70703-7.96875 9.45312-7.71484Q9.19922-7.46094 9.19922-7.05078Z"/>
  </g>
  <text style="stroke:none;fill:black;font-family:sans-serif;font-size:13;font-weight:bold;" transform="matrix(1 0 0 1 263 1953)">Design Variations</text>
  <text style="stroke:none;fill:black;font-family:sans-serif;font-size:13;" transform="matrix(1 0 0 1 263 1971)">Symbols are supported in up to nine weights and three scales.</text>
  <text style="stroke:none;fill:black;font-family:sans-serif;font-size:13;" transform="matrix(1 0 0 1 263 1989)">For optimal layout with text and other symbols, vertically align</text>
  <text style="stroke:none;fill:black;font-family:sans-serif;font-size:13;" transform="matrix(1 0 0 1 263 2007)">symbols with the adjacent text.</text>
  <line style="fill:none;stroke:#00AEEF;stroke-width:0.5;opacity:1.0;" x1="776" x2="776" y1="1919" y2="1933"/>
  <g transform="matrix(1 0 0 1 776 1933)">
   <path d="M3.31055 0.15625Q3.70117 0.15625 3.91602-0.00976562Q4.13086-0.175781 4.26758-0.585938L5.52734-4.0332L11.2891-4.0332L12.5488-0.585938Q12.6855-0.175781 12.9004-0.00976562Q13.1152 0.15625 13.4961 0.15625Q13.8867 0.15625 14.1162-0.0585938Q14.3457-0.273438 14.3457-0.644531Q14.3457-0.869141 14.2383-1.17188L9.6582-13.3691Q9.48242-13.8184 9.17969-14.043Q8.87695-14.2676 8.4082-14.2676Q7.5-14.2676 7.17773-13.3789L2.59766-1.16211Q2.49023-0.859375 2.49023-0.634766Q2.49023-0.263672 2.70996-0.0537109Q2.92969 0.15625 3.31055 0.15625ZM6.00586-5.51758L8.37891-12.0898L8.42773-12.0898L10.8008-5.51758Z"/>
  </g>
  <line style="fill:none;stroke:#00AEEF;stroke-width:0.5;opacity:1.0;" x1="793.197" x2="793.197" y1="1919" y2="1933"/>
  <text style="stroke:none;fill:black;font-family:sans-serif;font-size:13;font-weight:bold;" transform="matrix(1 0 0 1 776 1953)">Margins</text>
  <text style="stroke:none;fill:black;font-family:sans-serif;font-size:13;" transform="matrix(1 0 0 1 776 1971)">Leading and trailing margins on the left and right side of each symbol</text>
  <text style="stroke:none;fill:black;font-family:sans-serif;font-size:13;" transform="matrix(1 0 0 1 776 1989)">can be adjusted by modifying the x-location of the margin guidelines.</text>
  <text style="stroke:none;fill:black;font-family:sans-serif;font-size:13;" transform="matrix(1 0 0 1 776 2007)">Modifications are automatically applied proportionally to all</text>
  <text style="stroke:none;fill:black;font-family:sans-serif;font-size:13;" transform="matrix(1 0 0 1 776 2025)">scales and weights.</text>
  <g transform="matrix(1 0 0 1 1289 1933)">
   <path d="M2.8418 1.86523L4.54102 3.57422Q5.18555 4.22852 5.90332 4.17969Q6.62109 4.13086 7.31445 3.35938L18.0078-8.42773L17.041-9.4043L6.42578 2.27539Q6.16211 2.57812 5.89355 2.61719Q5.625 2.65625 5.27344 2.30469L4.10156 1.14258Q3.75 0.791016 3.79395 0.522461Q3.83789 0.253906 4.14062-0.0195312L15.6152-10.8203L14.6387-11.7871L3.04688-0.898438Q2.30469-0.214844 2.25098 0.498047Q2.19727 1.21094 2.8418 1.86523ZM9.25781-16.3281Q8.94531-16.0254 8.90625-15.6348Q8.86719-15.2441 9.04297-14.9512Q9.21875-14.6777 9.55566-14.541Q9.89258-14.4043 10.3809-14.5215Q11.4746-14.7754 12.5977-14.7314Q13.7207-14.6875 14.7949-13.9844L14.209-12.5293Q13.9551-11.9043 14.0674-11.4404Q14.1797-10.9766 14.5801-10.5664L16.875-8.25195Q17.2363-7.88086 17.5781-7.82227Q17.9199-7.76367 18.3398-7.8418L19.4043-8.03711L20.0684-7.36328L20.0293-6.80664Q20-6.43555 20.1221-6.12305Q20.2441-5.81055 20.6055-5.44922L21.3672-4.70703Q21.7285-4.3457 22.1533-4.33105Q22.5781-4.31641 22.9297-4.66797L25.8398-7.58789Q26.1914-7.93945 26.1816-8.35449Q26.1719-8.76953 25.8105-9.13086L25.0391-9.89258Q24.6875-10.2539 24.3799-10.3857Q24.0723-10.5176 23.7109-10.4883L23.1348-10.4395L22.4902-11.0742L22.7344-12.1973Q22.832-12.6172 22.6953-12.9834Q22.5586-13.3496 22.1191-13.7891L19.9219-15.9766Q18.6719-17.2168 17.2607-17.8369Q15.8496-18.457 14.4189-18.4814Q12.9883-18.5059 11.665-17.959Q10.3418-17.4121 9.25781-16.3281ZM10.752-15.957Q11.6602-16.6211 12.7002-16.9043Q13.7402-17.1875 14.8047-17.085Q15.8691-16.9824 16.8701-16.5137Q17.8711-16.0449 18.7012-15.2051L21.1328-12.793Q21.3086-12.6172 21.3525-12.4512Q21.3965-12.2852 21.3379-12.0312L21.0156-10.5469L22.5195-9.0625L23.5059-9.12109Q23.6914-9.13086 23.7891-9.09668Q23.8867-9.0625 24.0332-8.91602L24.6094-8.33984L22.168-5.89844L21.5918-6.47461Q21.4453-6.62109 21.4062-6.71875Q21.3672-6.81641 21.377-7.01172L21.4453-7.98828L19.9512-9.47266L18.4277-9.21875Q18.1836-9.16992 18.042-9.2041Q17.9004-9.23828 17.7148-9.41406L15.7129-11.416Q15.5176-11.5918 15.4932-11.7529Q15.4688-11.9141 15.5859-12.1875L16.4648-14.2773Q15.293-15.3711 13.8281-15.791Q12.3633-16.2109 10.8398-15.7617Q10.7227-15.7324 10.6885-15.8057Q10.6543-15.8789 10.752-15.957Z"/>
  </g>
  <text style="stroke:none;fill:black;font-family:sans-serif;font-size:13;font-weight:bold;" transform="matrix(1 0 0 1 1289 1953)">Exporting</text>
  <text style="stroke:none;fill:black;font-family:sans-serif;font-size:13;" transform="matrix(1 0 0 1 1289 1971)">Symbols should be outlined when exporting to ensure the</text>
  <text style="stroke:none;fill:black;font-family:sans-serif;font-size:13;" transform="matrix(1 0 0 1 1289 1989)">design is preserved when submitting to Xcode.</text>
  <text id="template-version" style="stroke:none;fill:black;font-family:sans-serif;font-size:13;text-anchor:end;" transform="matrix(1 0 0 1 3036 1933)">Template v.2.0</text>
  <text style="stroke:none;fill:black;font-family:sans-serif;font-size:13;text-anchor:end;" transform="matrix(1 0 0 1 3036 1951)">Requires Xcode 12 or greater</text>
  <text id="descriptive-name" style="stroke:none;fill:black;font-family:sans-serif;font-size:13;text-anchor:end;" transform="matrix(1 0 0 1 3036 1969)">Generated from square.and.arrow.down.fill</text>
  <text style="stroke:none;fill:black;font-family:sans-serif;font-size:13;text-anchor:end;" transform="matrix(1 0 0 1 3036 1987)">Typeset at 100 points</text>
  <text style="stroke:none;fill:black;font-family:sans-serif;font-size:13;" transform="matrix(1 0 0 1 263 726)">Small</text>
  <text style="stroke:none;fill:black;font-family:sans-serif;font-size:13;" transform="matrix(1 0 0 1 263 1156)">Medium</text>
  <text style="stroke:none;fill:black;font-family:sans-serif;font-size:13;" transform="matrix(1 0 0 1 263 1586)">Large</text>
 </g>
 <g id="Guides">
  <g id="H-reference" style="fill:#27AAE1;stroke:none;" transform="matrix(1 0 0 1 339 696)">
   <path d="M0.993347 0L3.6377 0L29.3282-67.1326L30.0301-67.1326L30.0301-70.459L28.1227-70.459ZM11.6882-24.4797L46.9818-24.4797L46.2311-26.7288L12.4382-26.7288ZM55.1193 0L57.7637 0L30.6381-70.459L29.4327-70.459L29.4327-67.1326Z"/>
  </g>
  <line id="Baseline-S" style="fill:none;stroke:#27AAE1;opacity:1;stroke-width:0.5;" x1="263" x2="3036" y1="696" y2="696"/>
  <line id="Capline-S" style="fill:none;stroke:#27AAE1;opacity:1;stroke-width:0.5;" x1="263" x2="3036" y1="625.541" y2="625.541"/>
  <g id="H-reference" style="fill:#27AAE1;stroke:none;" transform="matrix(1 0 0 1 339 1126)">
   <path d="M0.993347 0L3.6377 0L29.3282-67.1326L30.0301-67.1326L30.0301-70.459L28.1227-70.459ZM11.6882-24.4797L46.9818-24.4797L46.2311-26.7288L12.4382-26.7288ZM55.1193 0L57.7637 0L30.6381-70.459L29.4327-70.459L29.4327-67.1326Z"/>
  </g>
  <line id="Baseline-M" style="fill:none;stroke:#27AAE1;opacity:1;stroke-width:0.5;" x1="263" x2="3036" y1="1126" y2="1126"/>
  <line id="Capline-M" style="fill:none;stroke:#27AAE1;opacity:1;stroke-width:0.5;" x1="263" x2="3036" y1="1055.54" y2="1055.54"/>
  <g id="H-reference" style="fill:#27AAE1;stroke:none;" transform="matrix(1 0 0 1 339 1556)">
   <path d="M0.993347 0L3.6377 0L29.3282-67.1326L30.0301-67.1326L30.0301-70.459L28.1227-70.459ZM11.6882-24.4797L46.9818-24.4797L46.2311-26.7288L12.4382-26.7288ZM55.1193 0L57.7637 0L30.6381-70.459L29.4327-70.459L29.4327-67.1326Z"/>
  </g>
  <line id="Baseline-L" style="fill:none;stroke:#27AAE1;opacity:1;stroke-width:0.5;" x1="263" x2="3036" y1="1556" y2="1556"/>
  <line id="Capline-L" style="fill:none;stroke:#27AAE1;opacity:1;stroke-width:0.5;" x1="263" x2="3036" y1="1485.54" y2="1485.54"/>
  <line id="left-margin" style="fill:none;stroke:#00AEEF;stroke-width:0.5;opacity:1.0;" x1="1394.06" x2="1394.06" y1="1030.79" y2="1150.12"/>
  <line id="right-margin" style="fill:none;stroke:#00AEEF;stroke-width:0.5;opacity:1.0;" x1="1505.63" x2="1505.63" y1="1030.79" y2="1150.12"/>
 </g>
 <g id="Symbols">
  <g id="Black-L" transform="matrix(1 0 0 1 2856.86 1556)">
   <path d="M16.084 9.32481Q16.084 20.652 22.2958 26.843Q28.5077 33.034 39.8556 33.034L113.232 33.034Q124.6 33.034 130.802 26.8418Q137.004 20.6496 137.004 9.32481L137.004-46.9509Q137.004-58.2757 130.802-64.4679Q124.6-70.6601 113.232-70.6601L85.2402-70.6601L85.2402-97.2062Q85.2402-100.623 82.7418-103.217Q80.2434-105.812 76.5346-105.812Q72.905-105.812 70.3774-103.217Q67.8499-100.623 67.8499-97.2062L67.8499-70.6601L39.8556-70.6601Q28.5077-70.6601 22.2958-64.4685Q16.084-58.2769 16.084-46.9509ZM76.767-6.72011Q75.0315-6.72011 73.2491-7.41006Q71.4667-8.1 69.7115-9.79678L49.0906-29.5463Q46.8356-31.8012 46.8356-34.6859Q46.8356-37.8262 49.1145-39.8033Q51.3934-41.7804 54.2249-41.7804Q57.5457-41.7804 59.8174-39.3502L66.3594-32.3653L68.8509-27.4751L68.0823-36.6438L68.0823-64.4406Q68.0823-67.877 70.5786-70.4303Q73.075-72.9837 76.767-72.9837Q80.5383-72.9837 83.0055-70.4303Q85.4726-67.877 85.4726-64.4406L85.4726-36.6438L84.704-27.4971L87.1944-32.3653L93.7351-39.3502Q95.9872-41.7804 99.3079-41.7804Q102.117-41.7804 104.418-39.8033Q106.718-37.8262 106.718-34.6859Q106.718-31.8012 104.442-29.5463L83.8225-9.79678Q82.0882-8.1 80.3344-7.41006Q78.5806-6.72011 76.767-6.72011Z"/>
  </g>
  <g id="Heavy-L" transform="matrix(1 0 0 1 2561.29 1556)">
   <path d="M16.084 9.88392Q16.084 20.8024 21.9834 26.6716Q27.8828 32.5409 38.8315 32.5409L111.967 32.5409Q122.94 32.5409 128.827 26.666Q134.714 20.7911 134.714 9.88392L134.714-47.768Q134.714-58.6752 128.827-64.55Q122.94-70.4249 111.967-70.4249L83.1582-70.4249L83.1582-97.848Q83.1582-100.91 80.9166-103.211Q78.675-105.512 75.3898-105.512Q72.1793-105.512 69.9154-103.211Q67.6514-100.91 67.6514-97.848L67.6514-70.4249L38.8315-70.4249Q27.8828-70.4249 21.9834-64.5528Q16.084-58.6808 16.084-47.768ZM75.5626-7.37909Q74.0322-7.37909 72.4779-7.98464Q70.9236-8.59019 69.3685-10.1005L48.5296-30.1167Q46.4787-32.1675 46.4787-34.7709Q46.4787-37.5885 48.5003-39.3748Q50.5219-41.161 53.1322-41.161Q56.1353-41.161 58.1704-38.9763L65.8676-30.7932L68.5018-26.2835L67.8243-35.5095L67.8243-64.6985Q67.8243-67.7853 70.0429-70.0284Q72.2616-72.2715 75.5626-72.2715Q78.9384-72.2715 81.1348-70.0284Q83.3311-67.7853 83.3311-64.6985L83.3311-35.5095L82.6535-26.3193L85.2823-30.7932L92.9737-38.9763Q94.9843-41.161 97.9873-41.161Q100.562-41.161 102.616-39.3748Q104.671-37.5885 104.671-34.7709Q104.671-32.1675 102.59-30.1167L81.7567-10.1005Q80.2319-8.59019 78.697-7.98464Q77.1622-7.37909 75.5626-7.37909Z"/>
  </g>
  <g id="Bold-L" transform="matrix(1 0 0 1 2265.99 1556)">
   <path d="M16.084 10.5308Q16.084 20.9197 21.5991 26.397Q27.1142 31.8742 37.5412 31.8742L110.437 31.8742Q120.888 31.8742 126.391 26.3837Q131.894 20.8933 131.894 10.5308L131.894-48.9015Q131.894-59.264 126.391-64.7543Q120.888-70.2447 110.437-70.2447L80.5616-70.2447L80.5616-98.5873Q80.5616-101.197 78.65-103.129Q76.7385-105.061 73.9833-105.061Q71.2952-105.061 69.369-103.129Q67.4429-101.197 67.4429-98.5873L67.4429-70.2447L37.5412-70.2447Q27.1142-70.2447 21.5991-64.7609Q16.084-59.2771 16.084-48.9015ZM74.0868-8.1564Q72.81-8.1564 71.5362-8.65817Q70.2624-9.15994 68.9607-10.4323L47.7709-30.8832Q45.9883-32.6656 45.9883-34.9008Q45.9883-37.3039 47.6874-38.8445Q49.3865-40.3852 51.6903-40.3852Q54.2792-40.3852 56.0148-38.5153L65.3202-28.7L68.1086-24.6293L67.5463-33.8872L67.5463-65.185Q67.5463-67.8192 69.4156-69.6818Q71.2848-71.5445 74.0868-71.5445Q76.9561-71.5445 78.8107-69.6818Q80.6653-67.8192 80.6653-65.185L80.6653-33.8872L80.1028-24.6805L82.8783-28.7L92.1702-38.5153Q93.8812-40.3852 96.4699-40.3852Q98.7227-40.3852 100.466-38.8445Q102.21-37.3039 102.21-34.9008Q102.21-32.6656 100.389-30.8832L79.2128-10.4323Q77.9492-9.15994 76.6833-8.65817Q75.4175-8.1564 74.0868-8.1564Z"/>
  </g>
  <g id="Semibold-L" transform="matrix(1 0 0 1 1970.25 1556)">
   <path d="M16.084 10.9767Q16.084 21.0007 21.3341 26.2076Q26.5843 31.4145 36.6518 31.4145L109.382 31.4145Q119.474 31.4145 124.712 26.1891Q129.95 20.9637 129.95 10.9767L129.95-49.6829Q129.95-59.6699 124.712-64.8952Q119.474-70.1204 109.382-70.1204L78.7715-70.1204L78.7715-99.0971Q78.7715-101.394 77.0875-103.072Q75.4035-104.75 73.0137-104.75Q70.6857-104.75 68.9924-103.072Q67.2991-101.394 67.2991-99.0971L67.2991-70.1204L36.6518-70.1204Q26.5843-70.1204 21.3341-64.9043Q16.084-59.6883 16.084-49.6829ZM73.0693-8.69228Q71.9674-8.69228 70.887-9.12251Q69.8066-9.55273 68.6795-10.661L47.2479-31.4117Q45.6503-33.0089 45.6503-34.9904Q45.6503-37.1076 47.127-38.479Q48.6037-39.8504 50.6963-39.8504Q52.9996-39.8504 54.5287-38.1974L64.9428-27.257L67.8376-23.489L67.3547-32.7688L67.3547-65.5204Q67.3547-67.8425 68.9831-69.4429Q70.6114-71.0432 73.0693-71.0432Q75.5894-71.0432 77.2084-69.4429Q78.8275-67.8425 78.8275-65.5204L78.8275-32.7688L78.3443-23.5508L81.2211-27.257L91.6163-38.1974Q93.1208-39.8504 95.4238-39.8504Q97.4548-39.8504 98.984-38.479Q100.513-37.1076 100.513-34.9904Q100.513-33.0089 98.8725-31.4117L77.4591-10.661Q76.3756-9.55273 75.2951-9.12251Q74.2147-8.69228 73.0693-8.69228Z"/>
  </g>
  <g id="Medium-L" transform="matrix(1 0 0 1 1674.28 1556)">
   <path d="M16.084 11.3148Q16.084 21.062 21.1332 26.064Q26.1825 31.066 35.9773 31.066L108.582 31.066Q118.401 31.066 123.438 26.0416Q128.475 21.0171 128.475 11.3148L128.475-50.2754Q128.475-59.9777 123.438-65.002Q118.401-70.0262 108.582-70.0262L77.4142-70.0262L77.4142-99.4835Q77.4142-101.544 75.9027-103.029Q74.3912-104.514 72.2785-104.514Q70.2235-104.514 68.7068-103.029Q67.1901-101.544 67.1901-99.4835L67.1901-70.0262L35.9773-70.0262Q26.1825-70.0262 21.1332-65.0131Q16.084-60 16.084-50.2754ZM72.2979-9.09861Q71.3286-9.09861 70.3948-9.47458Q69.4611-9.85056 68.4664-10.8344L46.8513-31.8124Q45.394-33.2693 45.394-35.0583Q45.394-36.9588 46.7021-38.2019Q48.0102-39.4449 49.9426-39.4449Q52.0293-39.4449 53.4019-37.9564L64.6566-26.1628L67.6321-22.6243L67.2095-31.9207L67.2095-65.7747Q67.2095-67.8602 68.6551-69.2617Q70.1008-70.6632 72.2979-70.6632Q74.5532-70.6632 75.9936-69.2617Q77.4339-67.8602 77.4339-65.7747L77.4339-31.9207L77.011-22.6942L79.9645-26.1628L91.1962-37.9564Q92.5442-39.4449 94.6306-39.4449Q96.4934-39.4449 97.8601-38.2019Q99.2267-36.9588 99.2267-35.0583Q99.2267-33.2693 97.7222-31.8124L76.1294-10.8344Q75.1824-9.85056 74.2425-9.47458Q73.3027-9.09861 72.2979-9.09861Z"/>
  </g>
  <g id="Regular-L" transform="matrix(1 0 0 1 1378.53 1556)">
   <path d="M16.084 11.7559Q16.084 21.1421 20.8712 25.8767Q25.6584 30.6114 35.0976 30.6114L107.539 30.6114Q117.003 30.6114 121.777 25.8491Q126.552 21.0868 126.552 11.7559L126.552-51.0483Q126.552-60.3792 121.777-65.1413Q117.003-69.9034 107.539-69.9034L75.6437-69.9034L75.6437-99.9877Q75.6437-101.739 74.3573-102.973Q73.0709-104.207 71.3195-104.207Q69.6207-104.207 68.3343-102.973Q67.0478-101.739 67.0478-99.9877L67.0478-69.9034L35.0976-69.9034Q25.6584-69.9034 20.8712-65.155Q16.084-60.4066 16.084-51.0483ZM71.2916-9.62859Q70.4952-9.62859 69.7528-9.93381Q69.0103-10.239 68.1883-11.0606L46.334-32.335Q45.0597-33.6089 45.0597-35.1468Q45.0597-36.7648 46.1479-37.8403Q47.236-38.9159 48.9595-38.9159Q50.7638-38.9159 51.9321-37.642L64.2834-24.7356L67.364-21.4965L67.02-30.8146L67.02-66.1064Q67.02-67.8834 68.2274-69.0254Q69.4347-70.1675 71.2916-70.1675Q73.2015-70.1675 74.4089-69.0254Q75.6163-67.8834 75.6163-66.1064L75.6163-30.8146L75.2718-21.5769L78.3255-24.7356L90.6484-37.642Q91.7921-38.9159 93.5959-38.9159Q95.2395-38.9159 96.3941-37.8403Q97.5487-36.7648 97.5487-35.1468Q97.5487-33.6089 96.2218-32.335L74.395-11.0606Q73.626-10.239 72.8696-9.93381Q72.1132-9.62859 71.2916-9.62859Z"/>
  </g>
  <g id="Light-L" transform="matrix(1 0 0 1 1082.74 1556)">
   <path d="M16.084 11.9085Q16.084 20.7794 20.623 25.2851Q25.1621 29.7909 34.067 29.7909L106.718 29.7909Q115.609 29.7909 120.155 25.2384Q124.701 20.686 124.701 11.9085L124.701-52.6134Q124.701-61.3908 120.155-65.9429Q115.609-70.495 106.718-70.495L73.7352-70.495L73.7352-100.14Q73.7352-101.491 72.7542-102.439Q71.7732-103.386 70.4226-103.386Q69.1054-103.386 68.1244-102.439Q67.1434-101.491 67.1434-100.14L67.1434-70.495L34.067-70.495Q25.1621-70.495 20.623-65.9661Q16.084-61.4372 16.084-52.6134ZM70.3755-9.91494Q69.751-9.91494 69.1899-10.1533Q68.6287-10.3917 68.0164-11.0032L45.399-33.2511Q44.4107-34.2386 44.4107-35.395Q44.4107-36.631 45.2508-37.4777Q46.0909-38.3243 47.3943-38.3243Q48.7789-38.3243 49.6991-37.3368L64.3026-22.35L67.3448-19.2063L67.0963-28.2952L67.0963-67.5186Q67.0963-68.8569 68.0269-69.7604Q68.9576-70.6638 70.3755-70.6638Q71.8275-70.6638 72.7582-69.7604Q73.6889-68.8569 73.6889-67.5186L73.6889-28.2952L73.4396-19.2868L76.4362-22.35L90.9918-37.3368Q91.9258-38.3243 93.3096-38.3243Q94.5334-38.3243 95.4303-37.4777Q96.3273-36.631 96.3273-35.395Q96.3273-34.2386 95.3057-33.2511L72.7346-11.0032Q72.1564-10.3917 71.5717-10.1533Q70.987-9.91494 70.3755-9.91494Z"/>
  </g>
  <g id="Thin-L" transform="matrix(1 0 0 1 787.254 1556)">
   <path d="M16.084 12.1104Q16.084 20.2998 20.2948 24.5027Q24.5056 28.7056 32.704 28.7056L105.633 28.7056Q113.767 28.7056 118.01 24.4307Q122.253 20.1558 122.253 12.1104L122.253-54.6834Q122.253-62.7289 118.01-67.0031Q113.767-71.2774 105.633-71.2774L71.211-71.2774L71.211-100.342Q71.211-101.163 70.6339-101.732Q70.0569-102.301 69.2365-102.301Q68.4239-102.301 67.8468-101.732Q67.2698-101.163 67.2698-100.342L67.2698-71.2774L32.704-71.2774Q24.5056-71.2774 20.2948-67.0388Q16.084-62.8002 16.084-54.6834ZM69.1639-10.2937Q68.7667-10.2937 68.4454-10.4436Q68.124-10.5935 67.7891-10.9272L44.1624-34.4627Q43.5523-35.0716 43.5523-35.7233Q43.5523-36.4542 44.0644-36.998Q44.5765-37.5418 45.3243-37.5418Q46.1538-37.5418 46.7457-36.933L64.3281-19.1947L67.3193-16.1775L67.1972-24.9631L67.1972-69.3863Q67.1972-70.1444 67.7619-70.7324Q68.3266-71.3203 69.1639-71.3203Q70.0103-71.3203 70.575-70.7324Q71.1396-70.1444 71.1396-69.3863L71.1396-24.9631L71.0163-16.2579L73.9374-19.1947L91.446-36.933Q92.1026-37.5418 92.9309-37.5418Q93.5995-37.5418 94.1557-36.998Q94.7119-36.4542 94.7119-35.7233Q94.7119-35.0716 94.0941-34.4627L70.5387-10.9272Q70.2128-10.5935 69.8552-10.4436Q69.4976-10.2937 69.1639-10.2937Z"/>
  </g>
  <g id="Ultralight-L" transform="matrix(1 0 0 1 491.17 1556)">
   <path d="M16.084 12.2138Q16.084 20.0541 20.1266 24.1019Q24.1693 28.1498 32.0059 28.1498L105.077 28.1498Q112.823 28.1498 116.911 24.017Q120.999 19.8843 120.999 12.2138L120.999-55.7436Q120.999-63.4142 116.911-67.5462Q112.823-71.6782 105.077-71.6782L69.9181-71.6782L69.9181-100.446Q69.9181-100.994 69.5479-101.37Q69.1778-101.745 68.6289-101.745Q68.0748-101.745 67.7047-101.37Q67.3345-100.994 67.3345-100.446L67.3345-71.6782L32.0059-71.6782Q24.1693-71.6782 20.1266-67.5883Q16.084-63.4984 16.084-55.7436ZM68.5433-10.4876Q68.2625-10.4876 68.064-10.5923Q67.8655-10.6969 67.6727-10.8884L43.529-35.0833Q43.1127-35.4982 43.1127-35.8914Q43.1127-36.3636 43.4567-36.7523Q43.8008-37.1411 44.2641-37.1411Q44.8092-37.1411 45.233-36.7262L64.3411-17.5786L67.3063-14.6261L67.2489-23.2565L67.2489-70.3429Q67.2489-70.8039 67.6261-71.2302Q68.0033-71.6566 68.5433-71.6566Q69.0795-71.6566 69.4567-71.2302Q69.8339-70.8039 69.8339-70.3429L69.8339-23.2565L69.7751-14.7065L72.6576-17.5786L91.6787-36.7262Q92.1932-37.1411 92.7369-37.1411Q93.1212-37.1411 93.5029-36.7523Q93.8846-36.3636 93.8846-35.8914Q93.8846-35.4982 93.4735-35.0833L69.4139-10.8884Q69.2173-10.6969 68.976-10.5923Q68.7347-10.4876 68.5433-10.4876Z"/>
  </g>
  <g id="Black-M" transform="matrix(1 0 0 1 2873.24 1126)">
   <path d="M12.4609-1.17124Q12.4609 7.88581 17.5084 12.9278Q22.5559 17.9698 31.6184 17.9698L88.7016 17.9698Q97.7699 17.9698 102.815 12.9281Q107.859 7.88638 107.859-1.17124L107.859-43.8204Q107.859-52.8781 102.815-57.9198Q97.7699-62.9614 88.7016-62.9614L67.5698-62.9614L67.5698-82.7145Q67.5698-85.6121 65.455-87.8357Q63.3401-90.0593 60.157-90.0593Q57.0365-90.0593 54.8931-87.8357Q52.7496-85.6121 52.7496-82.7145L52.7496-62.9614L31.6184-62.9614Q22.5559-62.9614 17.5084-57.9196Q12.4609-52.8778 12.4609-43.8204ZM60.3857-12.6145Q58.888-12.6145 57.3357-13.2125Q55.7834-13.8105 54.28-15.2569L38.388-30.4604Q36.5044-32.344 36.5044-34.7689Q36.5044-37.4275 38.4574-39.0922Q40.4105-40.7569 42.7374-40.7569Q45.5263-40.7569 47.456-38.702L51.8366-34.0383L53.639-29.9356L52.9783-36.9588L52.9783-57.8303Q52.9783-60.7336 55.1135-62.9461Q57.2487-65.1586 60.3857-65.1586Q63.5852-65.1586 65.6919-62.9461Q67.7985-60.7336 67.7985-57.8303L67.7985-36.9588L67.1378-29.9408L68.9405-34.0383L73.3213-38.702Q75.2453-40.7569 78.0342-40.7569Q80.3559-40.7569 82.3143-39.0922Q84.2727-37.4275 84.2727-34.7689Q84.2727-32.344 82.3836-30.4604L66.4914-15.2569Q64.9934-13.8105 63.4698-13.2125Q61.9462-12.6145 60.3857-12.6145Z"/>
  </g>
  <g id="Heavy-M" transform="matrix(1 0 0 1 2577.56 1126)">
   <path d="M12.4609-0.638753Q12.4609 8.0663 17.2259 12.8148Q21.9908 17.5634 30.7123 17.5634L87.5407 17.5634Q96.2762 17.5634 101.034 12.8126Q105.792 8.06175 105.792-0.638753L105.792-44.4748Q105.792-53.1753 101.034-57.9261Q96.2762-62.6769 87.5407-62.6769L65.7107-62.6769L65.7107-83.3278Q65.7107-85.9157 63.8186-87.8786Q61.9266-89.8415 59.1206-89.8415Q56.3746-89.8415 54.4607-87.8786Q52.5468-85.9157 52.5468-83.3278L52.5468-62.6769L30.7123-62.6769Q21.9908-62.6769 17.2259-57.9272Q12.4609-53.1775 12.4609-44.4748ZM59.2927-13.2323Q57.9798-13.2323 56.6337-13.754Q55.2876-14.2756 53.9605-15.5591L37.9258-30.9335Q36.2153-32.644 36.2153-34.8291Q36.2153-37.2074 37.9397-38.7067Q39.6642-40.206 41.8136-40.206Q44.3306-40.206 46.0519-38.3646L51.3541-32.7216L53.2996-28.982L52.719-36.0823L52.719-57.9521Q52.719-60.5541 54.6083-62.4854Q56.4975-64.4166 59.2927-64.4166Q62.148-64.4166 64.0154-62.4854Q65.8829-60.5541 65.8829-57.9521L65.8829-36.0823L65.3023-29.0007L67.2455-32.7216L72.5454-38.3646Q74.2526-40.206 76.7696-40.206Q78.9004-40.206 80.6424-38.7067Q82.3843-37.2074 82.3843-34.8291Q82.3843-32.644 80.6574-30.9335L64.625-15.5591Q63.3143-14.2756 61.9889-13.754Q60.6634-13.2323 59.2927-13.2323Z"/>
  </g>
  <g id="Bold-M" transform="matrix(1 0 0 1 2282.01 1126)">
   <path d="M12.4609-0.0430887Q12.4609 8.2682 16.9098 12.6885Q21.3587 17.1088 29.6986 17.1088L86.242 17.1088Q94.6053 17.1088 99.0425 12.6834Q103.48 8.25793 103.48-0.0430887L103.48-45.2068Q103.48-53.5078 99.0425-57.9332Q94.6053-62.3586 86.242-62.3586L63.6309-62.3586L63.6309-84.0139Q63.6309-86.2554 61.9881-87.9267Q60.3453-89.598 57.9611-89.598Q55.6341-89.598 53.977-87.9267Q52.32-86.2554 52.32-84.0139L52.32-62.3586L29.6986-62.3586Q21.3587-62.3586 16.9098-57.9357Q12.4609-53.5129 12.4609-45.2068ZM58.0702-13.9234Q56.9639-13.9234 55.8484-14.3597Q54.733-14.7959 53.6031-15.8972L37.4089-31.4627Q35.8919-32.9795 35.8919-34.8965Q35.8919-36.9613 37.3606-38.2755Q38.8293-39.5897 40.7801-39.5897Q42.9931-39.5897 44.4813-37.9873L50.8144-31.2486L52.9199-27.9153L52.429-35.1018L52.429-58.0883Q52.429-60.3533 54.0431-61.97Q55.6573-63.5866 58.0702-63.5866Q60.5403-63.5866 62.1401-61.97Q63.74-60.3533 63.74-58.0883L63.74-35.1018L63.2491-27.9491L65.3496-31.2486L71.6774-37.9873Q73.1421-39.5897 75.355-39.5897Q77.2721-39.5897 78.772-38.2755Q80.2719-36.9613 80.2719-34.8965Q80.2719-32.9795 78.7264-31.4627L62.5372-15.8972Q61.436-14.7959 60.3323-14.3597Q59.2285-13.9234 58.0702-13.9234Z"/>
  </g>
  <g id="Semibold-M" transform="matrix(1 0 0 1 1986.09 1126)">
   <path d="M12.4609 0.367559Q12.4609 8.40739 16.6919 12.6014Q20.9229 16.7954 28.9999 16.7954L85.3466 16.7954Q93.4534 16.7954 97.6695 12.5943Q101.886 8.39318 101.886 0.367559L101.886-45.7114Q101.886-53.737 97.6695-57.9381Q93.4534-62.1391 85.3466-62.1391L62.1971-62.1391L62.1971-84.4869Q62.1971-86.4895 60.7262-87.9598Q59.2552-89.4301 57.1619-89.4301Q55.1236-89.4301 53.6436-87.9598Q52.1636-86.4895 52.1636-84.4869L52.1636-62.1391L28.9999-62.1391Q20.9229-62.1391 16.6919-57.9416Q12.4609-53.744 12.4609-45.7114ZM57.2273-14.3998Q56.2635-14.3998 55.3071-14.7772Q54.3507-15.1546 53.3567-16.1303L37.0525-31.8275Q35.669-33.2109 35.669-34.9429Q35.669-36.7916 36.9614-37.9783Q38.2538-39.1649 40.0677-39.1649Q42.071-39.1649 43.3985-37.7271L50.4422-30.2332L52.6581-27.1799L52.229-34.4258L52.229-58.1823Q52.229-60.2149 53.6535-61.6146Q55.078-63.0143 57.2273-63.0143Q59.4319-63.0143 60.8473-61.6146Q62.2627-60.2149 62.2627-58.1823L62.2627-34.4258L61.8336-27.224L64.0425-30.2332L71.079-37.7271Q72.3766-39.1649 74.3798-39.1649Q76.1496-39.1649 77.4826-37.9783Q78.8156-36.7916 78.8156-34.9429Q78.8156-33.2109 77.3951-31.8275L61.0979-16.1303Q60.1411-15.1546 59.1902-14.7772Q58.2393-14.3998 57.2273-14.3998Z"/>
  </g>
  <g id="Medium-M" transform="matrix(1 0 0 1 1689.99 1126)">
   <path d="M12.4609 0.678929Q12.4609 8.51292 16.5267 12.5354Q20.5925 16.5578 28.47 16.5578L84.6678 16.5578Q92.58 16.5578 96.6284 12.5268Q100.677 8.49573 100.677 0.678929L100.677-46.094Q100.677-53.9108 96.6284-57.9418Q92.58-61.9727 84.6678-61.9727L61.11-61.9727L61.11-84.8456Q61.11-86.6671 59.7693-87.9849Q58.4287-89.3028 56.5558-89.3028Q54.7366-89.3028 53.3908-87.9849Q52.045-86.6671 52.045-84.8456L52.045-61.9727L28.47-61.9727Q20.5925-61.9727 16.5267-57.946Q12.4609-53.9193 12.4609-46.094ZM56.5882-14.761Q55.7324-14.761 54.8966-15.0938Q54.0607-15.4266 53.1699-16.307L36.7822-32.1041Q35.5-33.3863 35.5-34.9781Q35.5-36.6629 36.6587-37.7529Q37.8174-38.8428 39.5275-38.8428Q41.3719-38.8428 42.5774-37.5298L50.1601-29.4632L52.4596-26.6223L52.0774-33.9133L52.0774-58.2535Q52.0774-60.11 53.3581-61.3452Q54.6388-62.5805 56.5882-62.5805Q58.5915-62.5805 59.867-61.3452Q61.1426-60.11 61.1426-58.2535L61.1426-33.9133L60.7603-26.6743L63.0514-29.4632L70.6252-37.5298Q71.7961-38.8428 73.6404-38.8428Q75.2985-38.8428 76.5049-37.7529Q77.7114-36.6629 77.7114-34.9781Q77.7114-33.3863 76.3857-32.1041L60.0066-16.307Q59.1593-15.4266 58.3242-15.0938Q57.4892-14.761 56.5882-14.761Z"/>
  </g>
  <g id="Regular-M" transform="matrix(1 0 0 1 1394.06 1126)">
   <path d="M12.4609 1.08506Q12.4609 8.65058 16.3112 12.4492Q20.1615 16.2478 27.7789 16.2478L83.7823 16.2478Q91.4407 16.2478 95.2705 12.4387Q99.1003 8.62949 99.1003 1.08506L99.1003-46.5931Q99.1003-54.1375 95.2705-57.9466Q91.4407-61.7557 83.7823-61.7557L59.692-61.7557L59.692-85.3134Q59.692-86.8986 58.5213-88.0177Q57.3506-89.1367 55.7653-89.1367Q54.2317-89.1367 53.061-88.0177Q51.8903-86.8986 51.8903-85.3134L51.8903-61.7557L27.7789-61.7557Q20.1615-61.7557 16.3112-57.9518Q12.4609-54.148 12.4609-46.5931ZM55.7547-15.2322Q55.0397-15.2322 54.3612-15.5068Q53.6826-15.7814 52.9263-16.5375L36.4298-32.465Q35.2795-33.6151 35.2795-35.024Q35.2795-36.4951 36.2639-37.4589Q37.2482-38.4226 38.8228-38.4226Q40.4599-38.4226 41.5065-37.2725L49.7921-28.4589L52.2007-25.895L51.8797-33.2448L51.8797-58.3464Q51.8797-59.9731 52.9728-60.9938Q54.0659-62.0146 55.7547-62.0146Q57.4953-62.0146 58.5884-60.9938Q59.6815-59.9731 59.6815-58.3464L59.6815-33.2448L59.3603-25.9573L61.7586-28.4589L70.0334-37.2725Q71.039-38.4226 72.6759-38.4226Q74.1884-38.4226 75.2297-37.4589Q76.2711-36.4951 76.2711-35.024Q76.2711-33.6151 75.0691-32.465L58.5831-16.5375Q57.8786-15.7814 57.1947-15.5068Q56.5108-15.2322 55.7547-15.2322Z"/>
  </g>
  <g id="Light-M" transform="matrix(1 0 0 1 1098.18 1126)">
   <path d="M12.4609 1.22191Q12.4609 8.32544 16.0887 11.9188Q19.7165 15.5122 26.8549 15.5122L83.0466 15.5122Q90.1916 15.5122 93.8161 11.8911Q97.4406 8.27013 97.4406 1.22191L97.4406-47.9963Q97.4406-55.0445 93.8161-58.6653Q90.1916-62.2861 83.0466-62.2861L57.9809-62.2861L57.9809-85.4502Q57.9809-86.6761 57.084-87.5386Q56.1871-88.401 54.9612-88.401Q53.7697-88.401 52.8729-87.5386Q51.976-86.6761 51.976-85.4502L51.976-62.2861L26.8549-62.2861Q19.7165-62.2861 16.0887-58.679Q12.4609-55.0719 12.4609-47.9963ZM54.9333-15.489Q54.3725-15.489 53.8565-15.7036Q53.3405-15.9182 52.7722-16.486L35.5915-33.2863Q34.6976-34.1797 34.6976-35.2465Q34.6976-36.3752 35.4596-37.1337Q36.2216-37.8922 37.4196-37.8922Q38.6804-37.8922 39.5045-36.9989L49.8093-26.3201L52.1834-23.8418L51.9481-30.986L51.9481-59.6125Q51.9481-60.8459 52.7931-61.6527Q53.6381-62.4596 54.9333-62.4596Q56.2634-62.4596 57.1084-61.6527Q57.9534-60.8459 57.9534-59.6125L57.9534-30.986L57.7176-23.9041L60.0648-26.3201L70.3413-36.9989Q71.1588-37.8922 72.4192-37.8922Q73.5553-37.8922 74.3657-37.1337Q75.176-36.3752 75.176-35.2465Q75.176-34.1797 74.2478-33.2863L57.0945-16.486Q56.561-15.9182 56.0311-15.7036Q55.5012-15.489 54.9333-15.489Z"/>
  </g>
  <g id="Thin-M" transform="matrix(1 0 0 1 802.569 1126)">
   <path d="M12.4609 1.40289Q12.4609 7.89541 15.7944 11.2173Q19.1279 14.5392 25.6329 14.5392L82.0736 14.5392Q88.5395 14.5392 91.8926 11.167Q95.2456 7.79485 95.2456 1.40289L95.2456-49.8522Q95.2456-56.2441 91.8926-59.6159Q88.5395-62.9876 82.0736-62.9876L55.7178-62.9876L55.7178-85.6312Q55.7178-86.3818 55.1831-86.9049Q54.6484-87.428 53.8977-87.428Q53.1587-87.428 52.624-86.9049Q52.0893-86.3818 52.0893-85.6312L52.0893-62.9876L25.6329-62.9876Q19.1279-62.9876 15.7944-59.6408Q12.4609-56.294 12.4609-49.8522ZM53.847-15.8285Q53.49-15.8285 53.189-15.9638Q52.888-16.0992 52.5684-16.418L34.4827-34.3726Q33.928-34.9264 33.928-35.5408Q33.928-36.2167 34.3959-36.7037Q34.8638-37.1907 35.5638-37.1907Q36.3268-37.1907 36.8566-36.6369L49.8321-23.4912L52.1606-21.1262L52.0386-27.9986L52.0386-61.287Q52.0386-62.0002 52.5555-62.5242Q53.0724-63.0482 53.847-63.0482Q54.6342-63.0482 55.151-62.5242Q55.6679-62.0002 55.6679-61.287L55.6679-27.9986L55.545-21.1885L57.8245-23.4912L70.7485-36.6369Q71.3174-37.1907 72.0796-37.1907Q72.7181-37.1907 73.2229-36.7037Q73.7278-36.2167 73.7278-35.5408Q73.7278-34.9264 73.1615-34.3726L55.1257-16.418Q54.8185-16.0992 54.4922-15.9638Q54.1658-15.8285 53.847-15.8285Z"/>
  </g>
  <g id="Ultralight-M" transform="matrix(1 0 0 1 506.42 1126)">
   <path d="M12.4609 1.49559Q12.4609 7.67515 15.6437 10.858Q18.8264 14.0408 25.007 14.0408L81.5753 14.0408Q87.6933 14.0408 90.9073 10.7961Q94.1213 7.55142 94.1213 1.49559L94.1213-50.8027Q94.1213-56.8586 90.9073-60.1027Q87.6933-63.3469 81.5753-63.3469L54.5586-63.3469L54.5586-85.7239Q54.5586-86.2311 54.2094-86.5804Q53.8602-86.9297 53.353-86.9297Q52.8458-86.9297 52.4966-86.5804Q52.1473-86.2311 52.1473-85.7239L52.1473-63.3469L25.007-63.3469Q18.8264-63.3469 15.6437-60.1334Q12.4609-56.9199 12.4609-50.8027ZM53.2906-16.0024Q53.038-16.0024 52.8471-16.0971Q52.6563-16.1919 52.464-16.3831L33.9148-34.929Q33.5339-35.3089 33.5339-35.6916Q33.5339-36.1355 33.8511-36.4834Q34.1684-36.8314 34.6132-36.8314Q35.1213-36.8314 35.5004-36.4515L49.8438-22.0423L52.1489-19.7353L52.085-26.4685L52.085-62.1447Q52.085-62.5915 52.4338-62.9705Q52.7826-63.3496 53.2906-63.3496Q53.7997-63.3496 54.1485-62.9705Q54.4973-62.5915 54.4973-62.1447L54.4973-26.4685L54.4323-19.7976L56.6771-22.0423L70.9571-36.4515Q71.3986-36.8314 71.9057-36.8314Q72.2892-36.8314 72.6376-36.4834Q72.986-36.1355 72.986-35.6916Q72.986-35.3089 72.6051-34.929L54.1173-16.3831Q53.926-16.1919 53.7039-16.0971Q53.4819-16.0024 53.2906-16.0024Z"/>
  </g>
  <g id="Black-S" transform="matrix(1 0 0 1 2885.99 696)">
   <path d="M9.76562-8.69141Q9.76562-1.51367 13.7939 2.51465Q17.8223 6.54297 25 6.54297L69.8242 6.54297Q77.002 6.54297 81.0303 2.51465Q85.0586-1.51367 85.0586-8.69141L85.0586-41.8457Q85.0586-49.0234 81.0303-53.0518Q77.002-57.0801 69.8242-57.0801L53.418-57.0801L53.418-72.2656Q53.418-74.6094 51.709-76.416Q50-78.2227 47.4121-78.2227Q44.873-78.2227 43.1396-76.416Q41.4062-74.6094 41.4062-72.2656L41.4062-57.0801L25-57.0801Q17.8223-57.0801 13.7939-53.0518Q9.76562-49.0234 9.76562-41.8457ZM47.6074-17.334Q46.3867-17.334 45.1172-17.8223Q43.8477-18.3105 42.627-19.4824L30.1758-31.3965Q28.6621-32.9102 28.6621-34.8633Q28.6621-37.0117 30.249-38.3545Q31.8359-39.6973 33.6914-39.6973Q35.9375-39.6973 37.5-38.0371L40.7715-34.5703L42.1387-31.25L41.6016-36.7188L41.6016-52.9785Q41.6016-55.3223 43.335-57.1289Q45.0684-58.9355 47.6074-58.9355Q50.1953-58.9355 51.9043-57.1289Q53.6133-55.3223 53.6133-52.9785L53.6133-36.7188L53.0762-31.25L54.4434-34.5703L57.7148-38.0371Q59.2773-39.6973 61.5234-39.6973Q63.3789-39.6973 64.9658-38.3545Q66.5527-37.0117 66.5527-34.8633Q66.5527-32.9102 65.0391-31.3965L52.5879-19.4824Q51.3672-18.3105 50.1221-17.8223Q48.877-17.334 47.6074-17.334Z"/>
  </g>
  <g id="Heavy-S" transform="matrix(1 0 0 1 2590.05 696)">
   <path d="M9.76562-8.25348Q9.76562-1.31776 13.5807 2.48584Q17.3959 6.28943 24.3431 6.28943L68.9253 6.28943Q75.8841 6.28943 79.6934 2.48584Q83.5028-1.31776 83.5028-8.25348L83.5028-42.226Q83.5028-49.1617 79.6934-52.9653Q75.8841-56.7689 68.9253-56.7689L52.0466-56.7689L52.0466-72.7727Q52.0466-74.8975 50.4932-76.514Q48.9397-78.1305 46.6284-78.1305Q44.366-78.1305 42.7939-76.514Q41.2219-74.8975 41.2219-72.7727L41.2219-56.7689L24.3431-56.7689Q17.3959-56.7689 13.5807-52.9653Q9.76562-49.1617 9.76562-42.226ZM46.7777-17.8295Q45.6953-17.8295 44.5813-18.2602Q43.4673-18.6909 42.3734-19.7475L29.8877-31.6961Q28.4892-33.0945 28.4892-34.8863Q28.4892-36.8389 29.9091-38.0664Q31.3289-39.2939 33.0806-39.2939Q35.1423-39.2939 36.555-37.7836L40.3566-33.7175L41.8506-30.6968L41.3711-36.2578L41.3711-52.9209Q41.3711-55.0572 42.9258-56.6506Q44.4806-58.2441 46.7777-58.2441Q49.1235-58.2441 50.6597-56.6506Q52.1958-55.0572 52.1958-52.9209L52.1958-36.2578L51.7163-30.7084L53.2102-33.7175L57.0119-37.7836Q58.413-39.2939 60.4747-39.2939Q62.2149-39.2939 63.6463-38.0664Q65.0776-36.8389 65.0776-34.8863Q65.0776-33.0945 63.6677-31.6961L51.1819-19.7475Q50.0995-18.6909 49.0042-18.2602Q47.9089-17.8295 46.7777-17.8295Z"/>
  </g>
  <g id="Bold-S" transform="matrix(1 0 0 1 2294.21 696)">
   <path d="M9.76562-7.76367Q9.76562-1.09863 13.3423 2.45361Q16.9189 6.00586 23.6084 6.00586L67.9199 6.00586Q74.6338 6.00586 78.1982 2.45361Q81.7627-1.09863 81.7627-7.76367L81.7627-42.6514Q81.7627-49.3164 78.1982-52.8687Q74.6338-56.4209 67.9199-56.4209L50.5127-56.4209L50.5127-73.3398Q50.5127-75.2197 49.1333-76.6235Q47.7539-78.0273 45.752-78.0273Q43.7988-78.0273 42.4072-76.6235Q41.0156-75.2197 41.0156-73.3398L41.0156-56.4209L23.6084-56.4209Q16.9189-56.4209 13.3423-52.8687Q9.76562-49.3164 9.76562-42.6514ZM45.8496-18.3838Q44.9219-18.3838 43.9819-18.75Q43.042-19.1162 42.0898-20.0439L29.5654-32.0312Q28.2959-33.3008 28.2959-34.9121Q28.2959-36.6455 29.5288-37.7441Q30.7617-38.8428 32.3975-38.8428Q34.2529-38.8428 35.498-37.5L39.8926-32.7637L41.5283-30.0781L41.1133-35.7422L41.1133-52.8564Q41.1133-54.7607 42.4683-56.1157Q43.8232-57.4707 45.8496-57.4707Q47.9248-57.4707 49.2676-56.1157Q50.6104-54.7607 50.6104-52.8564L50.6104-35.7422L50.1953-30.1025L51.8311-32.7637L56.2256-37.5Q57.4463-38.8428 59.3018-38.8428Q60.9131-38.8428 62.1704-37.7441Q63.4277-36.6455 63.4277-34.9121Q63.4277-33.3008 62.1338-32.0312L49.6094-20.0439Q48.6816-19.1162 47.7539-18.75Q46.8262-18.3838 45.8496-18.3838Z"/>
  </g>
  <g id="Semibold-S" transform="matrix(1 0 0 1 1998.1 696)">
   <path d="M9.76562-7.42598Q9.76562-0.947559 13.1779 2.4314Q16.5901 5.81035 23.1019 5.81035L67.2268 5.81035Q73.7718 5.81035 77.1674 2.4314Q80.563-0.947559 80.563-7.42598L80.563-42.9446Q80.563-49.423 77.1674-52.802Q73.7718-56.181 67.2268-56.181L49.4552-56.181L49.4552-73.7309Q49.4552-75.4419 48.1958-76.6991Q46.9363-77.9562 45.1477-77.9562Q43.4078-77.9562 42.1406-76.6991Q40.8734-75.4419 40.8734-73.7309L40.8734-56.181L23.1019-56.181Q16.5901-56.181 13.1779-52.802Q9.76562-49.423 9.76562-42.9446ZM45.2098-18.7659Q44.3887-18.7659 43.5687-19.0877Q42.7487-19.4095 41.8943-20.2483L29.3433-32.2623Q28.1626-33.443 28.1626-34.9299Q28.1626-36.5122 29.2667-37.522Q30.3707-38.5317 31.9265-38.5317Q33.6397-38.5317 34.7693-37.3045L39.5727-32.1061L41.3062-29.6516L40.9355-35.3867L40.9355-52.812Q40.9355-54.5563 42.1528-55.7469Q43.37-56.9375 45.2098-56.9375Q47.0983-56.9375 48.3078-55.7469Q49.5173-54.5563 49.5173-52.812L49.5173-35.3867L49.1467-29.6849L50.8802-32.1061L55.6835-37.3045Q56.7798-38.5317 58.4931-38.5317Q60.0155-38.5317 61.1529-37.522Q62.2902-36.5122 62.2902-34.9299Q62.2902-33.443 61.0763-32.2623L48.5252-20.2483Q47.7041-19.4095 46.8919-19.0877Q46.0797-18.7659 45.2098-18.7659Z"/>
  </g>
  <g id="Medium-S" transform="matrix(1 0 0 1 1701.85 696)">
   <path d="M9.76562-7.16992Q9.76562-0.833008 13.0532 2.41455Q16.3408 5.66211 22.7178 5.66211L66.7012 5.66211Q73.1182 5.66211 76.3857 2.41455Q79.6533-0.833008 79.6533-7.16992L79.6533-43.167Q79.6533-49.5039 76.3857-52.7515Q73.1182-55.999 66.7012-55.999L48.6533-55.999L48.6533-74.0273Q48.6533-75.6104 47.4849-76.7563Q46.3164-77.9023 44.6895-77.9023Q43.1113-77.9023 41.9385-76.7563Q40.7656-75.6104 40.7656-74.0273L40.7656-55.999L22.7178-55.999Q16.3408-55.999 13.0532-52.7515Q9.76562-49.5039 9.76562-43.167ZM44.7246-19.0557Q43.9844-19.0557 43.2554-19.3438Q42.5264-19.6318 41.7461-20.4033L29.1748-32.4375Q28.0615-33.5508 28.0615-34.9434Q28.0615-36.4111 29.0679-37.3535Q30.0742-38.2959 31.5693-38.2959Q33.1748-38.2959 34.2168-37.1562L39.3301-31.6074L41.1377-29.3281L40.8008-35.1172L40.8008-52.7783Q40.8008-54.4014 41.9136-55.4673Q43.0264-56.5332 44.7246-56.5332Q46.4717-56.5332 47.5801-55.4673Q48.6885-54.4014 48.6885-52.7783L48.6885-35.1172L48.3516-29.3682L50.1592-31.6074L55.2725-37.1562Q56.2744-38.2959 57.8799-38.2959Q59.335-38.2959 60.3813-37.3535Q61.4277-36.4111 61.4277-34.9434Q61.4277-33.5508 60.2744-32.4375L47.7031-20.4033Q46.9629-19.6318 46.2383-19.3438Q45.5137-19.0557 44.7246-19.0557Z"/>
  </g>
  <g id="Regular-S" transform="matrix(1 0 0 1 1405.73 696)">
   <path d="M9.76562-6.83594Q9.76562-0.683594 12.8906 2.39258Q16.0156 5.46875 22.2168 5.46875L66.0156 5.46875Q72.2656 5.46875 75.3662 2.39258Q78.4668-0.683594 78.4668-6.83594L78.4668-43.457Q78.4668-49.6094 75.3662-52.6855Q72.2656-55.7617 66.0156-55.7617L47.6074-55.7617L47.6074-74.4141Q47.6074-75.8301 46.5576-76.8311Q45.5078-77.832 44.0918-77.832Q42.7246-77.832 41.6748-76.8311Q40.625-75.8301 40.625-74.4141L40.625-55.7617L22.2168-55.7617Q16.0156-55.7617 12.8906-52.6855Q9.76562-49.6094 9.76562-43.457ZM44.0918-19.4336Q43.457-19.4336 42.8467-19.6777Q42.2363-19.9219 41.5527-20.6055L28.9551-32.666Q27.9297-33.6914 27.9297-34.9609Q27.9297-36.2793 28.8086-37.1338Q29.6875-37.9883 31.1035-37.9883Q32.5684-37.9883 33.4961-36.9629L39.0137-30.957L40.918-28.9062L40.625-34.7656L40.625-52.7344Q40.625-54.1992 41.6016-55.1025Q42.5781-56.0059 44.0918-56.0059Q45.6543-56.0059 46.6309-55.1025Q47.6074-54.1992 47.6074-52.7344L47.6074-34.7656L47.3145-28.9551L49.2188-30.957L54.7363-36.9629Q55.6152-37.9883 57.0801-37.9883Q58.4473-37.9883 59.375-37.1338Q60.3027-36.2793 60.3027-34.9609Q60.3027-33.6914 59.2285-32.666L46.6309-20.6055Q45.9961-19.9219 45.3857-19.6777Q44.7754-19.4336 44.0918-19.4336Z"/>
  </g>
  <g id="Light-S" transform="matrix(1 0 0 1 1109.75 696)">
   <path d="M9.76562-6.71488Q9.76562-0.971222 12.6938 1.92337Q15.6219 4.81796 21.3994 4.81796L65.3648 4.81796Q71.1606 4.81796 74.0796 1.90824Q76.9986-1.00149 76.9986-6.71488L76.9986-44.6983Q76.9986-50.4117 74.0796-53.3213Q71.1606-56.2309 65.3648-56.2309L46.0938-56.2309L46.0938-74.5351Q46.0938-75.6332 45.2862-76.4072Q44.4786-77.1812 43.3805-77.1812Q42.3159-77.1812 41.5084-76.4072Q40.7008-75.6332 40.7008-74.5351L40.7008-56.2309L21.3994-56.2309Q15.6219-56.2309 12.6938-53.3288Q9.76562-50.4267 9.76562-44.6983ZM43.3652-19.6607Q42.8668-19.6607 42.4002-19.8518Q41.9337-20.0429 41.4164-20.5599L28.2135-33.3926Q27.415-34.1909 27.415-35.1578Q27.415-36.1732 28.0972-36.8462Q28.7793-37.5191 29.8622-37.5191Q30.9942-37.5191 31.7251-36.7208L39.0289-29.0649L40.9027-27.0899L40.6855-32.7675L40.6855-53.8544Q40.6855-54.9713 41.4426-55.6854Q42.1997-56.3995 43.3652-56.3995Q44.5646-56.3995 45.3217-55.6854Q46.0787-54.9713 46.0787-53.8544L46.0787-32.7675L45.8613-27.1388L47.7203-29.0649L55.0087-36.7208Q55.7213-37.5191 56.853-37.5191Q57.8873-37.5191 58.6107-36.8462Q59.3341-36.1732 59.3341-35.1578Q59.3341-34.1909 58.5019-33.3926L45.314-20.5599Q44.8306-20.0429 44.3564-19.8518Q43.8822-19.6607 43.3652-19.6607Z"/>
  </g>
  <g id="Thin-S" transform="matrix(1 0 0 1 814.011 696)">
   <path d="M9.76562-6.55478Q9.76562-1.35163 12.4335 1.30281Q15.1013 3.95724 20.3184 3.95724L64.5041 3.95724Q69.6992 3.95724 72.378 1.26766Q75.0569-1.42192 75.0569-6.55478L75.0569-46.3401Q75.0569-51.4729 72.378-54.1622Q69.6992-56.8515 64.5041-56.8515L44.0918-56.8515L44.0918-74.6952Q44.0918-75.3729 43.6046-75.8467Q43.1174-76.3205 42.4397-76.3205Q41.7754-76.3205 41.2882-75.8467Q40.801-75.3729 40.801-74.6952L40.801-56.8515L20.3184-56.8515Q15.1013-56.8515 12.4335-54.1796Q9.76562-51.5078 9.76562-46.3401ZM42.4043-19.9611Q42.0861-19.9611 41.8098-20.082Q41.5334-20.203 41.2361-20.4997L27.2327-34.3535Q26.7342-34.8515 26.7342-35.4181Q26.7342-36.033 27.1562-36.4657Q27.5782-36.8985 28.2205-36.8985Q28.9122-36.8985 29.3827-36.4006L39.0491-26.5625L40.8825-24.6877L40.7656-30.1248L40.7656-55.3357Q40.7656-55.9925 41.2324-56.4563Q41.6992-56.9202 42.4043-56.9202Q43.1233-56.9202 43.5901-56.4563Q44.0569-55.9925 44.0569-55.3357L44.0569-30.1248L43.9394-24.7366L45.7386-26.5625L55.3689-36.4006Q55.8615-36.8985 56.5526-36.8985Q57.1466-36.8985 57.5998-36.4657Q58.0529-36.033 58.0529-35.4181Q58.0529-34.8515 57.541-34.3535L43.5724-20.4997Q43.2891-20.203 42.995-20.082Q42.701-19.9611 42.4043-19.9611Z"/>
  </g>
  <g id="Ultralight-S" transform="matrix(1 0 0 1 517.797 696)">
   <path d="M9.76562-6.47278Q9.76562-1.54648 12.3001 0.984955Q14.8346 3.51639 19.7647 3.51639L64.0633 3.51639Q68.9507 3.51639 71.5065 0.93956Q74.0623-1.63727 74.0623-6.47278L74.0623-47.1809Q74.0623-52.0164 71.5065-54.5929Q68.9507-57.1693 64.0633-57.1693L43.0664-57.1693L43.0664-74.7772Q43.0664-75.2396 42.7433-75.5596Q42.4202-75.8797 41.9579-75.8797Q41.4986-75.8797 41.1755-75.5596Q40.8524-75.2396 40.8524-74.7772L40.8524-57.1693L19.7647-57.1693Q14.8346-57.1693 12.3001-54.6154Q9.76562-52.0615 9.76562-47.1809ZM41.9121-20.1149Q41.6862-20.1149 41.5073-20.2Q41.3284-20.285 41.1438-20.4689L26.7303-34.8457Q26.3855-35.1898 26.3855-35.5515Q26.3855-35.9612 26.6743-36.2709Q26.963-36.5807 27.3796-36.5807Q27.8458-36.5807 28.183-36.2366L39.0594-25.2808L40.8722-23.4573L40.8066-28.7712L40.8066-56.0944Q40.8066-56.5155 41.1247-56.8512Q41.4429-57.1869 41.9121-57.1869Q42.3851-57.1869 42.7032-56.8512Q43.0214-56.5155 43.0214-56.0944L43.0214-28.7712L42.955-23.5062L44.7235-25.2808L55.5534-36.2366Q55.9334-36.5807 56.3988-36.5807Q56.7673-36.5807 57.082-36.2709Q57.3967-35.9612 57.3967-35.5515Q57.3967-35.1898 57.0488-34.8457L42.6804-20.4689Q42.4995-20.285 42.2977-20.2Q42.0959-20.1149 41.9121-20.1149Z"/>
  </g>
 </g>
</svg>
