<?xml version="1.0" encoding="UTF-8"?>
<!--Generator: Apple Native CoreSVG 175-->
<!DOCTYPE svg
PUBLIC "-//W3C//DTD SVG 1.1//EN"
       "http://www.w3.org/Graphics/SVG/1.1/DTD/svg11.dtd">
<svg version="1.1" xmlns="http://www.w3.org/2000/svg" xmlns:xlink="http://www.w3.org/1999/xlink" width="3300" height="2200">
 <!--glyph: "uni1004BC.medium", point size: 100.0, font version: "17.3d3e1", template writer version: "65.1"-->
 <g id="Notes">
  <rect height="2200" id="artboard" style="fill:white;opacity:1" width="3300" x="0" y="0"/>
  <line style="fill:none;stroke:black;opacity:1;stroke-width:0.5;" x1="263" x2="3036" y1="292" y2="292"/>
  <text style="stroke:none;fill:black;font-family:sans-serif;font-size:13;font-weight:bold;" transform="matrix(1 0 0 1 263 322)">Weight/Scale Variations</text>
  <text style="stroke:none;fill:black;font-family:sans-serif;font-size:13;text-anchor:middle;" transform="matrix(1 0 0 1 559.711 322)">Ultralight</text>
  <text style="stroke:none;fill:black;font-family:sans-serif;font-size:13;text-anchor:middle;" transform="matrix(1 0 0 1 856.422 322)">Thin</text>
  <text style="stroke:none;fill:black;font-family:sans-serif;font-size:13;text-anchor:middle;" transform="matrix(1 0 0 1 1153.13 322)">Light</text>
  <text style="stroke:none;fill:black;font-family:sans-serif;font-size:13;text-anchor:middle;" transform="matrix(1 0 0 1 1449.84 322)">Regular</text>
  <text style="stroke:none;fill:black;font-family:sans-serif;font-size:13;text-anchor:middle;" transform="matrix(1 0 0 1 1746.56 322)">Medium</text>
  <text style="stroke:none;fill:black;font-family:sans-serif;font-size:13;text-anchor:middle;" transform="matrix(1 0 0 1 2043.27 322)">Semibold</text>
  <text style="stroke:none;fill:black;font-family:sans-serif;font-size:13;text-anchor:middle;" transform="matrix(1 0 0 1 2339.98 322)">Bold</text>
  <text style="stroke:none;fill:black;font-family:sans-serif;font-size:13;text-anchor:middle;" transform="matrix(1 0 0 1 2636.69 322)">Heavy</text>
  <text style="stroke:none;fill:black;font-family:sans-serif;font-size:13;text-anchor:middle;" transform="matrix(1 0 0 1 2933.4 322)">Black</text>
  <line style="fill:none;stroke:black;opacity:1;stroke-width:0.5;" x1="263" x2="3036" y1="1903" y2="1903"/>
  <g transform="matrix(1 0 0 1 263 1933)">
   <path d="M9.24805 0.830078Q10.8691 0.830078 12.2949 0.214844Q13.7207-0.400391 14.8096-1.49414Q15.8984-2.58789 16.5186-4.01367Q17.1387-5.43945 17.1387-7.05078Q17.1387-8.66211 16.5186-10.0879Q15.8984-11.5137 14.8047-12.6074Q13.7109-13.7012 12.2852-14.3164Q10.8594-14.9316 9.23828-14.9316Q7.62695-14.9316 6.20117-14.3164Q4.77539-13.7012 3.69141-12.6074Q2.60742-11.5137 1.9873-10.0879Q1.36719-8.66211 1.36719-7.05078Q1.36719-5.43945 1.9873-4.01367Q2.60742-2.58789 3.69629-1.49414Q4.78516-0.400391 6.21094 0.214844Q7.63672 0.830078 9.24805 0.830078ZM9.24805-0.654297Q7.91992-0.654297 6.7627-1.14746Q5.60547-1.64062 4.73145-2.51953Q3.85742-3.39844 3.36426-4.56055Q2.87109-5.72266 2.87109-7.05078Q2.87109-8.37891 3.35938-9.54102Q3.84766-10.7031 4.72168-11.582Q5.5957-12.4609 6.75293-12.9541Q7.91016-13.4473 9.23828-13.4473Q10.5762-13.4473 11.7334-12.9541Q12.8906-12.4609 13.7695-11.582Q14.6484-10.7031 15.1465-9.54102Q15.6445-8.37891 15.6445-7.05078Q15.6445-5.72266 15.1514-4.56055Q14.6582-3.39844 13.7842-2.51953Q12.9102-1.64062 11.748-1.14746Q10.5859-0.654297 9.24805-0.654297ZM5.6543-7.05078Q5.6543-6.72852 5.85938-6.52832Q6.06445-6.32812 6.40625-6.32812L8.51562-6.32812L8.51562-4.20898Q8.51562-3.88672 8.71094-3.67676Q8.90625-3.4668 9.23828-3.4668Q9.56055-3.4668 9.77051-3.67676Q9.98047-3.88672 9.98047-4.20898L9.98047-6.32812L12.0898-6.32812Q12.4219-6.32812 12.627-6.52832Q12.832-6.72852 12.832-7.05078Q12.832-7.38281 12.627-7.58789Q12.4219-7.79297 12.0898-7.79297L9.98047-7.79297L9.98047-9.90234Q9.98047-10.2344 9.77051-10.4443Q9.56055-10.6543 9.23828-10.6543Q8.90625-10.6543 8.71094-10.4443Q8.51562-10.2344 8.51562-9.90234L8.51562-7.79297L6.40625-7.79297Q6.06445-7.79297 5.85938-7.58789Q5.6543-7.38281 5.6543-7.05078Z"/>
  </g>
  <g transform="matrix(1 0 0 1 281.867 1933)">
   <path d="M11.709 2.91016Q13.75 2.91016 15.5518 2.12891Q17.3535 1.34766 18.7305-0.0292969Q20.1074-1.40625 20.8887-3.20801Q21.6699-5.00977 21.6699-7.05078Q21.6699-9.0918 20.8887-10.8936Q20.1074-12.6953 18.7305-14.0723Q17.3535-15.4492 15.5469-16.2305Q13.7402-17.0117 11.6992-17.0117Q9.6582-17.0117 7.85645-16.2305Q6.05469-15.4492 4.68262-14.0723Q3.31055-12.6953 2.5293-10.8936Q1.74805-9.0918 1.74805-7.05078Q1.74805-5.00977 2.5293-3.20801Q3.31055-1.40625 4.6875-0.0292969Q6.06445 1.34766 7.86621 2.12891Q9.66797 2.91016 11.709 2.91016ZM11.709 1.25Q9.98047 1.25 8.47656 0.605469Q6.97266-0.0390625 5.83496-1.17676Q4.69727-2.31445 4.05762-3.81836Q3.41797-5.32227 3.41797-7.05078Q3.41797-8.7793 4.05762-10.2832Q4.69727-11.7871 5.83008-12.9297Q6.96289-14.0723 8.4668-14.7119Q9.9707-15.3516 11.6992-15.3516Q13.4277-15.3516 14.9316-14.7119Q16.4355-14.0723 17.5781-12.9297Q18.7207-11.7871 19.3652-10.2832Q20.0098-8.7793 20.0098-7.05078Q20.0098-5.32227 19.3701-3.81836Q18.7305-2.31445 17.5928-1.17676Q16.4551-0.0390625 14.9463 0.605469Q13.4375 1.25 11.709 1.25ZM7.17773-7.05078Q7.17773-6.69922 7.41211-6.47461Q7.64648-6.25 8.01758-6.25L10.8887-6.25L10.8887-3.36914Q10.8887-2.99805 11.1133-2.76855Q11.3379-2.53906 11.6895-2.53906Q12.0605-2.53906 12.29-2.76855Q12.5195-2.99805 12.5195-3.36914L12.5195-6.25L15.4004-6.25Q15.7715-6.25 16.001-6.47461Q16.2305-6.69922 16.2305-7.05078Q16.2305-7.42188 16.001-7.65137Q15.7715-7.88086 15.4004-7.88086L12.5195-7.88086L12.5195-10.752Q12.5195-11.1328 12.29-11.3623Q12.0605-11.5918 11.6895-11.5918Q11.3379-11.5918 11.1133-11.3574Q10.8887-11.123 10.8887-10.752L10.8887-7.88086L8.01758-7.88086Q7.63672-7.88086 7.40723-7.65137Q7.17773-7.42188 7.17773-7.05078Z"/>
  </g>
  <g transform="matrix(1 0 0 1 305.646 1933)">
   <path d="M14.9707 5.66406Q17.0605 5.66406 18.96 5.01465Q20.8594 4.36523 22.4512 3.19336Q24.043 2.02148 25.2197 0.429688Q26.3965-1.16211 27.0459-3.06641Q27.6953-4.9707 27.6953-7.05078Q27.6953-9.14062 27.0459-11.04Q26.3965-12.9395 25.2197-14.5312Q24.043-16.123 22.4512-17.2998Q20.8594-18.4766 18.9551-19.126Q17.0508-19.7754 14.9609-19.7754Q12.8711-19.7754 10.9717-19.126Q9.07227-18.4766 7.48535-17.2998Q5.89844-16.123 4.72168-14.5312Q3.54492-12.9395 2.90039-11.04Q2.25586-9.14062 2.25586-7.05078Q2.25586-4.9707 2.90527-3.06641Q3.55469-1.16211 4.72656 0.429688Q5.89844 2.02148 7.49023 3.19336Q9.08203 4.36523 10.9814 5.01465Q12.8809 5.66406 14.9707 5.66406ZM14.9707 3.84766Q13.1641 3.84766 11.5283 3.2959Q9.89258 2.74414 8.53516 1.74805Q7.17773 0.751953 6.17676-0.610352Q5.17578-1.97266 4.62891-3.6084Q4.08203-5.24414 4.08203-7.05078Q4.08203-8.86719 4.62891-10.5029Q5.17578-12.1387 6.17188-13.501Q7.16797-14.8633 8.52539-15.8594Q9.88281-16.8555 11.5186-17.4023Q13.1543-17.9492 14.9609-17.9492Q16.7773-17.9492 18.4131-17.4023Q20.0488-16.8555 21.4111-15.8594Q22.7734-14.8633 23.7695-13.501Q24.7656-12.1387 25.3174-10.5029Q25.8691-8.86719 25.8691-7.05078Q25.8789-5.24414 25.332-3.6084Q24.7852-1.97266 23.7842-0.610352Q22.7832 0.751953 21.4209 1.74805Q20.0586 2.74414 18.4229 3.2959Q16.7871 3.84766 14.9707 3.84766ZM9.19922-7.05078Q9.19922-6.66992 9.45801-6.4209Q9.7168-6.17188 10.1172-6.17188L14.0625-6.17188L14.0625-2.2168Q14.0625-1.81641 14.3115-1.55762Q14.5605-1.29883 14.9512-1.29883Q15.3516-1.29883 15.6104-1.55273Q15.8691-1.80664 15.8691-2.2168L15.8691-6.17188L19.8242-6.17188Q20.2246-6.17188 20.4785-6.4209Q20.7324-6.66992 20.7324-7.05078Q20.7324-7.46094 20.4785-7.71484Q20.2246-7.96875 19.8242-7.96875L15.8691-7.96875L15.8691-11.9141Q15.8691-12.3242 15.6104-12.583Q15.3516-12.8418 14.9512-12.8418Q14.5605-12.8418 14.3115-12.583Q14.0625-12.3242 14.0625-11.9141L14.0625-7.96875L10.1172-7.96875Q9.70703-7.96875 9.45312-7.71484Q9.19922-7.46094 9.19922-7.05078Z"/>
  </g>
  <text style="stroke:none;fill:black;font-family:sans-serif;font-size:13;font-weight:bold;" transform="matrix(1 0 0 1 263 1953)">Design Variations</text>
  <text style="stroke:none;fill:black;font-family:sans-serif;font-size:13;" transform="matrix(1 0 0 1 263 1971)">Symbols are supported in up to nine weights and three scales.</text>
  <text style="stroke:none;fill:black;font-family:sans-serif;font-size:13;" transform="matrix(1 0 0 1 263 1989)">For optimal layout with text and other symbols, vertically align</text>
  <text style="stroke:none;fill:black;font-family:sans-serif;font-size:13;" transform="matrix(1 0 0 1 263 2007)">symbols with the adjacent text.</text>
  <line style="fill:none;stroke:#00AEEF;stroke-width:0.5;opacity:1.0;" x1="776" x2="776" y1="1919" y2="1933"/>
  <g transform="matrix(1 0 0 1 776 1933)">
   <path d="M3.31055 0.15625Q3.70117 0.15625 3.91602-0.00976562Q4.13086-0.175781 4.26758-0.585938L5.52734-4.0332L11.2891-4.0332L12.5488-0.585938Q12.6855-0.175781 12.9004-0.00976562Q13.1152 0.15625 13.4961 0.15625Q13.8867 0.15625 14.1162-0.0585938Q14.3457-0.273438 14.3457-0.644531Q14.3457-0.869141 14.2383-1.17188L9.6582-13.3691Q9.48242-13.8184 9.17969-14.043Q8.87695-14.2676 8.4082-14.2676Q7.5-14.2676 7.17773-13.3789L2.59766-1.16211Q2.49023-0.859375 2.49023-0.634766Q2.49023-0.263672 2.70996-0.0537109Q2.92969 0.15625 3.31055 0.15625ZM6.00586-5.51758L8.37891-12.0898L8.42773-12.0898L10.8008-5.51758Z"/>
  </g>
  <line style="fill:none;stroke:#00AEEF;stroke-width:0.5;opacity:1.0;" x1="793.197" x2="793.197" y1="1919" y2="1933"/>
  <text style="stroke:none;fill:black;font-family:sans-serif;font-size:13;font-weight:bold;" transform="matrix(1 0 0 1 776 1953)">Margins</text>
  <text style="stroke:none;fill:black;font-family:sans-serif;font-size:13;" transform="matrix(1 0 0 1 776 1971)">Leading and trailing margins on the left and right side of each symbol</text>
  <text style="stroke:none;fill:black;font-family:sans-serif;font-size:13;" transform="matrix(1 0 0 1 776 1989)">can be adjusted by modifying the x-location of the margin guidelines.</text>
  <text style="stroke:none;fill:black;font-family:sans-serif;font-size:13;" transform="matrix(1 0 0 1 776 2007)">Modifications are automatically applied proportionally to all</text>
  <text style="stroke:none;fill:black;font-family:sans-serif;font-size:13;" transform="matrix(1 0 0 1 776 2025)">scales and weights.</text>
  <g transform="matrix(1 0 0 1 1289 1933)">
   <path d="M2.8418 1.86523L4.54102 3.57422Q5.18555 4.22852 5.90332 4.17969Q6.62109 4.13086 7.31445 3.35938L18.0078-8.42773L17.041-9.4043L6.42578 2.27539Q6.16211 2.57812 5.89355 2.61719Q5.625 2.65625 5.27344 2.30469L4.10156 1.14258Q3.75 0.791016 3.79395 0.522461Q3.83789 0.253906 4.14062-0.0195312L15.6152-10.8203L14.6387-11.7871L3.04688-0.898438Q2.30469-0.214844 2.25098 0.498047Q2.19727 1.21094 2.8418 1.86523ZM9.25781-16.3281Q8.94531-16.0254 8.90625-15.6348Q8.86719-15.2441 9.04297-14.9512Q9.21875-14.6777 9.55566-14.541Q9.89258-14.4043 10.3809-14.5215Q11.4746-14.7754 12.5977-14.7314Q13.7207-14.6875 14.7949-13.9844L14.209-12.5293Q13.9551-11.9043 14.0674-11.4404Q14.1797-10.9766 14.5801-10.5664L16.875-8.25195Q17.2363-7.88086 17.5781-7.82227Q17.9199-7.76367 18.3398-7.8418L19.4043-8.03711L20.0684-7.36328L20.0293-6.80664Q20-6.43555 20.1221-6.12305Q20.2441-5.81055 20.6055-5.44922L21.3672-4.70703Q21.7285-4.3457 22.1533-4.33105Q22.5781-4.31641 22.9297-4.66797L25.8398-7.58789Q26.1914-7.93945 26.1816-8.35449Q26.1719-8.76953 25.8105-9.13086L25.0391-9.89258Q24.6875-10.2539 24.3799-10.3857Q24.0723-10.5176 23.7109-10.4883L23.1348-10.4395L22.4902-11.0742L22.7344-12.1973Q22.832-12.6172 22.6953-12.9834Q22.5586-13.3496 22.1191-13.7891L19.9219-15.9766Q18.6719-17.2168 17.2607-17.8369Q15.8496-18.457 14.4189-18.4814Q12.9883-18.5059 11.665-17.959Q10.3418-17.4121 9.25781-16.3281ZM10.752-15.957Q11.6602-16.6211 12.7002-16.9043Q13.7402-17.1875 14.8047-17.085Q15.8691-16.9824 16.8701-16.5137Q17.8711-16.0449 18.7012-15.2051L21.1328-12.793Q21.3086-12.6172 21.3525-12.4512Q21.3965-12.2852 21.3379-12.0312L21.0156-10.5469L22.5195-9.0625L23.5059-9.12109Q23.6914-9.13086 23.7891-9.09668Q23.8867-9.0625 24.0332-8.91602L24.6094-8.33984L22.168-5.89844L21.5918-6.47461Q21.4453-6.62109 21.4062-6.71875Q21.3672-6.81641 21.377-7.01172L21.4453-7.98828L19.9512-9.47266L18.4277-9.21875Q18.1836-9.16992 18.042-9.2041Q17.9004-9.23828 17.7148-9.41406L15.7129-11.416Q15.5176-11.5918 15.4932-11.7529Q15.4688-11.9141 15.5859-12.1875L16.4648-14.2773Q15.293-15.3711 13.8281-15.791Q12.3633-16.2109 10.8398-15.7617Q10.7227-15.7324 10.6885-15.8057Q10.6543-15.8789 10.752-15.957Z"/>
  </g>
  <text style="stroke:none;fill:black;font-family:sans-serif;font-size:13;font-weight:bold;" transform="matrix(1 0 0 1 1289 1953)">Exporting</text>
  <text style="stroke:none;fill:black;font-family:sans-serif;font-size:13;" transform="matrix(1 0 0 1 1289 1971)">Symbols should be outlined when exporting to ensure the</text>
  <text style="stroke:none;fill:black;font-family:sans-serif;font-size:13;" transform="matrix(1 0 0 1 1289 1989)">design is preserved when submitting to Xcode.</text>
  <text id="template-version" style="stroke:none;fill:black;font-family:sans-serif;font-size:13;text-anchor:end;" transform="matrix(1 0 0 1 3036 1933)">Template v.2.0</text>
  <text style="stroke:none;fill:black;font-family:sans-serif;font-size:13;text-anchor:end;" transform="matrix(1 0 0 1 3036 1951)">Requires Xcode 12 or greater</text>
  <text id="descriptive-name" style="stroke:none;fill:black;font-family:sans-serif;font-size:13;text-anchor:end;" transform="matrix(1 0 0 1 3036 1969)">Generated from music.note.house</text>
  <text style="stroke:none;fill:black;font-family:sans-serif;font-size:13;text-anchor:end;" transform="matrix(1 0 0 1 3036 1987)">Typeset at 100 points</text>
  <text style="stroke:none;fill:black;font-family:sans-serif;font-size:13;" transform="matrix(1 0 0 1 263 726)">Small</text>
  <text style="stroke:none;fill:black;font-family:sans-serif;font-size:13;" transform="matrix(1 0 0 1 263 1156)">Medium</text>
  <text style="stroke:none;fill:black;font-family:sans-serif;font-size:13;" transform="matrix(1 0 0 1 263 1586)">Large</text>
 </g>
 <g id="Guides">
  <g id="H-reference" style="fill:#27AAE1;stroke:none;" transform="matrix(1 0 0 1 339 696)">
   <path d="M0.993347 0L3.6377 0L29.3282-67.1326L30.0301-67.1326L30.0301-70.459L28.1227-70.459ZM11.6882-24.4797L46.9818-24.4797L46.2311-26.7288L12.4382-26.7288ZM55.1193 0L57.7637 0L30.6381-70.459L29.4327-70.459L29.4327-67.1326Z"/>
  </g>
  <line id="Baseline-S" style="fill:none;stroke:#27AAE1;opacity:1;stroke-width:0.5;" x1="263" x2="3036" y1="696" y2="696"/>
  <line id="Capline-S" style="fill:none;stroke:#27AAE1;opacity:1;stroke-width:0.5;" x1="263" x2="3036" y1="625.541" y2="625.541"/>
  <g id="H-reference" style="fill:#27AAE1;stroke:none;" transform="matrix(1 0 0 1 339 1126)">
   <path d="M0.993347 0L3.6377 0L29.3282-67.1326L30.0301-67.1326L30.0301-70.459L28.1227-70.459ZM11.6882-24.4797L46.9818-24.4797L46.2311-26.7288L12.4382-26.7288ZM55.1193 0L57.7637 0L30.6381-70.459L29.4327-70.459L29.4327-67.1326Z"/>
  </g>
  <line id="Baseline-M" style="fill:none;stroke:#27AAE1;opacity:1;stroke-width:0.5;" x1="263" x2="3036" y1="1126" y2="1126"/>
  <line id="Capline-M" style="fill:none;stroke:#27AAE1;opacity:1;stroke-width:0.5;" x1="263" x2="3036" y1="1055.54" y2="1055.54"/>
  <g id="H-reference" style="fill:#27AAE1;stroke:none;" transform="matrix(1 0 0 1 339 1556)">
   <path d="M0.993347 0L3.6377 0L29.3282-67.1326L30.0301-67.1326L30.0301-70.459L28.1227-70.459ZM11.6882-24.4797L46.9818-24.4797L46.2311-26.7288L12.4382-26.7288ZM55.1193 0L57.7637 0L30.6381-70.459L29.4327-70.459L29.4327-67.1326Z"/>
  </g>
  <line id="Baseline-L" style="fill:none;stroke:#27AAE1;opacity:1;stroke-width:0.5;" x1="263" x2="3036" y1="1556" y2="1556"/>
  <line id="Capline-L" style="fill:none;stroke:#27AAE1;opacity:1;stroke-width:0.5;" x1="263" x2="3036" y1="1485.54" y2="1485.54"/>
  <line id="left-margin" style="fill:none;stroke:#00AEEF;stroke-width:0.5;opacity:1.0;" x1="1379.13" x2="1379.13" y1="1030.79" y2="1150.12"/>
  <line id="right-margin" style="fill:none;stroke:#00AEEF;stroke-width:0.5;opacity:1.0;" x1="1520.56" x2="1520.56" y1="1030.79" y2="1150.12"/>
 </g>
 <g id="Symbols">
  <g id="Black-L" transform="matrix(1 0 0 1 2834.53 1556)">
   <path d="M56.1642 30.9089L141.453 30.9089Q150.121 30.9089 155.035 26.1012Q159.95 21.2934 159.95 13.1388L159.95-57.355L139.97-71.0724L139.97 5.29181Q139.97 10.9285 134.376 10.9285L63.2223 10.9285Q57.6491 10.9285 57.6491 5.29181L57.6491-71.0699L37.6466-57.355L37.6466 13.1388Q37.6466 21.3154 42.5627 26.1122Q47.4788 30.9089 56.1642 30.9089ZM16.084-43.6704Q16.084-39.517 18.8237-36.8624Q21.5633-34.2078 26.0824-34.2078Q28.0609-34.2078 30.0513-35.0686Q32.0416-35.9294 33.7984-37.389L94.7333-88.4869Q98.8813-92.02 103.147-88.4869L163.962-37.389Q165.717-35.9294 167.718-35.0686Q169.719-34.2078 171.697-34.2078Q176.15-34.2078 178.902-36.7788Q181.654-39.3499 181.654-43.6082Q181.654-48.383 177.633-51.7345L112.043-106.842Q106.12-111.833 98.9404-111.833Q91.7609-111.833 85.8588-106.842L20.1258-51.6761Q16.084-48.3245 16.084-43.6704ZM135.254-81.5026L159.95-60.9L159.95-95.7709Q159.95-100.831 154.889-100.831L140.395-100.831Q138.083-100.831 136.669-99.4465Q135.254-98.0617 135.254-95.7709ZM118.918-39.7441Q121.597-40.3642 122.536-41.5207Q123.476-42.6773 123.476-45.5465L123.476-57.9117Q123.476-60.2832 122.244-61.1328Q121.013-61.9825 118.326-61.3404L99.9918-56.785Q97.3701-56.1442 96.4926-55.0273Q95.615-53.9103 95.615-50.9022L95.615-25.8603Q95.615-24.042 95.2091-23.5823Q94.8031-23.1226 92.7812-22.5961L87.2039-21.1252Q82.146-19.8047 79.1693-16.8134Q76.1926-13.8221 76.1926-9.32119Q76.1926-4.97057 79.287-2.19404Q82.3814 0.582493 87.2767 0.582493Q94.3188 0.582493 98.7362-3.97042Q103.154-8.52334 103.154-15.6458L103.154-33.8105Q103.154-35.2267 103.43-35.6455Q103.706-36.0644 104.458-36.2472Z"/>
  </g>
  <g id="Heavy-L" transform="matrix(1 0 0 1 2539.78 1556)">
   <path d="M54.2015 29.629L139.451 29.629Q147.633 29.629 152.245 25.108Q156.857 20.587 156.857 12.8397L156.857-57.446L139.359-69.4449L139.359 6.27881Q139.359 12.1311 133.572 12.1311L60.0572 12.1311Q54.3002 12.1311 54.3002 6.27881L54.3002-69.4328L36.7665-57.446L36.7665 12.8397Q36.7665 20.6228 41.3842 25.1259Q46.0019 29.629 54.2015 29.629ZM16.084-43.8881Q16.084-40.2845 18.4929-37.9171Q20.9018-35.5498 24.9253-35.5498Q26.7318-35.5498 28.4859-36.3429Q30.2401-37.136 31.8025-38.4246L93.2176-89.9479Q96.9306-93.1102 100.739-89.9479L162.047-38.4246Q163.603-37.136 165.372-36.3429Q167.141-35.5498 168.948-35.5498Q172.837-35.5498 175.283-37.7951Q177.729-40.0403 177.729-43.7988Q177.729-48.0365 174.221-50.9679L108.736-105.999Q103.39-110.497 96.9783-110.497Q90.5668-110.497 85.2503-105.999L19.6225-50.9233Q16.084-47.9919 16.084-43.8881ZM134.414-79.2725L156.857-60.5023L156.857-94.0167Q156.857-98.8928 151.975-98.8928L139.37-98.8928Q137.135-98.8928 135.774-97.5577Q134.414-96.2226 134.414-94.0167ZM116.364-39.9471Q118.945-40.5486 119.86-41.6429Q120.774-42.7371 120.774-45.5784L120.774-57.9256Q120.774-60.1588 119.636-60.9806Q118.499-61.8025 115.855-61.1652L97.5121-56.6207Q94.9688-55.9894 94.1307-54.9323Q93.2925-53.8752 93.2925-50.909L93.2925-24.9825Q93.2925-23.091 92.8591-22.574Q92.4256-22.0571 90.3077-21.503L84.6661-20.0136Q79.7884-18.7301 76.7803-15.8222Q73.7722-12.9143 73.7722-8.39628Q73.7722-4.11075 76.7993-1.37389Q79.8265 1.36297 84.6838 1.36297Q91.6646 1.36297 96.0139-3.14292Q100.363-7.64881 100.363-14.71L100.363-33.8081Q100.363-35.2975 100.68-35.7712Q100.998-36.2449 101.814-36.4416Z"/>
  </g>
  <g id="Bold-L" transform="matrix(1 0 0 1 2245.57 1556)">
   <path d="M51.7355 28.1483L136.892 28.1483Q144.48 28.1483 148.71 23.9841Q152.941 19.8199 152.941 12.5828L152.941-57.4441L138.505-67.3479L138.505 7.53833Q138.505 13.7125 132.42 13.7125L56.1856 13.7125Q50.1366 13.7125 50.1366 7.53833L50.1366-67.3195L35.6496-57.4441L35.6496 12.5828Q35.6496 19.8711 39.8946 24.0097Q44.1396 28.1483 51.7355 28.1483ZM16.084-44.1632Q16.084-41.2323 18.0812-39.2309Q20.0784-37.2295 23.4725-37.2295Q25.0492-37.2295 26.5046-37.9267Q27.9601-38.6239 29.2791-39.701L91.1881-91.6657Q94.4434-94.4391 97.7713-91.6657L159.579-39.701Q160.884-38.6239 162.358-37.9267Q163.832-37.2295 165.409-37.2295Q168.61-37.2295 170.667-39.0758Q172.723-40.9221 172.723-44.0522Q172.723-47.6144 169.831-50.0384L104.637-104.846Q99.9759-108.76 94.4797-108.76Q88.9835-108.76 84.3594-104.846L19.0134-50.0092Q16.084-47.5852 16.084-44.1632ZM133.306-76.4037L152.941-59.9251L152.941-91.9019Q152.941-96.4769 148.352-96.4769L137.962-96.4769Q135.857-96.4769 134.582-95.2232Q133.306-93.9695 133.306-91.9019ZM113.086-40.1885Q115.551-40.7664 116.429-41.7867Q117.307-42.807 117.307-45.6082L117.307-57.8577Q117.307-59.9275 116.283-60.714Q115.259-61.5004 112.67-60.8713L94.4215-56.3706Q91.9718-55.7557 91.185-54.7685Q90.3981-53.7813 90.3981-50.8704L90.3981-23.9114Q90.3981-21.9437 89.9338-21.3656Q89.4695-20.7874 87.2528-20.2025L81.5424-18.6895Q76.8834-17.4532 73.8545-14.6516Q70.8257-11.8499 70.8257-7.33573Q70.8257-3.13741 73.7661-0.456443Q76.7065 2.22452 81.4983 2.22452Q88.3818 2.22452 92.626-2.20861Q96.8703-6.64175 96.8703-13.6056L96.8703-33.8456Q96.8703-35.4112 97.2292-35.942Q97.5882-36.4728 98.4734-36.6849Z"/>
  </g>
  <g id="Semibold-L" transform="matrix(1 0 0 1 1950.59 1556)">
   <path d="M50.0354 27.1275L135.128 27.1275Q142.306 27.1275 146.274 23.2093Q150.242 19.2911 150.242 12.4058L150.242-57.4428L137.917-65.9023L137.917 8.40663Q137.917 14.8027 131.625 14.8027L53.5165 14.8027Q47.2662 14.8027 47.2662 8.40663L47.2662-65.8626L34.8796-57.4428L34.8796 12.4058Q34.8796 19.3529 38.8677 23.2402Q42.8557 27.1275 50.0354 27.1275ZM16.084-44.3529Q16.084-41.8856 17.7973-40.1366Q19.5107-38.3875 22.471-38.3875Q23.8892-38.3875 25.1387-39.0186Q26.3882-39.6497 27.5395-40.5809L89.789-92.8499Q92.7287-95.3552 95.7254-92.8499L157.878-40.5809Q159.01-39.6497 160.28-39.0186Q161.551-38.3875 162.969-38.3875Q165.696-38.3875 167.484-39.9587Q169.272-41.53 169.272-44.227Q169.272-47.3234 166.804-49.3976L101.811-104.051Q97.6225-107.563 92.7572-107.563Q87.892-107.563 83.7452-104.051L18.5936-49.3791Q16.084-47.3048 16.084-44.3529ZM132.543-74.4259L150.242-59.5272L150.242-90.444Q150.242-94.8114 145.855-94.8114L136.991-94.8114Q134.977-94.8114 133.76-93.6138Q132.543-92.4162 132.543-90.444ZM110.827-40.3549Q113.211-40.9165 114.064-41.8859Q114.918-42.8552 114.918-45.6288L114.918-57.8109Q114.918-59.7681 113.971-60.5301Q113.025-61.2921 110.474-60.6687L92.291-56.1982Q89.9057-55.5946 89.1542-54.6556Q88.4028-53.7165 88.4028-50.8439L88.4028-23.1729Q88.4028-21.1528 87.9172-20.5325Q87.4316-19.9121 85.1468-19.3059L79.3889-17.7766Q74.8807-16.5729 71.8376-13.8445Q68.7944-11.1161 68.7944-6.60459Q68.7944-2.4664 71.6751 0.176042Q74.5557 2.81848 79.3023 2.81848Q86.1187 2.81848 90.2905-1.5645Q94.4623-5.94748 94.4623-12.8443L94.4623-33.8715Q94.4623-35.4896 94.85-36.0598Q95.2377-36.63 96.1704-36.8526Z"/>
  </g>
  <g id="Medium-L" transform="matrix(1 0 0 1 1655.18 1556)">
   <path d="M48.7463 26.3535L133.791 26.3535Q140.657 26.3535 144.426 22.6218Q148.195 18.8901 148.195 12.2715L148.195-57.4418L137.471-64.8062L137.471 9.06502Q137.471 15.6293 131.023 15.6293L51.4927 15.6293Q45.0898 15.6293 45.0898 9.06502L45.0898-64.7579L34.2958-57.4418L34.2958 12.2715Q34.2958 18.96 38.089 22.6567Q41.8822 26.3535 48.7463 26.3535ZM16.084-44.4967Q16.084-42.3811 17.5821-40.8233Q19.0802-39.2655 21.7116-39.2655Q23.0097-39.2655 24.103-39.8465Q25.1964-40.4274 26.2205-41.2481L88.7281-93.7479Q91.4286-96.0499 94.1742-93.7479L156.588-41.2481Q157.588-40.4274 158.705-39.8465Q159.821-39.2655 161.119-39.2655Q163.486-39.2655 165.071-40.6282Q166.655-41.9909 166.655-44.3594Q166.655-47.1028 164.509-48.9118L99.6685-103.448Q95.838-106.655 91.4512-106.655Q87.0643-106.655 83.2795-103.448L18.2752-48.9013Q16.084-47.0923 16.084-44.4967ZM131.964-72.9263L148.195-59.2255L148.195-89.3385Q148.195-93.5485 143.961-93.5485L136.255-93.5485Q134.309-93.5485 133.137-92.3935Q131.964-91.2385 131.964-89.3385ZM109.114-40.4811Q111.436-41.0304 112.271-41.961Q113.106-42.8917 113.106-45.6444L113.106-57.7754Q113.106-59.6472 112.219-60.3907Q111.331-61.1342 108.809-60.515L90.6755-56.0675Q88.339-55.4724 87.6144-54.5699Q86.8898-53.6674 86.8898-50.8237L86.8898-22.613Q86.8898-20.5531 86.3881-19.9008Q85.8864-19.2485 83.5499-18.6261L77.756-17.0845Q73.3622-15.9055 70.3082-13.2326Q67.2542-10.5597 67.2542-6.05021Q67.2542-1.9576 70.0895 0.655618Q72.9248 3.26884 77.6372 3.26884Q84.4027 3.26884 88.5196-1.07611Q92.6365-5.42106 92.6365-12.267L92.6365-33.8912Q92.6365-35.549 93.046-36.1491Q93.4555-36.7491 94.4242-36.9798Z"/>
  </g>
  <g id="Regular-L" transform="matrix(1 0 0 1 1360.18 1556)">
   <path d="M47.0649 25.3439L132.046 25.3439Q138.507 25.3439 142.016 21.8555Q145.526 18.367 145.526 12.0964L145.526-57.4405L136.889-63.3765L136.889 9.92378Q136.889 16.7075 130.237 16.7075L48.853 16.7075Q42.251 16.7075 42.251 9.92378L42.251-63.317L33.5343-57.4405L33.5343 12.0964Q33.5343 18.4475 37.0734 21.8957Q40.6125 25.3439 47.0649 25.3439ZM16.084-44.6843Q16.084-43.0273 17.3014-41.719Q18.5188-40.4107 20.7211-40.4107Q21.8625-40.4107 22.7521-40.9263Q23.6418-41.4419 24.5-42.1184L87.3444-94.9191Q89.7327-96.956 92.1508-94.9191L154.906-42.1184Q155.734-41.4419 156.649-40.9263Q157.564-40.4107 158.706-40.4107Q160.604-40.4107 161.923-41.5014Q163.242-42.5921 163.242-44.5322Q163.242-46.815 161.516-48.278L96.8738-102.662Q93.5104-105.471 89.7476-105.471Q85.9848-105.471 82.6721-102.662L17.8599-48.278Q16.084-46.815 16.084-44.6843ZM131.209-70.9703L145.526-58.8319L145.526-87.8966Q145.526-91.9012 141.491-91.9012L135.294-91.9012Q133.438-91.9012 132.324-90.8018Q131.209-89.7023 131.209-87.8966ZM106.879-40.6457Q109.122-41.1789 109.932-42.0591Q110.742-42.9393 110.742-45.6648L110.742-57.7291Q110.742-59.4895 109.932-60.2089Q109.122-60.9283 106.638-60.3146L88.5683-55.897Q86.2956-55.3131 85.606-54.4582Q84.9163-53.6034 84.9163-50.7974L84.9163-21.8827Q84.9163-19.7709 84.3936-19.0768Q83.8709-18.3828 81.4671-17.7394L75.6261-16.1817Q71.3815-15.0349 68.3134-12.4344Q65.2453-9.83397 65.2453-5.3271Q65.2453-1.29396 68.0214 1.28115Q70.7976 3.85627 75.4653 3.85627Q82.1645 3.85627 86.2097-0.43908Q90.255-4.73443 90.255-11.514L90.255-33.9168Q90.255-35.6266 90.6929-36.2655Q91.1309-36.9045 92.1466-37.1457Z"/>
  </g>
  <g id="Light-L" transform="matrix(1 0 0 1 1065.66 1556)">
   <path d="M45.1359 24.995L129.768 24.995Q135.86 24.995 139.071 21.7631Q142.283 18.5312 142.283 12.6505L142.283-56.7017L135.679-61.4064L135.679 11.032Q135.679 18.3903 128.431 18.3903L46.493 18.3903Q39.2754 18.3903 39.2754 11.032L39.2754-61.3058L32.5903-56.7017L32.5903 12.6505Q32.5903 18.6116 35.8523 21.8033Q39.1144 24.995 45.1359 24.995ZM16.084-44.91Q16.084-43.6635 17.0038-42.6733Q17.9236-41.6831 19.5924-41.6831Q20.467-41.6831 21.1104-42.055Q21.7538-42.427 22.4273-42.9598L84.9639-95.5142Q87.5574-97.7358 90.2012-95.5142L152.587-42.9598Q153.21-42.427 153.869-42.055Q154.527-41.6831 155.402-41.6831Q156.89-41.6831 157.87-42.5275Q158.85-43.3719 158.85-44.8195Q158.85-46.5687 157.432-47.765L94.0212-101.164Q90.9451-103.747 87.5825-103.747Q84.2199-103.747 81.174-101.164L17.5316-47.765Q16.084-46.5687 16.084-44.91ZM130.019-68.3024L142.283-57.8879L142.283-86.8089Q142.283-90.1364 138.906-90.1364L133.427-90.1364Q131.899-90.1364 130.959-89.2216Q130.019-88.3068 130.019-86.8089ZM103.883-40.7483Q106.064-41.261 106.823-42.1104Q107.582-42.9599 107.582-45.6238L107.582-57.1339Q107.582-58.8328 106.823-59.5214Q106.064-60.21 103.641-59.6169L86.3109-55.425Q84.0792-54.8822 83.4409-54.0478Q82.8026-53.2134 82.8026-50.4691L82.8026-21.2465Q82.8026-19.1757 82.2798-18.5022Q81.7571-17.8287 79.4149-17.1853L73.5945-15.6071Q69.4729-14.5013 66.5074-11.9932Q63.5419-9.4851 63.5419-5.14241Q63.5419-1.21187 66.236 1.28115Q68.9301 3.77418 73.4336 3.77418Q79.9276 3.77418 83.7676-0.377514Q87.6077-4.52921 87.6077-11.1036L87.6077-34.2041Q87.6077-35.8728 88.0148-36.481Q88.422-37.0892 89.4172-37.3304Z"/>
  </g>
  <g id="Thin-L" transform="matrix(1 0 0 1 771.856 1556)">
   <path d="M42.5845 24.5336L126.755 24.5336Q132.358 24.5336 135.177 21.641Q137.995 18.7483 137.995 13.3833L137.995-55.7246L134.077-58.8007L134.077 12.4976Q134.077 20.616 126.042 20.616L43.3717 20.616Q35.3398 20.616 35.3398 12.4976L35.3398-58.6459L31.3417-55.7246L31.3417 13.3833Q31.3417 18.8288 34.2374 21.6812Q37.133 24.5336 42.5845 24.5336ZM16.084-45.2086Q16.084-44.5049 16.6103-43.9354Q17.1365-43.3659 18.0996-43.3659Q18.6213-43.3659 18.939-43.5478Q19.2567-43.7298 19.686-44.0726L81.8154-96.3013Q84.6803-98.7672 87.6227-96.3013L149.52-44.0726Q149.872-43.7298 150.191-43.5478Q150.51-43.3659 151.032-43.3659Q151.977-43.3659 152.509-43.8846Q153.041-44.4033 153.041-45.1995Q153.041-46.243 152.031-47.0864L90.2485-99.1826Q87.5524-101.468 84.719-101.468Q81.8857-101.468 79.1926-99.1826L17.0973-47.0864Q16.084-46.243 16.084-45.2086ZM128.445-64.774L137.995-56.6394L137.995-85.3704Q137.995-87.8021 135.486-87.8021L130.957-87.8021Q129.863-87.8021 129.154-87.1316Q128.445-86.4611 128.445-85.3704ZM99.92-40.884Q102.02-41.3695 102.711-42.1783Q103.402-42.987 103.402-45.5695L103.402-56.3468Q103.402-57.9643 102.711-58.6121Q102.02-59.26 99.6787-58.6941L83.3253-54.8007Q81.1479-54.3122 80.5774-53.505Q80.0069-52.6977 80.0069-50.0348L80.0069-20.4051Q80.0069-18.3886 79.4842-17.7422Q78.9615-17.0959 76.7007-16.4525L70.9074-14.8471Q66.9487-13.7956 64.119-11.4096Q61.2892-9.02368 61.2892-4.89813Q61.2892-1.10331 63.8747 1.28115Q66.4602 3.66561 70.7466 3.66561Q76.9691 3.66561 80.5377-0.296088Q84.1064-4.25779 84.1064-10.5607L84.1064-34.5841Q84.1064-36.1985 84.4728-36.766Q84.8392-37.3335 85.8073-37.5747Z"/>
  </g>
  <g id="Ultralight-L" transform="matrix(1 0 0 1 476.631 1556)">
   <path d="M41.2777 24.2973L125.212 24.2973Q130.565 24.2973 133.182 21.5784Q135.798 18.8596 135.798 13.7587L135.798-55.2241L133.257-57.4661L133.257 13.2483Q133.257 21.7559 124.819 21.7559L41.7729 21.7559Q33.324 21.7559 33.324 13.2483L33.324-57.2835L30.7022-55.2241L30.7022 13.7587Q30.7022 18.94 33.4102 21.6186Q36.1182 24.2973 41.2777 24.2973ZM16.084-45.3615Q16.084-44.9358 16.4087-44.5818Q16.7334-44.2278 17.335-44.2278Q17.676-44.2278 17.8269-44.3124Q17.9777-44.3971 18.2819-44.6426L80.2028-96.7045Q83.2067-99.2955 86.302-96.7045L147.949-44.6426Q148.162-44.3971 148.307-44.3124Q148.453-44.2278 148.794-44.2278Q149.461-44.2278 149.764-44.5797Q150.066-44.9316 150.066-45.3942Q150.066-46.0762 149.265-46.7389L88.3161-98.1677Q85.8146-100.3 83.2524-100.3Q80.6901-100.3 78.1778-98.1677L16.8749-46.7389Q16.084-46.0762 16.084-45.3615ZM127.638-62.9667L135.798-55.9999L135.798-84.6336Q135.798-86.6066 133.734-86.6066L129.692-86.6066Q128.821-86.6066 128.23-86.0612Q127.638-85.5158 127.638-84.6336ZM97.8903-40.9535Q99.9486-41.4252 100.605-42.213Q101.261-43.0009 101.261-45.5417L101.261-55.9436Q101.261-57.5194 100.605-58.1464Q99.9486-58.7735 97.649-58.2214L81.7961-54.481Q79.6465-54.0202 79.1108-53.2269Q78.575-52.4336 78.575-49.8124L78.575-19.9742Q78.575-17.9854 78.0523-17.353Q77.5296-16.7205 75.3105-16.0771L69.5311-14.4579Q65.6559-13.4342 62.8956-11.1108Q60.1353-8.78735 60.1353-4.77301Q60.1353-1.0477 62.6652 1.28115Q65.1951 3.61 69.3703 3.61Q75.4538 3.61 78.8834-0.254382Q82.313-4.11877 82.313-10.2827L82.313-34.7787Q82.313-36.3654 82.6586-36.912Q83.0042-37.4586 83.9583-37.6998Z"/>
  </g>
  <g id="Black-M" transform="matrix(1 0 0 1 2855.41 1126)">
   <path d="M44.9381 17.0635L111.002 17.0635Q118.084 17.0635 122.112 13.127Q126.14 9.19044 126.14 2.57554L126.14-52.1928L108.802-64.1304L108.802-4.53405Q108.802-0.2746 104.553-0.2746L51.3814-0.2746Q47.1381-0.2746 47.1381-4.53405L47.1381-64.131L29.7949-52.1928L29.7949 2.57554Q29.7949 9.19564 33.8225 13.1296Q37.8502 17.0635 44.9381 17.0635ZM12.4609-41.6126Q12.4609-37.9778 14.8274-35.7174Q17.1939-33.4569 21.0487-33.4569Q22.6932-33.4569 24.4049-34.1626Q26.1165-34.8682 27.6195-36.1266L74.374-75.3153Q77.9893-78.3961 81.7184-75.3153L128.36-36.1266Q129.863-34.8682 131.577-34.1626Q133.292-33.4569 134.936-33.4569Q138.815-33.4569 141.164-35.6955Q143.513-37.934 143.513-41.596Q143.513-45.6844 139.999-48.6059L89.2595-91.2319Q84.2143-95.4922 78.0462-95.4922Q71.8781-95.4922 66.8385-91.2319L15.9803-48.5488Q12.4609-45.6273 12.4609-41.6126ZM105.348-72.6344L126.14-55.3314L126.14-83.4936Q126.14-87.4808 122.153-87.4808L109.398-87.4808Q107.586-87.4808 106.467-86.3903Q105.348-85.2998 105.348-83.4936ZM93.9198-38.5667Q96.0702-39.0602 96.8134-40.0056Q97.5566-40.9509 97.5566-43.1896L97.5566-52.7098Q97.5566-54.6576 96.5279-55.3356Q95.4992-56.0135 93.3903-55.5148L79.2931-52.0068Q77.2002-51.5077 76.4933-50.5937Q75.7865-49.6796 75.7865-47.3216L75.7865-28.639Q75.7865-27.2987 75.4957-26.9946Q75.2049-26.6905 73.7293-26.3062L69.4663-25.1798Q65.4096-24.1305 63.1443-21.7538Q60.879-19.3771 60.879-15.9271Q60.879-12.5145 63.323-10.3404Q65.767-8.16633 69.57-8.16633Q75.0507-8.16633 78.5038-11.7146Q81.957-15.2629 81.957-20.8059L81.957-34.1712Q81.957-35.1999 82.1314-35.473Q82.3059-35.7461 82.8307-35.8759Z"/>
  </g>
  <g id="Heavy-M" transform="matrix(1 0 0 1 2560.42 1126)">
   <path d="M43.1975 15.8444L109.255 15.8444Q115.896 15.8444 119.655 12.1646Q123.415 8.48479 123.415 2.23205L123.415-52.3499L108.316-62.7211L108.316-3.67142Q108.316 0.745854 103.934 0.745854L48.505 0.745854Q44.1389 0.745854 44.1389-3.67142L44.1389-62.7162L29.0216-52.3499L29.0216 2.23205Q29.0216 8.50348 32.7831 12.174Q36.5446 15.8444 43.1975 15.8444ZM12.4609-41.8045Q12.4609-38.6694 14.5315-36.6604Q16.6021-34.6515 20.0216-34.6515Q21.5226-34.6515 23.0261-35.3042Q24.5295-35.9568 25.8596-37.0613L73.1119-76.6886Q76.283-79.39 79.5438-76.6886L126.702-37.0613Q128.029-35.9568 129.541-35.3042Q131.052-34.6515 132.553-34.6515Q135.919-34.6515 138-36.5942Q140.082-38.537 140.082-41.7558Q140.082-45.3685 137.04-47.9038L86.2902-90.5461Q81.7821-94.345 76.3279-94.345Q70.8736-94.345 66.3818-90.5461L15.5186-47.8602Q12.4609-45.3248 12.4609-41.8045ZM104.636-70.7004L123.415-55.0297L123.415-81.8792Q123.415-85.7486 119.543-85.7486L108.568-85.7486Q106.8-85.7486 105.718-84.6896Q104.636-83.6307 104.636-81.8792ZM91.6993-38.7556Q93.7606-39.2329 94.4834-40.1202Q95.2063-41.0075 95.2063-43.2245L95.2063-52.7783Q95.2063-54.5965 94.2653-55.2502Q93.3244-55.9038 91.2507-55.4079L77.0773-51.8896Q75.0572-51.3961 74.3842-50.5387Q73.7112-49.6813 73.7112-47.3584L73.7112-27.8396Q73.7112-26.424 73.3934-26.062Q73.0757-25.7 71.5006-25.2888L67.1729-24.1462Q63.2809-23.1292 60.9755-20.8256Q58.67-18.5219 58.67-15.04Q58.67-11.6815 61.0559-9.53865Q63.4417-7.39579 67.2227-7.39579Q72.6624-7.39579 76.0679-10.9114Q79.4733-14.4269 79.4733-19.9289L79.4733-34.1423Q79.4733-35.2464 79.6908-35.576Q79.9083-35.9056 80.4977-36.0489Z"/>
  </g>
  <g id="Bold-M" transform="matrix(1 0 0 1 2265.63 1126)">
   <path d="M41.2503 14.4808L107.301 14.4808Q113.45 14.4808 116.908 11.0881Q120.366 7.69543 120.366 1.84782L120.366-52.5255L107.773-61.1446L107.773-2.70645Q107.773 1.88738 103.241 1.88738L45.2873 1.88738Q40.7837 1.88738 40.7837-2.70645L40.7837-61.1335L28.1566-52.5255L28.1566 1.84782Q28.1566 7.72919 31.6203 11.105Q35.0841 14.4808 41.2503 14.4808ZM12.4609-42.0192Q12.4609-39.443 14.2006-37.7154Q15.9402-35.9877 18.8727-35.9877Q20.2131-35.9877 21.4837-36.5812Q22.7543-37.1747 23.8909-38.1069L71.7-78.2248Q74.3743-80.5017 77.1112-78.2248L124.847-38.1069Q125.978-37.1747 127.262-36.5812Q128.547-35.9877 129.888-35.9877Q132.679-35.9877 134.461-37.5997Q136.243-39.2116 136.243-41.9345Q136.243-45.015 133.73-47.1185L82.9686-89.7789Q79.0613-93.0616 74.4056-93.0616Q69.7499-93.0616 65.8709-89.7789L15.0021-47.09Q12.4609-44.9865 12.4609-42.0192ZM103.84-68.537L120.366-54.6923L120.366-80.0732Q120.366-83.811 116.623-83.811L107.64-83.811Q105.922-83.811 104.881-82.7872Q103.84-81.7634 103.84-80.0732ZM89.2154-38.9669Q91.177-39.4261 91.8771-40.2485Q92.5772-41.0709 92.5772-43.2636L92.5772-52.8549Q92.5772-54.5283 91.7343-55.1547Q90.8915-55.7811 88.8572-55.2882L74.5985-51.7586Q72.66-51.2712 72.0248-50.4772Q71.3896-49.6832 71.3896-47.3997L71.3896-26.9453Q71.3896-25.4454 71.0417-25.0187Q70.6939-24.5919 69.0074-24.1506L64.6074-22.9898Q60.8997-22.0092 58.5493-19.7872Q56.1989-17.5652 56.1989-14.0476Q56.1989-10.7497 58.5197-8.64178Q60.8405-6.53383 64.597-6.53383Q69.9908-6.53383 73.3429-10.0128Q76.695-13.4918 76.695-18.9479L76.695-34.11Q76.695-35.2983 76.9606-35.6912Q77.2262-36.084 77.8879-36.2424Z"/>
  </g>
  <g id="Semibold-M" transform="matrix(1 0 0 1 1970.24 1126)">
   <path d="M39.9079 13.5407L105.953 13.5407Q111.763 13.5407 115.014 10.346Q118.265 7.15125 118.265 1.58292L118.265-52.6467L107.398-60.0578L107.398-2.04121Q107.398 2.67434 102.763 2.67434L43.0691 2.67434Q38.4707 2.67434 38.4707-2.04121L38.4707-60.0425L27.5603-52.6467L27.5603 1.58292Q27.5603 7.1954 30.8187 10.368Q34.0772 13.5407 39.9079 13.5407ZM12.4609-42.1672Q12.4609-39.9764 13.9724-38.4427Q15.4838-36.909 18.0806-36.909Q19.3104-36.909 20.4204-37.4616Q21.5305-38.0143 22.5337-38.8277L70.7266-79.2839Q73.0584-81.2681 75.4342-79.2839L123.568-38.8277Q124.563-38.0143 125.692-37.4616Q126.82-36.909 128.05-36.909Q130.446-36.909 132.021-38.2928Q133.597-39.6767 133.597-42.0577Q133.597-44.7713 131.448-46.5771L80.6787-89.2501Q77.1856-92.1769 73.0804-92.1769Q68.9753-92.1769 65.5187-89.2501L14.6461-46.5589Q12.4609-44.7532 12.4609-42.1672ZM103.291-67.0456L118.265-54.4597L118.265-78.8281Q118.265-82.4752 114.61-82.4752L107-82.4752Q105.316-82.4752 104.303-81.4757Q103.291-80.4762 103.291-78.8281ZM87.503-39.1126Q89.3958-39.5593 90.0802-40.3369Q90.7647-41.1146 90.7647-43.2905L90.7647-52.9077Q90.7647-54.4812 89.9895-55.0889Q89.2143-55.6965 87.2071-55.2057L72.8897-51.6683Q71.0074-51.1851 70.3983-50.4348Q69.7892-49.6844 69.7892-47.4281L69.7892-26.3289Q69.7892-24.7709 69.4205-24.2995Q69.0518-23.8281 67.2886-23.3659L62.8387-22.1927Q59.2581-21.2371 56.8768-19.0714Q54.4954-16.9057 54.4954-13.3635Q54.4954-10.1074 56.7713-8.02348Q59.0473-5.9396 62.7868-5.9396Q68.149-5.9396 71.4643-9.39334Q74.7796-12.8471 74.7796-18.2716L74.7796-34.0877Q74.7796-35.3342 75.0784-35.7706Q75.3772-36.207 76.0888-36.3758Z"/>
  </g>
  <g id="Medium-M" transform="matrix(1 0 0 1 1674.53 1126)">
   <path d="M38.8901 12.8278L104.932 12.8278Q110.484 12.8278 113.578 9.78323Q116.671 6.73863 116.671 1.38207L116.671-52.7385L107.114-59.2337L107.114-1.53679Q107.114 3.27104 102.401 3.27104L41.3872 3.27104Q36.7169 3.27104 36.7169-1.53679L36.7169-59.2152L27.1081-52.7385L27.1081 1.38207Q27.1081 6.79066 30.2109 9.80924Q33.3137 12.8278 38.8901 12.8278ZM12.4609-42.2795Q12.4609-40.3808 13.7994-38.9941Q15.1378-37.6075 17.4801-37.6075Q18.6259-37.6075 19.6142-38.1292Q20.6025-38.6509 21.5046-39.3742L69.9886-80.0869Q72.0607-81.8492 74.1626-80.0869L122.598-39.3742Q123.491-38.6509 124.501-38.1292Q125.511-37.6075 126.656-37.6075Q128.752-37.6075 130.171-38.8184Q131.59-40.0293 131.59-42.1511Q131.59-44.5866 129.718-46.1666L78.9424-88.8491Q75.7633-91.5061 72.0756-91.5061Q68.3879-91.5061 65.2516-88.8491L14.3761-46.1563Q12.4609-44.5763 12.4609-42.2795ZM102.875-65.9147L116.671-54.2833L116.671-77.8841Q116.671-81.4623 113.084-81.4623L106.515-81.4623Q104.856-81.4623 103.865-80.4812Q102.875-79.5002 102.875-77.8841ZM86.2046-39.2231Q88.0453-39.6602 88.7178-40.404Q89.3903-41.1477 89.3903-43.3109L89.3903-52.9478Q89.3903-54.4455 88.6664-55.0389Q87.9425-55.6324 85.956-55.1432L71.594-51.5998Q69.7543-51.1198 69.165-50.4026Q68.5756-49.6854 68.5756-47.4496L68.5756-25.8614Q68.5756-24.2594 68.1912-23.7541Q67.8068-23.2489 65.9853-22.771L61.4977-21.5882Q58.0134-20.6516 55.6085-18.5286Q53.2037-16.4056 53.2037-12.8447Q53.2037-9.6203 55.4456-7.55467Q57.6876-5.48904 61.4142-5.48904Q66.7525-5.48904 70.0399-8.92364Q73.3273-12.3582 73.3273-17.7588L73.3273-34.0708Q73.3273-35.3613 73.6513-35.8308Q73.9752-36.3003 74.7246-36.4769Z"/>
  </g>
  <g id="Regular-M" transform="matrix(1 0 0 1 1379.13 1126)">
   <path d="M37.5624 11.898L103.599 11.898Q108.816 11.898 111.704 9.04924Q114.593 6.20043 114.593 1.12009L114.593-52.8583L106.744-58.1588L106.744-0.878858Q106.744 4.04936 101.929 4.04936L39.1933 4.04936Q34.4293 4.04936 34.4293-0.878858L34.4293-58.1361L26.5184-52.8583L26.5184 1.12009Q26.5184 6.26273 29.4181 9.08039Q32.3179 11.898 37.5624 11.898ZM12.4609-42.4259Q12.4609-40.9082 13.5737-39.7134Q14.6864-38.5185 16.6967-38.5185Q17.733-38.5185 18.5626-38.9999Q19.3922-39.4812 20.1623-40.0871L69.0259-81.1344Q70.7593-82.6072 72.504-81.1344L121.334-40.0871Q122.092-39.4812 122.947-38.9999Q123.803-38.5185 124.839-38.5185Q126.543-38.5185 127.758-39.5039Q128.973-40.4892 128.973-42.273Q128.973-44.3456 127.461-45.6311L76.6777-88.326Q73.9082-90.6311 70.765-90.6311Q67.6218-90.6311 64.9032-88.326L14.0239-45.6311Q12.4609-44.3456 12.4609-42.4259ZM102.332-64.4397L114.593-54.0532L114.593-76.6527Q114.593-80.1412 111.093-80.1412L105.882-80.1412Q104.257-80.1412 103.294-79.1841Q102.332-78.2271 102.332-76.6527ZM84.511-39.3672Q86.2838-39.792 86.9408-40.4914Q87.5977-41.1909 87.5977-43.3376L87.5977-53Q87.5977-54.399 86.9408-54.9738Q86.2838-55.5487 84.3241-55.0616L69.904-51.5104Q68.1198-51.0347 67.5563-50.3607Q66.9928-49.6867 66.9928-47.4778L66.9928-25.2517Q66.9928-23.5922 66.5878-23.0428Q66.1828-22.4934 64.2854-21.9949L59.7485-20.7998Q56.3898-19.8879 53.9543-17.8206Q51.5189-15.7533 51.5189-12.1681Q51.5189-8.98499 53.7165-6.94316Q55.9141-4.90134 59.6239-4.90134Q64.9309-4.90134 68.1819-8.31098Q71.4329-11.7206 71.4329-17.09L71.4329-34.0488Q71.4329-35.3968 71.7898-35.9094Q72.1466-36.4219 72.9452-36.6088Z"/>
  </g>
  <g id="Light-M" transform="matrix(1 0 0 1 1084.38 1126)">
   <path d="M35.8329 11.5853L101.557 11.5853Q106.442 11.5853 109.064 8.96644Q111.686 6.34762 111.686 1.61687L111.686-52.1959L105.658-56.3925L105.658 0.114688Q105.658 5.55808 100.31 5.55808L37.0775 5.55808Q31.7615 5.55808 31.7615 0.114688L31.7615-56.333L25.672-52.1959L25.672 1.61687Q25.672 6.40993 28.3234 8.9976Q30.9748 11.5853 35.8329 11.5853ZM12.4609-42.6283Q12.4609-41.4786 13.3069-40.5689Q14.1528-39.6593 15.6848-39.6593Q16.4819-39.6593 17.0907-40.0118Q17.6995-40.3643 18.304-40.8415L66.8917-81.668Q68.809-83.3064 70.7561-81.668L119.255-40.8415Q119.829-40.3643 120.454-40.0118Q121.079-39.6593 121.877-39.6593Q123.213-39.6593 124.124-40.4238Q125.035-41.1884 125.035-42.5306Q125.035-44.1248 123.799-45.1711L74.1202-86.9829Q71.6083-89.0856 68.8239-89.0856Q66.0395-89.0856 63.5601-86.9829L13.7296-45.1711Q12.4609-44.1248 12.4609-42.6283ZM101.264-62.0478L111.686-53.2069L111.686-75.6776Q111.686-78.5589 108.774-78.5589L104.208-78.5589Q102.877-78.5589 102.071-77.7674Q101.264-76.9759 101.264-75.6776ZM81.8247-39.4592Q83.5423-39.8656 84.1533-40.5374Q84.7643-41.2093 84.7643-43.3008L84.7643-52.4664Q84.7643-53.8102 84.1533-54.3575Q83.5423-54.9048 81.6378-54.4361L67.8801-51.0873Q66.1327-50.6483 65.6152-49.9927Q65.0977-49.3371 65.0977-47.1834L65.0977-24.6813Q65.0977-23.0586 64.6927-22.5276Q64.2877-21.9966 62.4455-21.4982L57.927-20.2846Q54.6787-19.4096 52.3352-17.425Q49.9918-15.4405 49.9918-12.0025Q49.9918-8.91139 52.1158-6.94316Q54.2398-4.97493 57.8024-4.97493Q62.9255-4.97493 65.9925-8.25579Q69.0595-11.5366 69.0595-16.722L69.0595-34.3064Q69.0595-35.6176 69.3887-36.1025Q69.7179-36.5875 70.4981-36.7744Z"/>
  </g>
  <g id="Thin-M" transform="matrix(1 0 0 1 790.275 1126)">
   <path d="M33.5455 11.1716L98.8561 11.1716Q103.303 11.1716 105.572 8.85694Q107.841 6.5423 107.841 2.27389L107.841-51.3199L104.223-54.0564L104.223 1.42873Q104.223 7.55348 98.1684 7.55348L34.279 7.55348Q28.233 7.55348 28.233 1.42873L28.233-53.9483L24.5526-51.3199L24.5526 2.27389Q24.5526 6.6046 26.8755 8.88809Q29.1984 11.1716 33.5455 11.1716ZM12.4609-42.8959Q12.4609-42.233 12.954-41.7005Q13.4472-41.168 14.3464-41.168Q14.8272-41.168 15.1439-41.3502Q15.4607-41.5324 15.8463-41.8392L64.0689-82.3736Q66.2296-84.2311 68.4444-82.3736L116.505-41.8392Q116.836-41.5324 117.157-41.3502Q117.478-41.168 117.959-41.168Q118.809-41.168 119.318-41.6405Q119.828-42.1131 119.828-42.8713Q119.828-43.8328 118.957-44.5628L70.7378-85.2065Q68.5666-87.0415 66.2566-87.0415Q63.9467-87.0415 61.7837-85.2065L13.3402-44.5628Q12.4609-43.8328 12.4609-42.8959ZM99.8531-58.8844L107.841-52.0875L107.841-74.3878Q107.841-76.4661 105.708-76.4661L101.994-76.4661Q101.052-76.4661 100.453-75.8937Q99.8531-75.3212 99.8531-74.3878ZM78.2719-39.5808Q79.9165-39.9629 80.4667-40.5983Q81.0168-41.2337 81.0168-43.2521L81.0168-51.7607Q81.0168-53.0315 80.4667-53.5423Q79.9165-54.0531 78.085-53.6087L65.2033-50.5276Q63.5046-50.1373 63.0479-49.506Q62.5912-48.8748 62.5912-46.794L62.5912-23.927Q62.5912-22.3529 62.1863-21.8463Q61.7813-21.3396 60.0121-20.8412L55.5179-19.6033Q52.4156-18.7769 50.1938-16.9019Q47.972-15.0269 47.972-11.7835Q47.972-8.81406 49.9987-6.94316Q52.0253-5.07227 55.3933-5.07227Q60.273-5.07227 63.0967-8.18278Q65.9204-11.2933 65.9204-16.2353L65.9204-34.647Q65.9204-35.9096 66.2131-36.3581Q66.5058-36.8065 67.2617-36.9934Z"/>
  </g>
  <g id="Ultralight-M" transform="matrix(1 0 0 1 494.897 1126)">
   <path d="M32.3739 10.9597L97.4726 10.9597Q101.695 10.9597 103.783 8.80085Q105.871 6.64201 105.871 2.61041L105.871-50.8712L103.487-52.8599L103.487 2.10178Q103.487 8.57551 97.0716 8.57551L32.8457 8.57551Q26.4258 8.57551 26.4258 2.10178L26.4258-52.7268L23.9793-50.8712L23.9793 2.61041Q23.9793 6.70431 26.1339 8.832Q28.2885 10.9597 32.3739 10.9597ZM12.4609-43.033Q12.4609-42.6194 12.7733-42.2801Q13.0857-41.9408 13.6609-41.9408Q13.9796-41.9408 14.1468-42.0357Q14.314-42.1307 14.5874-42.3502L62.6231-82.7351Q64.9084-84.7047 67.2603-82.7351L115.096-42.3502Q115.303-42.1307 115.468-42.0357Q115.633-41.9408 115.952-41.9408Q116.553-41.9408 116.857-42.2637Q117.161-42.5867 117.161-43.0458Q117.161-43.6832 116.476-44.2512L69.0053-84.2966Q67.0086-85.9945 64.9417-85.9945Q62.8748-85.9945 60.8739-84.2966L13.1408-44.2512Q12.4609-43.6832 12.4609-43.033ZM99.1302-57.2641L105.871-51.5142L105.871-73.7273Q105.871-75.3943 104.138-75.3943L100.859-75.3943Q100.117-75.3943 99.6238-74.934Q99.1302-74.4737 99.1302-73.7273ZM76.4522-39.6432Q78.0594-40.0128 78.5784-40.6294Q79.0974-41.2461 79.0974-43.2272L79.0974-51.3993Q79.0974-52.6327 78.5784-53.1247Q78.0594-53.6168 76.2653-53.1849L63.8323-50.2409Q62.1585-49.8756 61.733-49.2568Q61.3075-48.6379 61.3075-46.5946L61.3075-23.5406Q61.3075-21.9915 60.9025-21.4973Q60.4975-21.0031 58.7657-20.5046L54.284-19.2543Q51.2565-18.4528 49.097-16.6339Q46.9375-14.815 46.9375-11.6713Q46.9375-8.7642 48.9143-6.94316Q50.8911-5.12213 54.1594-5.12213Q58.9145-5.12213 61.6135-8.14539Q64.3125-11.1687 64.3125-15.986L64.3125-34.8215Q64.3125-36.0592 64.5865-36.4889Q64.8606-36.9187 65.604-37.1056Z"/>
  </g>
  <g id="Black-S" transform="matrix(1 0 0 1 2871.88 696)">
   <path d="M35.6445 6.10352L87.4023 6.10352Q93.0664 6.10352 96.2891 2.9541Q99.5117-0.195312 99.5117-5.46875L99.5117-48.4375L85.3516-58.2031L85.3516-11.377Q85.3516-8.05664 82.0312-8.05664L41.0156-8.05664Q37.6953-8.05664 37.6953-11.377L37.6953-58.2031L23.5352-48.4375L23.5352-5.46875Q23.5352-0.195312 26.7578 2.9541Q29.9805 6.10352 35.6445 6.10352ZM9.76562-40.1855Q9.76562-37.207 11.6943-35.376Q13.623-33.5449 16.748-33.5449Q18.0664-33.5449 19.458-34.1064Q20.8496-34.668 22.0703-35.6934L58.5449-66.2598Q61.5234-68.7988 64.5996-66.2598L100.977-35.6934Q102.197-34.668 103.589-34.1064Q104.98-33.5449 106.299-33.5449Q109.473-33.5449 111.377-35.376Q113.281-37.207 113.281-40.1855Q113.281-43.5059 110.4-45.8984L70.7031-79.248Q66.6016-82.7148 61.5723-82.7148Q56.543-82.7148 52.4414-79.248L12.6465-45.8496Q9.76562-43.457 9.76562-40.1855ZM82.7148-64.9902L99.5117-51.0254L99.5117-73.4863Q99.5117-76.6113 96.3867-76.6113L85.8887-76.6113Q84.4727-76.6113 83.5938-75.7568Q82.7148-74.9023 82.7148-73.4863ZM74.1211-37.793Q75.8301-38.1836 76.416-38.9404Q77.002-39.6973 77.002-41.4551L77.002-48.877Q77.002-50.4395 76.1719-50.9766Q75.3418-51.5137 73.6816-51.123L62.6953-48.3887Q61.0352-47.998 60.4736-47.2656Q59.9121-46.5332 59.9121-44.6777L59.9121-30.2734Q59.9121-29.248 59.6924-29.0283Q59.4727-28.8086 58.3496-28.5156L55.0293-27.6367Q51.8066-26.8066 50.0488-24.9268Q48.291-23.0469 48.291-20.3613Q48.291-17.6758 50.2197-15.9668Q52.1484-14.2578 55.127-14.2578Q59.4238-14.2578 62.1338-17.041Q64.8438-19.8242 64.8438-24.1699L64.8438-34.4238Q64.8438-35.2051 64.9658-35.4004Q65.0879-35.5957 65.4785-35.6934Z"/>
  </g>
  <g id="Heavy-S" transform="matrix(1 0 0 1 2576.38 696)">
   <path d="M34.3768 5.10089L86.1692 5.10089Q91.4991 5.10089 94.5258 2.14163Q97.5526-0.817634 97.5526-5.82601L97.5526-48.6565L85.075-57.2235L85.075-10.7662Q85.075-7.3767 81.7086-7.3767L38.826-7.3767Q35.4711-7.3767 35.4711-10.7662L35.4711-57.2235L22.982-48.6565L22.982-5.82601Q22.982-0.806109 26.0087 2.14739Q29.0355 5.10089 34.3768 5.10089ZM9.76562-40.3238Q9.76562-37.7256 11.4754-36.0732Q13.1851-34.4208 15.999-34.4208Q17.2251-34.4208 18.4669-34.9535Q19.7087-35.4862 20.8026-36.3964L57.7382-67.3661Q60.3134-69.5594 62.9631-67.3661L99.8241-36.3964Q100.918-35.4862 102.166-34.9535Q103.413-34.4208 104.639-34.4208Q107.421-34.4208 109.135-36.0271Q110.85-37.6334 110.85-40.2893Q110.85-43.2638 108.338-45.3568L68.4904-78.8332Q64.8153-81.9312 60.3507-81.9312Q55.8861-81.9312 52.2224-78.8332L12.2892-45.3195Q9.76562-43.2265 9.76562-40.3238ZM82.2423-63.6419L97.5526-50.8756L97.5526-72.2302Q97.5526-75.3321 94.4506-75.3321L85.3931-75.3321Q83.9771-75.3321 83.1097-74.4834Q82.2423-73.6347 82.2423-72.2302ZM72.5653-37.9428Q74.2051-38.3219 74.7795-39.0326Q75.354-39.7434 75.354-41.4897L75.354-49.0037Q75.354-50.4625 74.593-50.9823Q73.8321-51.5021 72.195-51.1115L61.0588-48.3426Q59.4563-47.9519 58.9178-47.2656Q58.3794-46.5793 58.3794-44.7469L58.3794-29.6626Q58.3794-28.5681 58.1366-28.2965Q57.8938-28.0249 56.6786-27.7089L53.3006-26.8185Q50.2047-26.0115 48.4008-24.1834Q46.5969-22.3554 46.5969-19.6238Q46.5969-16.9728 48.4853-15.2811Q50.3737-13.5894 53.3522-13.5894Q57.6375-13.5894 60.3302-16.3611Q63.0229-19.1328 63.0229-23.4669L63.0229-34.3662Q63.0229-35.2166 63.1853-35.4638Q63.3477-35.7109 63.7959-35.8201Z"/>
  </g>
  <g id="Bold-S" transform="matrix(1 0 0 1 2281.03 696)">
   <path d="M32.959 3.97949L84.79 3.97949Q89.7461 3.97949 92.5537 1.23291Q95.3613-1.51367 95.3613-6.22559L95.3613-48.9014L84.7656-56.1279L84.7656-10.083Q84.7656-6.61621 81.3477-6.61621L36.377-6.61621Q32.9834-6.61621 32.9834-10.083L32.9834-56.1279L22.3633-48.9014L22.3633-6.22559Q22.3633-1.48926 25.1709 1.24512Q27.9785 3.97949 32.959 3.97949ZM9.76562-40.4785Q9.76562-38.3057 11.2305-36.853Q12.6953-35.4004 15.1611-35.4004Q16.2842-35.4004 17.3584-35.9009Q18.4326-36.4014 19.3848-37.1826L56.8359-68.6035Q58.96-70.4102 61.1328-68.6035L98.5352-37.1826Q99.4873-36.4014 100.574-35.9009Q101.66-35.4004 102.783-35.4004Q105.127-35.4004 106.628-36.7554Q108.13-38.1104 108.13-40.4053Q108.13-42.9932 106.03-44.751L66.0156-78.3691Q62.8174-81.0547 58.9844-81.0547Q55.1514-81.0547 51.9775-78.3691L11.8896-44.7266Q9.76562-42.9688 9.76562-40.4785ZM81.7139-62.1338L95.3613-50.708L95.3613-70.8252Q95.3613-73.9014 92.2852-73.9014L84.8389-73.9014Q83.4229-73.9014 82.5684-73.0591Q81.7139-72.2168 81.7139-70.8252ZM70.8252-38.1104Q72.3877-38.4766 72.9492-39.1357Q73.5107-39.7949 73.5107-41.5283L73.5107-49.1455Q73.5107-50.4883 72.8271-50.9888Q72.1436-51.4893 70.5322-51.0986L59.2285-48.291Q57.6904-47.9004 57.1777-47.2656Q56.665-46.6309 56.665-44.8242L56.665-28.9795Q56.665-27.8076 56.3965-27.478Q56.1279-27.1484 54.8096-26.8066L51.3672-25.9033Q48.4131-25.1221 46.5576-23.3521Q44.7021-21.582 44.7021-18.7988Q44.7021-16.1865 46.5454-14.5142Q48.3887-12.8418 51.3672-12.8418Q55.6396-12.8418 58.313-15.6006Q60.9863-18.3594 60.9863-22.6807L60.9863-34.3018Q60.9863-35.2295 61.1938-35.5347Q61.4014-35.8398 61.9141-35.9619Z"/>
  </g>
  <g id="Semibold-S" transform="matrix(1 0 0 1 1985.26 696)">
   <path d="M31.9814 3.20635L83.8392 3.20635Q88.5375 3.20635 91.194 0.606396Q93.8506-1.99355 93.8506-6.50107L93.8506-49.0702L84.5523-55.3726L84.5523-9.61201Q84.5523-6.09189 81.0988-6.09189L34.6885-6.09189Q31.2683-6.09189 31.2683-9.61201L31.2683-55.3726L21.9367-49.0702L21.9367-6.50107Q21.9367-1.96025 24.5933 0.623047Q27.2498 3.20635 31.9814 3.20635ZM9.76562-40.5852Q9.76562-38.7056 11.0616-37.3907Q12.3576-36.0758 14.5835-36.0758Q15.6354-36.0758 16.5941-36.5541Q17.5528-37.0323 18.4072-37.7247L56.2139-69.4566Q58.0269-70.9967 59.8709-69.4566L97.6465-37.7247Q98.5009-37.0323 99.4762-36.5541Q100.452-36.0758 101.504-36.0758Q103.545-36.0758 104.9-37.2575Q106.255-38.4392 106.255-40.4853Q106.255-42.8065 104.44-44.3333L64.3094-78.0492Q61.4399-80.4504 58.0424-80.4504Q54.6448-80.4504 51.8087-78.0492L11.6142-44.3178Q9.76562-42.791 9.76562-40.5852ZM81.3495-61.094L93.8506-50.5925L93.8506-69.8565Q93.8506-72.9149 90.7922-72.9149L84.4567-72.9149Q83.0407-72.9149 82.1951-72.0771Q81.3495-71.2393 81.3495-69.8565ZM69.6255-38.2259Q71.1347-38.5832 71.6873-39.2068Q72.2399-39.8305 72.2399-41.555L72.2399-49.2433Q72.2399-50.5061 71.6097-50.9932Q70.9794-51.4804 69.3858-51.0897L57.9666-48.2555Q56.4729-47.8648 55.978-47.2656Q55.4831-46.6664 55.4831-44.8775L55.4831-28.5085Q55.4831-27.2833 55.1968-26.9137Q54.9104-26.5441 53.521-26.1846L50.0342-25.2724Q47.1778-24.5089 45.2868-22.7789Q43.3958-21.0488 43.3958-18.2301Q43.3958-15.6444 45.208-13.9854Q47.0201-12.3264 49.9986-12.3264Q54.2622-12.3264 56.9222-15.0763Q59.5822-17.8262 59.5822-22.1386L59.5822-34.2573Q59.5822-35.2384 59.8208-35.5835Q60.0595-35.9287 60.6166-36.0597Z"/>
  </g>
  <g id="Medium-S" transform="matrix(1 0 0 1 1689.26 696)">
   <path d="M31.2402 2.62012L83.1182 2.62012Q87.6211 2.62012 90.1631 0.131348Q92.7051-2.35742 92.7051-6.70996L92.7051-49.1982L84.3906-54.7998L84.3906-9.25488Q84.3906-5.69434 80.9102-5.69434L33.4082-5.69434Q29.9678-5.69434 29.9678-9.25488L29.9678-54.7998L21.6133-49.1982L21.6133-6.70996Q21.6133-2.31738 24.1553 0.151367Q26.6973 2.62012 31.2402 2.62012ZM9.76562-40.666Q9.76562-39.0088 10.9336-37.7983Q12.1016-36.5879 14.1455-36.5879Q15.1436-36.5879 16.0146-37.0493Q16.8857-37.5107 17.666-38.1357L55.7422-70.1035Q57.3193-71.4414 58.9141-70.1035L96.9727-38.1357Q97.7529-37.5107 98.644-37.0493Q99.5352-36.5879 100.533-36.5879Q102.346-36.5879 103.589-37.6382Q104.833-38.6885 104.833-40.5459Q104.833-42.665 103.233-44.0166L63.0156-77.8066Q60.3955-79.9922 57.3281-79.9922Q54.2607-79.9922 51.6807-77.8066L11.4053-44.0078Q9.76562-42.6562 9.76562-40.666ZM81.0732-60.3057L92.7051-50.5049L92.7051-69.1221Q92.7051-72.167 89.6602-72.167L84.167-72.167Q82.751-72.167 81.9121-71.3325Q81.0732-70.498 81.0732-69.1221ZM68.7158-38.3135Q70.1846-38.6641 70.7305-39.2607Q71.2764-39.8574 71.2764-41.5752L71.2764-49.3174Q71.2764-50.5195 70.6865-50.9966Q70.0967-51.4736 68.5166-51.083L57.0098-48.2285Q55.5498-47.8379 55.0684-47.2656Q54.5869-46.6934 54.5869-44.918L54.5869-28.1514Q54.5869-26.8857 54.2871-26.4858Q53.9873-26.0859 52.5439-25.7129L49.0234-24.7939Q46.2412-24.0439 44.3232-22.3442Q42.4053-20.6445 42.4053-17.7988Q42.4053-15.2334 44.1938-13.5845Q45.9824-11.9355 48.9609-11.9355Q53.2178-11.9355 55.8677-14.6787Q58.5176-17.4219 58.5176-21.7275L58.5176-34.2236Q58.5176-35.2451 58.7798-35.6206Q59.042-35.9961 59.6328-36.1338Z"/>
  </g>
  <g id="Regular-S" transform="matrix(1 0 0 1 1393.47 696)">
   <path d="M30.2734 1.85547L82.1777 1.85547Q86.4258 1.85547 88.8184-0.488281Q91.2109-2.83203 91.2109-6.98242L91.2109-49.3652L84.1797-54.0527L84.1797-8.78906Q84.1797-5.17578 80.6641-5.17578L31.7383-5.17578Q28.2715-5.17578 28.2715-8.78906L28.2715-54.0527L21.1914-49.3652L21.1914-6.98242Q21.1914-2.7832 23.584-0.463867Q25.9766 1.85547 30.2734 1.85547ZM9.76562-40.7715Q9.76562-39.4043 10.7666-38.3301Q11.7676-37.2559 13.5742-37.2559Q14.502-37.2559 15.2588-37.6953Q16.0156-38.1348 16.6992-38.6719L55.127-70.9473Q56.3965-72.0215 57.666-70.9473L96.0938-38.6719Q96.7773-38.1348 97.5586-37.6953Q98.3398-37.2559 99.2676-37.2559Q100.781-37.2559 101.88-38.1348Q102.979-39.0137 102.979-40.625Q102.979-42.4805 101.66-43.6035L61.3281-77.4902Q59.0332-79.3945 56.3965-79.3945Q53.7598-79.3945 51.5137-77.4902L11.1328-43.6035Q9.76562-42.4805 9.76562-40.7715ZM80.7129-59.2773L91.2109-50.3906L91.2109-68.1641Q91.2109-71.1914 88.1836-71.1914L83.7891-71.1914Q82.373-71.1914 81.543-70.3613Q80.7129-69.5312 80.7129-68.1641ZM67.5293-38.4277Q68.9453-38.7695 69.4824-39.3311Q70.0195-39.8926 70.0195-41.6016L70.0195-49.4141Q70.0195-50.5371 69.4824-51.001Q68.9453-51.4648 67.3828-51.0742L55.7617-48.1934Q54.3457-47.8027 53.8818-47.2656Q53.418-46.7285 53.418-44.9707L53.418-27.6855Q53.418-26.3672 53.1006-25.9277Q52.7832-25.4883 51.2695-25.0977L47.7051-24.1699Q45.0195-23.4375 43.0664-21.7773Q41.1133-20.1172 41.1133-17.2363Q41.1133-14.6973 42.8711-13.0615Q44.6289-11.4258 47.6074-11.4258Q51.8555-11.4258 54.4922-14.1602Q57.1289-16.8945 57.1289-21.1914L57.1289-34.1797Q57.1289-35.2539 57.4219-35.6689Q57.7148-36.084 58.3496-36.2305Z"/>
  </g>
  <g id="Light-S" transform="matrix(1 0 0 1 1098.5 696)">
   <path d="M28.7435 1.57878L80.3711 1.57878Q84.3262 1.57878 86.4827-0.561523Q88.6393-2.70182 88.6393-6.54297L88.6393-48.7793L83.2194-52.4902L83.2194-7.91016Q83.2194-3.84115 79.2318-3.84115L29.8665-3.84115Q25.9115-3.84115 25.9115-7.91016L25.9115-52.4577L20.4427-48.7793L20.4427-6.54297Q20.4427-2.65299 22.6156-0.537109Q24.7884 1.57878 28.7435 1.57878ZM9.76562-40.9505Q9.76562-39.9089 10.5306-39.0869Q11.2956-38.265 12.679-38.265Q13.3952-38.265 13.9567-38.5905Q14.5182-38.916 15.0553-39.3392L53.2389-71.4193Q54.6712-72.64 56.1198-71.4193L94.2546-39.3392Q94.7754-38.916 95.3532-38.5905Q95.931-38.265 96.6471-38.265Q97.8353-38.265 98.6654-38.9486Q99.4954-39.6322 99.4954-40.8529Q99.4954-42.2852 98.4212-43.1966L59.0658-76.3021Q56.9987-78.0273 54.6794-78.0273Q52.36-78.0273 50.3255-76.3021L10.8724-43.1966Q9.76562-42.2852 9.76562-40.9505ZM79.7689-57.1615L88.6393-49.6419L88.6393-67.3014Q88.6393-69.7917 86.1328-69.7917L82.3079-69.7917Q81.1523-69.7917 80.4606-69.1081Q79.7689-68.4245 79.7689-67.3014ZM65.153-38.5091Q66.5202-38.8346 67.0166-39.3717Q67.513-39.9089 67.513-41.569L67.513-48.9421Q67.513-50.0163 67.0166-50.4557Q66.5202-50.8952 65.0065-50.5208L53.9714-47.819Q52.5879-47.4609 52.1647-46.9401Q51.7415-46.4193 51.7415-44.7103L51.7415-27.181Q51.7415-25.8952 51.4242-25.472Q51.1068-25.0488 49.6419-24.6582L46.0938-23.7142Q43.5059-23.0143 41.6341-21.4274Q39.7624-19.8405 39.7624-17.0898Q39.7624-14.6322 41.4551-13.0615Q43.1478-11.4909 45.9961-11.4909Q50.0814-11.4909 52.5553-14.1113Q55.0293-16.7318 55.0293-20.8659L55.0293-34.4076Q55.0293-35.4492 55.2979-35.8398Q55.5664-36.2305 56.1849-36.377Z"/>
  </g>
  <g id="Thin-S" transform="matrix(1 0 0 1 804.093 696)">
   <path d="M26.72 1.21283L77.9817 1.21283Q81.5493 1.21283 83.3937-0.658392Q85.2382-2.52961 85.2382-5.96176L85.2382-48.0043L81.9493-50.4237L81.9493-6.74773Q81.9493-2.07598 77.3374-2.07598L27.391-2.07598Q22.7901-2.07598 22.7901-6.74773L22.7901-50.3481L19.4525-48.0043L19.4525-5.96176Q19.4525-2.48078 21.3347-0.633978Q23.217 1.21283 26.72 1.21283ZM9.76562-41.1873Q9.76562-40.5762 10.2185-40.0879Q10.6713-39.5996 11.4951-39.5996Q11.9314-39.5996 12.2346-39.7744Q12.5378-39.9493 12.8812-40.2218L50.7419-72.0435Q52.3894-73.458 54.0748-72.0435L91.8221-40.2218Q92.1276-39.9493 92.4364-39.7744Q92.7451-39.5996 93.1814-39.5996Q93.939-39.5996 94.4139-40.0249Q94.8888-40.4502 94.8888-41.1542Q94.8888-42.0268 94.1375-42.6585L56.0736-74.7307Q54.3079-76.2191 52.4083-76.2191Q50.5088-76.2191 48.7541-74.7307L10.528-42.6585Q9.76562-42.0268 9.76562-41.1873ZM78.5204-54.363L85.2382-48.6517L85.2382-66.1605Q85.2382-67.9404 83.4205-67.9404L80.349-67.9404Q79.5379-67.9404 79.0291-67.4505Q78.5204-66.9607 78.5204-66.1605ZM62.0101-38.6167Q63.3128-38.9207 63.7554-39.4256Q64.198-39.9304 64.198-41.526L64.198-48.3178Q64.198-49.3274 63.7554-49.7346Q63.3128-50.1418 61.8637-49.7889L51.6035-47.3239Q50.263-47.0089 49.8937-46.5096Q49.5243-46.0103 49.5243-44.3659L49.5243-26.5137Q49.5243-25.2709 49.2069-24.8693Q48.8896-24.4676 47.4893-24.077L43.9626-23.1115Q41.5039-22.4546 39.7398-20.9646Q37.9757-19.4745 37.9757-16.8961Q37.9757-14.5461 39.5823-13.0615Q41.1889-11.577 43.865-11.577Q47.735-11.577 49.9937-14.0467Q52.2524-16.5165 52.2524-20.4354L52.2524-34.7089Q52.2524-35.7075 52.4887-36.0659Q52.7249-36.4242 53.3219-36.5707Z"/>
  </g>
  <g id="Ultralight-S" transform="matrix(1 0 0 1 508.561 696)">
   <path d="M25.6836 1.02539L76.7578 1.02539Q80.127 1.02539 81.8115-0.708008Q83.4961-2.44141 83.4961-5.66406L83.4961-47.6074L81.2988-49.3652L81.2988-6.15234Q81.2988-1.17188 76.3672-1.17188L26.123-1.17188Q21.1914-1.17188 21.1914-6.15234L21.1914-49.2676L18.9453-47.6074L18.9453-5.66406Q18.9453-2.39258 20.6787-0.683594Q22.4121 1.02539 25.6836 1.02539ZM9.76562-41.3086Q9.76562-40.918 10.0586-40.6006Q10.3516-40.2832 10.8887-40.2832Q11.1816-40.2832 11.3525-40.3809Q11.5234-40.4785 11.7676-40.6738L49.4629-72.3633Q51.2207-73.877 53.0273-72.3633L90.5762-40.6738Q90.7715-40.4785 90.9424-40.3809Q91.1133-40.2832 91.4062-40.2832Q91.9434-40.2832 92.2363-40.5762Q92.5293-40.8691 92.5293-41.3086Q92.5293-41.8945 91.9434-42.3828L54.541-73.9258Q52.9297-75.293 51.2451-75.293Q49.5605-75.293 47.9492-73.9258L10.3516-42.3828Q9.76562-41.8945 9.76562-41.3086ZM77.8809-52.9297L83.4961-48.1445L83.4961-65.5762Q83.4961-66.9922 82.0312-66.9922L79.3457-66.9922Q78.7109-66.9922 78.2959-66.6016Q77.8809-66.2109 77.8809-65.5762ZM60.4004-38.6719Q61.6699-38.9648 62.085-39.4531Q62.5-39.9414 62.5-41.5039L62.5-47.998Q62.5-48.9746 62.085-49.3652Q61.6699-49.7559 60.2539-49.4141L50.3906-47.0703Q49.0723-46.7773 48.7305-46.2891Q48.3887-45.8008 48.3887-44.1895L48.3887-26.1719Q48.3887-24.9512 48.0713-24.5605Q47.7539-24.1699 46.3867-23.7793L42.8711-22.8027Q40.4785-22.168 38.7695-20.7275Q37.0605-19.2871 37.0605-16.7969Q37.0605-14.502 38.623-13.0615Q40.1855-11.6211 42.7734-11.6211Q46.5332-11.6211 48.6816-14.0137Q50.8301-16.4062 50.8301-20.2148L50.8301-34.8633Q50.8301-35.8398 51.0498-36.1816Q51.2695-36.5234 51.8555-36.6699Z"/>
  </g>
 </g>
</svg>
