<?xml version="1.0" encoding="UTF-8"?>
<!--Generator: Apple Native CoreSVG 175-->
<!DOCTYPE svg
PUBLIC "-//W3C//DTD SVG 1.1//EN"
       "http://www.w3.org/Graphics/SVG/1.1/DTD/svg11.dtd">
<svg version="1.1" xmlns="http://www.w3.org/2000/svg" xmlns:xlink="http://www.w3.org/1999/xlink" width="3300" height="2200">
 <!--glyph: "uni100284.medium", point size: 100.0, font version: "17.3d3e1", template writer version: "65.1"-->
 <g id="Notes">
  <rect height="2200" id="artboard" style="fill:white;opacity:1" width="3300" x="0" y="0"/>
  <line style="fill:none;stroke:black;opacity:1;stroke-width:0.5;" x1="263" x2="3036" y1="292" y2="292"/>
  <text style="stroke:none;fill:black;font-family:sans-serif;font-size:13;font-weight:bold;" transform="matrix(1 0 0 1 263 322)">Weight/Scale Variations</text>
  <text style="stroke:none;fill:black;font-family:sans-serif;font-size:13;text-anchor:middle;" transform="matrix(1 0 0 1 559.711 322)">Ultralight</text>
  <text style="stroke:none;fill:black;font-family:sans-serif;font-size:13;text-anchor:middle;" transform="matrix(1 0 0 1 856.422 322)">Thin</text>
  <text style="stroke:none;fill:black;font-family:sans-serif;font-size:13;text-anchor:middle;" transform="matrix(1 0 0 1 1153.13 322)">Light</text>
  <text style="stroke:none;fill:black;font-family:sans-serif;font-size:13;text-anchor:middle;" transform="matrix(1 0 0 1 1449.84 322)">Regular</text>
  <text style="stroke:none;fill:black;font-family:sans-serif;font-size:13;text-anchor:middle;" transform="matrix(1 0 0 1 1746.56 322)">Medium</text>
  <text style="stroke:none;fill:black;font-family:sans-serif;font-size:13;text-anchor:middle;" transform="matrix(1 0 0 1 2043.27 322)">Semibold</text>
  <text style="stroke:none;fill:black;font-family:sans-serif;font-size:13;text-anchor:middle;" transform="matrix(1 0 0 1 2339.98 322)">Bold</text>
  <text style="stroke:none;fill:black;font-family:sans-serif;font-size:13;text-anchor:middle;" transform="matrix(1 0 0 1 2636.69 322)">Heavy</text>
  <text style="stroke:none;fill:black;font-family:sans-serif;font-size:13;text-anchor:middle;" transform="matrix(1 0 0 1 2933.4 322)">Black</text>
  <line style="fill:none;stroke:black;opacity:1;stroke-width:0.5;" x1="263" x2="3036" y1="1903" y2="1903"/>
  <g transform="matrix(1 0 0 1 263 1933)">
   <path d="M9.24805 0.830078Q10.8691 0.830078 12.2949 0.214844Q13.7207-0.400391 14.8096-1.49414Q15.8984-2.58789 16.5186-4.01367Q17.1387-5.43945 17.1387-7.05078Q17.1387-8.66211 16.5186-10.0879Q15.8984-11.5137 14.8047-12.6074Q13.7109-13.7012 12.2852-14.3164Q10.8594-14.9316 9.23828-14.9316Q7.62695-14.9316 6.20117-14.3164Q4.77539-13.7012 3.69141-12.6074Q2.60742-11.5137 1.9873-10.0879Q1.36719-8.66211 1.36719-7.05078Q1.36719-5.43945 1.9873-4.01367Q2.60742-2.58789 3.69629-1.49414Q4.78516-0.400391 6.21094 0.214844Q7.63672 0.830078 9.24805 0.830078ZM9.24805-0.654297Q7.91992-0.654297 6.7627-1.14746Q5.60547-1.64062 4.73145-2.51953Q3.85742-3.39844 3.36426-4.56055Q2.87109-5.72266 2.87109-7.05078Q2.87109-8.37891 3.35938-9.54102Q3.84766-10.7031 4.72168-11.582Q5.5957-12.4609 6.75293-12.9541Q7.91016-13.4473 9.23828-13.4473Q10.5762-13.4473 11.7334-12.9541Q12.8906-12.4609 13.7695-11.582Q14.6484-10.7031 15.1465-9.54102Q15.6445-8.37891 15.6445-7.05078Q15.6445-5.72266 15.1514-4.56055Q14.6582-3.39844 13.7842-2.51953Q12.9102-1.64062 11.748-1.14746Q10.5859-0.654297 9.24805-0.654297ZM5.6543-7.05078Q5.6543-6.72852 5.85938-6.52832Q6.06445-6.32812 6.40625-6.32812L8.51562-6.32812L8.51562-4.20898Q8.51562-3.88672 8.71094-3.67676Q8.90625-3.4668 9.23828-3.4668Q9.56055-3.4668 9.77051-3.67676Q9.98047-3.88672 9.98047-4.20898L9.98047-6.32812L12.0898-6.32812Q12.4219-6.32812 12.627-6.52832Q12.832-6.72852 12.832-7.05078Q12.832-7.38281 12.627-7.58789Q12.4219-7.79297 12.0898-7.79297L9.98047-7.79297L9.98047-9.90234Q9.98047-10.2344 9.77051-10.4443Q9.56055-10.6543 9.23828-10.6543Q8.90625-10.6543 8.71094-10.4443Q8.51562-10.2344 8.51562-9.90234L8.51562-7.79297L6.40625-7.79297Q6.06445-7.79297 5.85938-7.58789Q5.6543-7.38281 5.6543-7.05078Z"/>
  </g>
  <g transform="matrix(1 0 0 1 281.867 1933)">
   <path d="M11.709 2.91016Q13.75 2.91016 15.5518 2.12891Q17.3535 1.34766 18.7305-0.0292969Q20.1074-1.40625 20.8887-3.20801Q21.6699-5.00977 21.6699-7.05078Q21.6699-9.0918 20.8887-10.8936Q20.1074-12.6953 18.7305-14.0723Q17.3535-15.4492 15.5469-16.2305Q13.7402-17.0117 11.6992-17.0117Q9.6582-17.0117 7.85645-16.2305Q6.05469-15.4492 4.68262-14.0723Q3.31055-12.6953 2.5293-10.8936Q1.74805-9.0918 1.74805-7.05078Q1.74805-5.00977 2.5293-3.20801Q3.31055-1.40625 4.6875-0.0292969Q6.06445 1.34766 7.86621 2.12891Q9.66797 2.91016 11.709 2.91016ZM11.709 1.25Q9.98047 1.25 8.47656 0.605469Q6.97266-0.0390625 5.83496-1.17676Q4.69727-2.31445 4.05762-3.81836Q3.41797-5.32227 3.41797-7.05078Q3.41797-8.7793 4.05762-10.2832Q4.69727-11.7871 5.83008-12.9297Q6.96289-14.0723 8.4668-14.7119Q9.9707-15.3516 11.6992-15.3516Q13.4277-15.3516 14.9316-14.7119Q16.4355-14.0723 17.5781-12.9297Q18.7207-11.7871 19.3652-10.2832Q20.0098-8.7793 20.0098-7.05078Q20.0098-5.32227 19.3701-3.81836Q18.7305-2.31445 17.5928-1.17676Q16.4551-0.0390625 14.9463 0.605469Q13.4375 1.25 11.709 1.25ZM7.17773-7.05078Q7.17773-6.69922 7.41211-6.47461Q7.64648-6.25 8.01758-6.25L10.8887-6.25L10.8887-3.36914Q10.8887-2.99805 11.1133-2.76855Q11.3379-2.53906 11.6895-2.53906Q12.0605-2.53906 12.29-2.76855Q12.5195-2.99805 12.5195-3.36914L12.5195-6.25L15.4004-6.25Q15.7715-6.25 16.001-6.47461Q16.2305-6.69922 16.2305-7.05078Q16.2305-7.42188 16.001-7.65137Q15.7715-7.88086 15.4004-7.88086L12.5195-7.88086L12.5195-10.752Q12.5195-11.1328 12.29-11.3623Q12.0605-11.5918 11.6895-11.5918Q11.3379-11.5918 11.1133-11.3574Q10.8887-11.123 10.8887-10.752L10.8887-7.88086L8.01758-7.88086Q7.63672-7.88086 7.40723-7.65137Q7.17773-7.42188 7.17773-7.05078Z"/>
  </g>
  <g transform="matrix(1 0 0 1 305.646 1933)">
   <path d="M14.9707 5.66406Q17.0605 5.66406 18.96 5.01465Q20.8594 4.36523 22.4512 3.19336Q24.043 2.02148 25.2197 0.429688Q26.3965-1.16211 27.0459-3.06641Q27.6953-4.9707 27.6953-7.05078Q27.6953-9.14062 27.0459-11.04Q26.3965-12.9395 25.2197-14.5312Q24.043-16.123 22.4512-17.2998Q20.8594-18.4766 18.9551-19.126Q17.0508-19.7754 14.9609-19.7754Q12.8711-19.7754 10.9717-19.126Q9.07227-18.4766 7.48535-17.2998Q5.89844-16.123 4.72168-14.5312Q3.54492-12.9395 2.90039-11.04Q2.25586-9.14062 2.25586-7.05078Q2.25586-4.9707 2.90527-3.06641Q3.55469-1.16211 4.72656 0.429688Q5.89844 2.02148 7.49023 3.19336Q9.08203 4.36523 10.9814 5.01465Q12.8809 5.66406 14.9707 5.66406ZM14.9707 3.84766Q13.1641 3.84766 11.5283 3.2959Q9.89258 2.74414 8.53516 1.74805Q7.17773 0.751953 6.17676-0.610352Q5.17578-1.97266 4.62891-3.6084Q4.08203-5.24414 4.08203-7.05078Q4.08203-8.86719 4.62891-10.5029Q5.17578-12.1387 6.17188-13.501Q7.16797-14.8633 8.52539-15.8594Q9.88281-16.8555 11.5186-17.4023Q13.1543-17.9492 14.9609-17.9492Q16.7773-17.9492 18.4131-17.4023Q20.0488-16.8555 21.4111-15.8594Q22.7734-14.8633 23.7695-13.501Q24.7656-12.1387 25.3174-10.5029Q25.8691-8.86719 25.8691-7.05078Q25.8789-5.24414 25.332-3.6084Q24.7852-1.97266 23.7842-0.610352Q22.7832 0.751953 21.4209 1.74805Q20.0586 2.74414 18.4229 3.2959Q16.7871 3.84766 14.9707 3.84766ZM9.19922-7.05078Q9.19922-6.66992 9.45801-6.4209Q9.7168-6.17188 10.1172-6.17188L14.0625-6.17188L14.0625-2.2168Q14.0625-1.81641 14.3115-1.55762Q14.5605-1.29883 14.9512-1.29883Q15.3516-1.29883 15.6104-1.55273Q15.8691-1.80664 15.8691-2.2168L15.8691-6.17188L19.8242-6.17188Q20.2246-6.17188 20.4785-6.4209Q20.7324-6.66992 20.7324-7.05078Q20.7324-7.46094 20.4785-7.71484Q20.2246-7.96875 19.8242-7.96875L15.8691-7.96875L15.8691-11.9141Q15.8691-12.3242 15.6104-12.583Q15.3516-12.8418 14.9512-12.8418Q14.5605-12.8418 14.3115-12.583Q14.0625-12.3242 14.0625-11.9141L14.0625-7.96875L10.1172-7.96875Q9.70703-7.96875 9.45312-7.71484Q9.19922-7.46094 9.19922-7.05078Z"/>
  </g>
  <text style="stroke:none;fill:black;font-family:sans-serif;font-size:13;font-weight:bold;" transform="matrix(1 0 0 1 263 1953)">Design Variations</text>
  <text style="stroke:none;fill:black;font-family:sans-serif;font-size:13;" transform="matrix(1 0 0 1 263 1971)">Symbols are supported in up to nine weights and three scales.</text>
  <text style="stroke:none;fill:black;font-family:sans-serif;font-size:13;" transform="matrix(1 0 0 1 263 1989)">For optimal layout with text and other symbols, vertically align</text>
  <text style="stroke:none;fill:black;font-family:sans-serif;font-size:13;" transform="matrix(1 0 0 1 263 2007)">symbols with the adjacent text.</text>
  <line style="fill:none;stroke:#00AEEF;stroke-width:0.5;opacity:1.0;" x1="776" x2="776" y1="1919" y2="1933"/>
  <g transform="matrix(1 0 0 1 776 1933)">
   <path d="M3.31055 0.15625Q3.70117 0.15625 3.91602-0.00976562Q4.13086-0.175781 4.26758-0.585938L5.52734-4.0332L11.2891-4.0332L12.5488-0.585938Q12.6855-0.175781 12.9004-0.00976562Q13.1152 0.15625 13.4961 0.15625Q13.8867 0.15625 14.1162-0.0585938Q14.3457-0.273438 14.3457-0.644531Q14.3457-0.869141 14.2383-1.17188L9.6582-13.3691Q9.48242-13.8184 9.17969-14.043Q8.87695-14.2676 8.4082-14.2676Q7.5-14.2676 7.17773-13.3789L2.59766-1.16211Q2.49023-0.859375 2.49023-0.634766Q2.49023-0.263672 2.70996-0.0537109Q2.92969 0.15625 3.31055 0.15625ZM6.00586-5.51758L8.37891-12.0898L8.42773-12.0898L10.8008-5.51758Z"/>
  </g>
  <line style="fill:none;stroke:#00AEEF;stroke-width:0.5;opacity:1.0;" x1="793.197" x2="793.197" y1="1919" y2="1933"/>
  <text style="stroke:none;fill:black;font-family:sans-serif;font-size:13;font-weight:bold;" transform="matrix(1 0 0 1 776 1953)">Margins</text>
  <text style="stroke:none;fill:black;font-family:sans-serif;font-size:13;" transform="matrix(1 0 0 1 776 1971)">Leading and trailing margins on the left and right side of each symbol</text>
  <text style="stroke:none;fill:black;font-family:sans-serif;font-size:13;" transform="matrix(1 0 0 1 776 1989)">can be adjusted by modifying the x-location of the margin guidelines.</text>
  <text style="stroke:none;fill:black;font-family:sans-serif;font-size:13;" transform="matrix(1 0 0 1 776 2007)">Modifications are automatically applied proportionally to all</text>
  <text style="stroke:none;fill:black;font-family:sans-serif;font-size:13;" transform="matrix(1 0 0 1 776 2025)">scales and weights.</text>
  <g transform="matrix(1 0 0 1 1289 1933)">
   <path d="M2.8418 1.86523L4.54102 3.57422Q5.18555 4.22852 5.90332 4.17969Q6.62109 4.13086 7.31445 3.35938L18.0078-8.42773L17.041-9.4043L6.42578 2.27539Q6.16211 2.57812 5.89355 2.61719Q5.625 2.65625 5.27344 2.30469L4.10156 1.14258Q3.75 0.791016 3.79395 0.522461Q3.83789 0.253906 4.14062-0.0195312L15.6152-10.8203L14.6387-11.7871L3.04688-0.898438Q2.30469-0.214844 2.25098 0.498047Q2.19727 1.21094 2.8418 1.86523ZM9.25781-16.3281Q8.94531-16.0254 8.90625-15.6348Q8.86719-15.2441 9.04297-14.9512Q9.21875-14.6777 9.55566-14.541Q9.89258-14.4043 10.3809-14.5215Q11.4746-14.7754 12.5977-14.7314Q13.7207-14.6875 14.7949-13.9844L14.209-12.5293Q13.9551-11.9043 14.0674-11.4404Q14.1797-10.9766 14.5801-10.5664L16.875-8.25195Q17.2363-7.88086 17.5781-7.82227Q17.9199-7.76367 18.3398-7.8418L19.4043-8.03711L20.0684-7.36328L20.0293-6.80664Q20-6.43555 20.1221-6.12305Q20.2441-5.81055 20.6055-5.44922L21.3672-4.70703Q21.7285-4.3457 22.1533-4.33105Q22.5781-4.31641 22.9297-4.66797L25.8398-7.58789Q26.1914-7.93945 26.1816-8.35449Q26.1719-8.76953 25.8105-9.13086L25.0391-9.89258Q24.6875-10.2539 24.3799-10.3857Q24.0723-10.5176 23.7109-10.4883L23.1348-10.4395L22.4902-11.0742L22.7344-12.1973Q22.832-12.6172 22.6953-12.9834Q22.5586-13.3496 22.1191-13.7891L19.9219-15.9766Q18.6719-17.2168 17.2607-17.8369Q15.8496-18.457 14.4189-18.4814Q12.9883-18.5059 11.665-17.959Q10.3418-17.4121 9.25781-16.3281ZM10.752-15.957Q11.6602-16.6211 12.7002-16.9043Q13.7402-17.1875 14.8047-17.085Q15.8691-16.9824 16.8701-16.5137Q17.8711-16.0449 18.7012-15.2051L21.1328-12.793Q21.3086-12.6172 21.3525-12.4512Q21.3965-12.2852 21.3379-12.0312L21.0156-10.5469L22.5195-9.0625L23.5059-9.12109Q23.6914-9.13086 23.7891-9.09668Q23.8867-9.0625 24.0332-8.91602L24.6094-8.33984L22.168-5.89844L21.5918-6.47461Q21.4453-6.62109 21.4062-6.71875Q21.3672-6.81641 21.377-7.01172L21.4453-7.98828L19.9512-9.47266L18.4277-9.21875Q18.1836-9.16992 18.042-9.2041Q17.9004-9.23828 17.7148-9.41406L15.7129-11.416Q15.5176-11.5918 15.4932-11.7529Q15.4688-11.9141 15.5859-12.1875L16.4648-14.2773Q15.293-15.3711 13.8281-15.791Q12.3633-16.2109 10.8398-15.7617Q10.7227-15.7324 10.6885-15.8057Q10.6543-15.8789 10.752-15.957Z"/>
  </g>
  <text style="stroke:none;fill:black;font-family:sans-serif;font-size:13;font-weight:bold;" transform="matrix(1 0 0 1 1289 1953)">Exporting</text>
  <text style="stroke:none;fill:black;font-family:sans-serif;font-size:13;" transform="matrix(1 0 0 1 1289 1971)">Symbols should be outlined when exporting to ensure the</text>
  <text style="stroke:none;fill:black;font-family:sans-serif;font-size:13;" transform="matrix(1 0 0 1 1289 1989)">design is preserved when submitting to Xcode.</text>
  <text id="template-version" style="stroke:none;fill:black;font-family:sans-serif;font-size:13;text-anchor:end;" transform="matrix(1 0 0 1 3036 1933)">Template v.2.0</text>
  <text style="stroke:none;fill:black;font-family:sans-serif;font-size:13;text-anchor:end;" transform="matrix(1 0 0 1 3036 1951)">Requires Xcode 12 or greater</text>
  <text id="descriptive-name" style="stroke:none;fill:black;font-family:sans-serif;font-size:13;text-anchor:end;" transform="matrix(1 0 0 1 3036 1969)">Generated from play.fill</text>
  <text style="stroke:none;fill:black;font-family:sans-serif;font-size:13;text-anchor:end;" transform="matrix(1 0 0 1 3036 1987)">Typeset at 100 points</text>
  <text style="stroke:none;fill:black;font-family:sans-serif;font-size:13;" transform="matrix(1 0 0 1 263 726)">Small</text>
  <text style="stroke:none;fill:black;font-family:sans-serif;font-size:13;" transform="matrix(1 0 0 1 263 1156)">Medium</text>
  <text style="stroke:none;fill:black;font-family:sans-serif;font-size:13;" transform="matrix(1 0 0 1 263 1586)">Large</text>
 </g>
 <g id="Guides">
  <g id="H-reference" style="fill:#27AAE1;stroke:none;" transform="matrix(1 0 0 1 339 696)">
   <path d="M0.993347 0L3.6377 0L29.3282-67.1326L30.0301-67.1326L30.0301-70.459L28.1227-70.459ZM11.6882-24.4797L46.9818-24.4797L46.2311-26.7288L12.4382-26.7288ZM55.1193 0L57.7637 0L30.6381-70.459L29.4327-70.459L29.4327-67.1326Z"/>
  </g>
  <line id="Baseline-S" style="fill:none;stroke:#27AAE1;opacity:1;stroke-width:0.5;" x1="263" x2="3036" y1="696" y2="696"/>
  <line id="Capline-S" style="fill:none;stroke:#27AAE1;opacity:1;stroke-width:0.5;" x1="263" x2="3036" y1="625.541" y2="625.541"/>
  <g id="H-reference" style="fill:#27AAE1;stroke:none;" transform="matrix(1 0 0 1 339 1126)">
   <path d="M0.993347 0L3.6377 0L29.3282-67.1326L30.0301-67.1326L30.0301-70.459L28.1227-70.459ZM11.6882-24.4797L46.9818-24.4797L46.2311-26.7288L12.4382-26.7288ZM55.1193 0L57.7637 0L30.6381-70.459L29.4327-70.459L29.4327-67.1326Z"/>
  </g>
  <line id="Baseline-M" style="fill:none;stroke:#27AAE1;opacity:1;stroke-width:0.5;" x1="263" x2="3036" y1="1126" y2="1126"/>
  <line id="Capline-M" style="fill:none;stroke:#27AAE1;opacity:1;stroke-width:0.5;" x1="263" x2="3036" y1="1055.54" y2="1055.54"/>
  <g id="H-reference" style="fill:#27AAE1;stroke:none;" transform="matrix(1 0 0 1 339 1556)">
   <path d="M0.993347 0L3.6377 0L29.3282-67.1326L30.0301-67.1326L30.0301-70.459L28.1227-70.459ZM11.6882-24.4797L46.9818-24.4797L46.2311-26.7288L12.4382-26.7288ZM55.1193 0L57.7637 0L30.6381-70.459L29.4327-70.459L29.4327-67.1326Z"/>
  </g>
  <line id="Baseline-L" style="fill:none;stroke:#27AAE1;opacity:1;stroke-width:0.5;" x1="263" x2="3036" y1="1556" y2="1556"/>
  <line id="Capline-L" style="fill:none;stroke:#27AAE1;opacity:1;stroke-width:0.5;" x1="263" x2="3036" y1="1485.54" y2="1485.54"/>
  <line id="left-margin" style="fill:none;stroke:#00AEEF;stroke-width:0.5;opacity:1.0;" x1="1406.07" x2="1406.07" y1="1030.79" y2="1150.12"/>
  <line id="right-margin" style="fill:none;stroke:#00AEEF;stroke-width:0.5;opacity:1.0;" x1="1493.62" x2="1493.62" y1="1030.79" y2="1150.12"/>
 </g>
 <g id="Symbols">
  <g id="Black-L" transform="matrix(1 0 0 1 2869.89 1556)">
   <path d="M28.6659 25.7677Q31.0905 25.7677 33.4607 25.0213Q35.8309 24.2749 38.8807 22.4917L115.678-22.0411Q120.292-24.7659 122.845-27.8023Q125.398-30.8388 125.398-35.1893Q125.398-39.5398 122.845-42.6055Q120.292-45.6711 115.678-48.3374L38.8807-92.8703Q35.8309-94.6534 33.4607-95.3998Q31.0905-96.1462 28.6659-96.1462Q23.6871-96.1462 19.8856-92.4796Q16.084-88.813 16.084-82.2391L16.084 11.8606Q16.084 18.4344 19.8856 22.101Q23.6871 25.7677 28.6659 25.7677Z"/>
  </g>
  <g id="Heavy-L" transform="matrix(1 0 0 1 2574.89 1556)">
   <path d="M27.3975 23.942Q29.6776 23.942 31.871 23.2268Q34.0644 22.5116 36.822 20.8928L112.957-23.2434Q117.362-25.8385 119.664-28.5669Q121.966-31.2953 121.966-35.1893Q121.966-39.0832 119.664-41.834Q117.362-44.5847 112.957-47.1352L36.822-91.2713Q34.0644-92.8902 31.871-93.6054Q29.6776-94.3206 27.3975-94.3206Q22.8098-94.3206 19.4469-90.9634Q16.084-87.6062 16.084-81.6478L16.084 11.2692Q16.084 17.2276 19.4469 20.5848Q22.8098 23.942 27.3975 23.942Z"/>
  </g>
  <g id="Bold-L" transform="matrix(1 0 0 1 2280.19 1556)">
   <path d="M25.8448 21.8543Q27.9257 21.8543 29.8852 21.1887Q31.8447 20.5231 34.2486 19.1041L109.859-24.7489Q113.936-27.1455 115.93-29.4972Q117.925-31.8489 117.925-35.1893Q117.925-38.5296 115.93-40.896Q113.936-43.2623 109.859-45.6296L34.2486-89.4827Q31.8447-90.9017 29.8852-91.5672Q27.9257-92.2328 25.8448-92.2328Q21.7561-92.2328 18.92-89.2672Q16.084-86.3017 16.084-81.104L16.084 10.7255Q16.084 15.9231 18.92 18.8887Q21.7561 21.8543 25.8448 21.8543Z"/>
  </g>
  <g id="Semibold-L" transform="matrix(1 0 0 1 1984.87 1556)">
   <path d="M24.7743 20.415Q26.718 20.415 28.5163 19.7836Q30.3145 19.1522 32.4746 17.871L107.724-25.7868Q111.574-28.0465 113.357-30.1385Q115.14-32.2306 115.14-35.1893Q115.14-38.148 113.357-40.2493Q111.574-42.3506 107.724-44.5917L32.4746-88.2496Q30.3145-89.5308 28.5163-90.1621Q26.718-90.7935 24.7743-90.7935Q21.0296-90.7935 18.5568-88.0979Q16.084-85.4024 16.084-80.7292L16.084 10.3506Q16.084 15.0238 18.5568 17.7194Q21.0296 20.415 24.7743 20.415Z"/>
  </g>
  <g id="Medium-L" transform="matrix(1 0 0 1 1689.21 1556)">
   <path d="M23.9627 19.3236Q25.8023 19.3236 27.4783 18.7182Q29.1542 18.1128 31.1294 16.9361L106.105-26.5738Q109.783-28.7297 111.405-30.6248Q113.027-32.5199 113.027-35.1893Q113.027-37.8586 111.405-39.759Q109.783-41.6594 106.105-43.8047L31.1294-87.3146Q29.1542-88.4913 27.4783-89.0968Q25.8023-89.7022 23.9627-89.7022Q20.4788-89.7022 18.2814-87.2113Q16.084-84.7205 16.084-80.445L16.084 10.0664Q16.084 14.3419 18.2814 16.8328Q20.4788 19.3236 23.9627 19.3236Z"/>
  </g>
  <g id="Regular-L" transform="matrix(1 0 0 1 1393.88 1556)">
   <path d="M22.904 17.9001Q24.6078 17.9001 26.1243 17.3285Q27.6408 16.7569 29.3749 15.7165L103.993-27.6003Q107.448-29.6208 108.86-31.2591Q110.272-32.8974 110.272-35.1893Q110.272-37.4812 108.86-39.1195Q107.448-40.7578 103.993-42.7783L29.3749-86.0951Q27.6408-87.1355 26.1243-87.7071Q24.6078-88.2787 22.904-88.2787Q19.7604-88.2787 17.9222-86.0549Q16.084-83.8311 16.084-80.0743L16.084 9.69569Q16.084 13.4525 17.9222 15.6763Q19.7604 17.9001 22.904 17.9001Z"/>
  </g>
  <g id="Light-L" transform="matrix(1 0 0 1 1097.89 1556)">
   <path d="M21.9497 17.5756Q23.3864 17.5756 24.6453 17.1091Q25.9042 16.6425 27.4474 15.7165L103.611-28.7454Q106.398-30.3843 107.619-31.7935Q108.841-33.2026 108.841-35.1893Q108.841-37.1759 107.619-38.5851Q106.398-39.9943 103.611-41.6332L27.4474-86.0951Q25.9042-87.021 24.6453-87.4876Q23.3864-87.9542 21.9497-87.9542Q19.2451-87.9542 17.6645-86.0549Q16.084-84.1556 16.084-80.9141L16.084 10.5355Q16.084 13.777 17.6645 15.6763Q19.2451 17.5756 21.9497 17.5756Z"/>
  </g>
  <g id="Thin-L" transform="matrix(1 0 0 1 802.14 1556)">
   <path d="M20.6876 17.1465Q21.7711 17.1465 22.6892 16.8188Q23.6073 16.4911 24.8982 15.7165L103.107-30.2598Q105.009-31.394 105.979-32.5002Q106.948-33.6064 106.948-35.1893Q106.948-36.7722 105.979-37.8784Q105.009-38.9845 103.107-40.1188L24.8982-86.0951Q23.6073-86.8696 22.6892-87.1973Q21.7711-87.525 20.6876-87.525Q18.5636-87.525 17.3238-86.0549Q16.084-84.5847 16.084-82.0248L16.084 11.6462Q16.084 14.2062 17.3238 15.6763Q18.5636 17.1465 20.6876 17.1465Z"/>
  </g>
  <g id="Ultralight-L" transform="matrix(1 0 0 1 505.92 1556)">
   <path d="M20.0412 16.9266Q20.9437 16.9266 21.6873 16.6701Q22.4308 16.4135 23.5925 15.7165L102.848-31.0355Q104.298-31.9112 105.138-32.8622Q105.978-33.8132 105.978-35.1893Q105.978-36.5654 105.138-37.5164Q104.298-38.4673 102.848-39.3431L23.5925-86.0951Q22.4308-86.7921 21.6873-87.0486Q20.9437-87.3052 20.0412-87.3052Q18.2145-87.3052 17.1492-86.0549Q16.084-84.8046 16.084-82.5937L16.084 12.2151Q16.084 14.426 17.1492 15.6763Q18.2145 16.9266 20.0412 16.9266Z"/>
  </g>
  <g id="Black-M" transform="matrix(1 0 0 1 2882.82 1126)">
   <path d="M23.1695 13.5526Q25.136 13.5526 27.0893 12.9618Q29.0426 12.3709 31.6307 10.8637L91.9072-24.1338Q95.5722-26.3045 97.7399-28.8906Q99.9076-31.4768 99.9076-35.1983Q99.9076-38.9199 97.7399-41.5346Q95.5722-44.1493 91.9072-46.2629L31.6307-81.2604Q29.0426-82.7676 27.0893-83.3585Q25.136-83.9493 23.1695-83.9493Q19.0356-83.9493 15.7483-80.8867Q12.4609-77.824 12.4609-72.2718L12.4609 1.87514Q12.4609 7.42732 15.7483 10.49Q19.0356 13.5526 23.1695 13.5526Z"/>
  </g>
  <g id="Heavy-M" transform="matrix(1 0 0 1 2587.72 1126)">
   <path d="M22.0176 11.7979Q23.8674 11.7979 25.6716 11.2278Q27.4759 10.6578 29.796 9.30063L89.2824-25.2035Q92.804-27.2826 94.744-29.5888Q96.684-31.8949 96.684-35.1983Q96.684-38.5017 94.744-40.8297Q92.804-43.1577 89.2824-45.1932L29.796-79.6973Q27.4759-81.0545 25.6716-81.6245Q23.8674-82.1945 22.0176-82.1945Q18.2255-82.1945 15.3432-79.4044Q12.4609-76.6143 12.4609-71.6163L12.4609 1.21959Q12.4609 6.21764 15.3432 9.00775Q18.2255 11.7979 22.0176 11.7979Z"/>
  </g>
  <g id="Bold-M" transform="matrix(1 0 0 1 2292.8 1126)">
   <path d="M20.729 9.83491Q22.4483 9.83491 24.0858 9.28814Q25.7234 8.74137 27.7435 7.55212L86.3461-26.4Q89.7073-28.3768 91.3926-30.3698Q93.0779-32.3627 93.0779-35.1983Q93.0779-38.0339 91.3926-40.0412Q89.7073-42.0484 86.3461-43.9966L27.7435-77.9488Q25.7234-79.1381 24.0858-79.6848Q22.4483-80.2316 20.729-80.2316Q17.3192-80.2316 14.8901-77.7464Q12.4609-75.2611 12.4609-70.8829L12.4609 0.486259Q12.4609 4.86444 14.8901 7.34967Q17.3192 9.83491 20.729 9.83491Z"/>
  </g>
  <g id="Semibold-M" transform="matrix(1 0 0 1 1997.33 1126)">
   <path d="M19.8406 8.48166Q21.47 8.48166 22.9926 7.95094Q24.5152 7.42021 26.3286 6.3467L84.3219-27.225Q87.5725-29.1311 89.0822-30.9082Q90.592-32.6852 90.592-35.1983Q90.592-37.7114 89.0822-39.4976Q87.5725-41.2837 84.3219-43.1717L26.3286-76.7434Q24.5152-77.8169 22.9926-78.3476Q21.47-78.8783 19.8406-78.8783Q16.6945-78.8783 14.5777-76.6033Q12.4609-74.3282 12.4609-70.3774L12.4609-0.0192943Q12.4609 3.93155 14.5777 6.20661Q16.6945 8.48166 19.8406 8.48166Z"/>
  </g>
  <g id="Medium-M" transform="matrix(1 0 0 1 1701.56 1126)">
   <path d="M19.167 7.45557Q20.7283 7.45557 22.1637 6.93701Q23.5991 6.41845 25.2557 5.4327L82.7871-27.8505Q85.9538-29.7031 87.3304-31.3164Q88.707-32.9298 88.707-35.1983Q88.707-37.4669 87.3304-39.0854Q85.9538-40.7039 82.7871-42.5462L25.2557-75.8294Q23.5991-76.8151 22.1637-77.3337Q20.7283-77.8522 19.167-77.8522Q16.2207-77.8522 14.3408-75.7366Q12.4609-73.6209 12.4609-69.9941L12.4609-0.402626Q12.4609 3.2242 14.3408 5.33988Q16.2207 7.45557 19.167 7.45557Z"/>
  </g>
  <g id="Regular-M" transform="matrix(1 0 0 1 1406.07 1126)">
   <path d="M18.2885 6.11718Q19.7607 6.11718 21.0824 5.6145Q22.4042 5.11181 23.8563 4.24053L80.7851-28.6663Q83.8425-30.4491 85.0454-31.8489Q86.2483-33.2487 86.2483-35.1983Q86.2483-37.1479 85.0454-38.5477Q83.8425-39.9475 80.7851-41.7303L23.8563-74.6372Q22.4042-75.5085 21.0824-76.0112Q19.7607-76.5139 18.2885-76.5139Q15.6028-76.5139 14.0319-74.6061Q12.4609-72.6982 12.4609-69.4941L12.4609-0.902624Q12.4609 2.30157 14.0319 4.20938Q15.6028 6.11718 18.2885 6.11718Z"/>
  </g>
  <g id="Light-M" transform="matrix(1 0 0 1 1110.01 1126)">
   <path d="M17.4329 5.82625Q18.6657 5.82625 19.7564 5.41772Q20.8471 5.00918 22.1282 4.24053L80.443-29.6929Q82.9012-31.1336 83.9331-32.328Q84.965-33.5224 84.965-35.1983Q84.965-36.8743 83.9331-38.0687Q82.9012-39.263 80.443-40.7037L22.1282-74.6372Q20.8471-75.4059 19.7564-75.8144Q18.6657-76.2229 17.4329-76.2229Q15.1408-76.2229 13.8009-74.6061Q12.4609-72.9892 12.4609-70.247L12.4609-0.149702Q12.4609 2.5925 13.8009 4.20938Q15.1408 5.82625 17.4329 5.82625Z"/>
  </g>
  <g id="Thin-M" transform="matrix(1 0 0 1 814.159 1126)">
   <path d="M16.3014 5.44147Q17.2174 5.44147 18.0026 5.15745Q18.7879 4.87344 19.8427 4.24053L79.9906-31.0507Q81.6564-32.0389 82.462-32.9617Q83.2677-33.8844 83.2677-35.1983Q83.2677-36.5123 82.462-37.435Q81.6564-38.3577 79.9906-39.346L19.8427-74.6372Q18.7879-75.2701 18.0026-75.5541Q17.2174-75.8381 16.3014-75.8381Q14.5298-75.8381 13.4954-74.6061Q12.4609-73.374 12.4609-71.2428L12.4609 0.846097Q12.4609 2.97728 13.4954 4.20938Q14.5298 5.44147 16.3014 5.44147Z"/>
  </g>
  <g id="Ultralight-M" transform="matrix(1 0 0 1 517.889 1126)">
   <path d="M15.7218 5.24438Q16.4756 5.24438 17.1044 5.02415Q17.7331 4.80392 18.6721 4.24053L79.7588-31.7462Q81.0188-32.5026 81.7086-33.2862Q82.3983-34.0698 82.3983-35.1983Q82.3983-36.3269 81.7086-37.1105Q81.0188-37.894 79.7588-38.6505L18.6721-74.6372Q17.7331-75.2006 17.1044-75.4208Q16.4756-75.6411 15.7218-75.6411Q14.2169-75.6411 13.3389-74.6061Q12.4609-73.571 12.4609-71.7528L12.4609 1.35614Q12.4609 3.17437 13.3389 4.20938Q14.2169 5.24438 15.7218 5.24438Z"/>
  </g>
  <g id="Black-S" transform="matrix(1 0 0 1 2893.31 696)">
   <path d="M18.457 3.51562Q20.0195 3.51562 21.582 3.05176Q23.1445 2.58789 25.2441 1.36719L72.8027-26.2695Q75.6836-27.9785 77.4414-30.0781Q79.1992-32.1777 79.1992-35.2051Q79.1992-38.2324 77.4414-40.3564Q75.6836-42.4805 72.8027-44.1406L25.2441-71.7773Q23.1445-72.998 21.582-73.4619Q20.0195-73.9258 18.457-73.9258Q15.1367-73.9258 12.4512-71.46Q9.76562-68.9941 9.76562-64.502L9.76562-5.9082Q9.76562-1.41602 12.4512 1.0498Q15.1367 3.51562 18.457 3.51562Z"/>
  </g>
  <g id="Heavy-S" transform="matrix(1 0 0 1 2597.89 696)">
   <path d="M17.5812 2.05202Q19.0745 2.05202 20.5391 1.59391Q22.0036 1.13581 23.8958 0.0303495L70.6016-27.0532Q73.4363-28.7276 75.0213-30.614Q76.6062-32.5004 76.6062-35.2051Q76.6062-37.9097 75.0213-39.8148Q73.4363-41.7199 70.6016-43.357L23.8958-70.4405Q22.0036-71.546 20.5391-72.0041Q19.0745-72.4622 17.5812-72.4622Q14.5029-72.4622 12.1342-70.1923Q9.76562-67.9224 9.76562-63.8451L9.76562-6.5651Q9.76562-2.48779 12.1342-0.217887Q14.5029 2.05202 17.5812 2.05202Z"/>
  </g>
  <g id="Bold-S" transform="matrix(1 0 0 1 2302.62 696)">
   <path d="M16.6016 0.415039Q18.0176 0.415039 19.3726-0.0366211Q20.7275-0.488281 22.3877-1.46484L68.1396-27.9297Q70.9229-29.5654 72.3145-31.2134Q73.7061-32.8613 73.7061-35.2051Q73.7061-37.5488 72.3145-39.209Q70.9229-40.8691 68.1396-42.4805L22.3877-68.9453Q20.7275-69.9219 19.3726-70.3735Q18.0176-70.8252 16.6016-70.8252Q13.7939-70.8252 11.7798-68.7744Q9.76562-66.7236 9.76562-63.1104L9.76562-7.2998Q9.76562-3.68652 11.7798-1.63574Q13.7939 0.415039 16.6016 0.415039Z"/>
  </g>
  <g id="Semibold-S" transform="matrix(1 0 0 1 2006.91 696)">
   <path d="M15.9262-0.713574Q17.2889-0.713574 18.5683-1.16079Q19.8478-1.60801 21.3479-2.4957L66.4423-28.534Q69.1899-30.1431 70.4482-31.6266Q71.7065-33.1102 71.7065-35.2051Q71.7065-37.3 70.4482-38.7913Q69.1899-40.2826 66.4423-41.8762L21.3479-67.9145Q19.8478-68.8021 18.5683-69.2494Q17.2889-69.6966 15.9262-69.6966Q13.3052-69.6966 11.5354-67.7969Q9.76562-65.8972 9.76562-62.6038L9.76562-7.80635Q9.76562-4.51299 11.5354-2.61328Q13.3052-0.713574 15.9262-0.713574Z"/>
  </g>
  <g id="Medium-S" transform="matrix(1 0 0 1 1710.95 696)">
   <path d="M15.4141-1.56934Q16.7363-1.56934 17.9585-2.01318Q19.1807-2.45703 20.5596-3.27734L65.1553-28.9922Q67.876-30.5811 69.0332-31.9399Q70.1904-33.2988 70.1904-35.2051Q70.1904-37.1113 69.0332-38.4746Q67.876-39.8379 65.1553-41.418L20.5596-67.1328Q19.1807-67.9531 17.9585-68.397Q16.7363-68.8408 15.4141-68.8408Q12.9346-68.8408 11.3501-67.0557Q9.76562-65.2705 9.76562-62.2197L9.76562-8.19043Q9.76562-5.13965 11.3501-3.35449Q12.9346-1.56934 15.4141-1.56934Z"/>
  </g>
  <g id="Regular-S" transform="matrix(1 0 0 1 1415.23 696)">
   <path d="M14.7461-2.68555Q16.0156-2.68555 17.1631-3.125Q18.3105-3.56445 19.5312-4.29688L63.4766-29.5898Q66.1621-31.1523 67.1875-32.3486Q68.2129-33.5449 68.2129-35.2051Q68.2129-36.8652 67.1875-38.0615Q66.1621-39.2578 63.4766-40.8203L19.5312-66.1133Q18.3105-66.8457 17.1631-67.2852Q16.0156-67.7246 14.7461-67.7246Q12.4512-67.7246 11.1084-66.0889Q9.76562-64.4531 9.76562-61.7188L9.76562-8.69141Q9.76562-5.95703 11.1084-4.32129Q12.4512-2.68555 14.7461-2.68555Z"/>
  </g>
  <g id="Light-S" transform="matrix(1 0 0 1 1119.09 696)">
   <path d="M13.9893-2.94291Q15.0469-2.94291 15.9901-3.29908Q16.9332-3.65524 18.0026-4.29688L63.1739-30.498Q65.3295-31.7579 66.2036-32.7724Q67.0776-33.787 67.0776-35.2051Q67.0776-36.6231 66.2036-37.6377Q65.3295-38.6523 63.1739-39.9122L18.0026-66.1133Q16.9332-66.7549 15.9901-67.1111Q15.0469-67.4672 13.9893-67.4672Q12.0425-67.4672 10.9041-66.0889Q9.76562-64.7105 9.76562-62.3848L9.76562-8.02536Q9.76562-5.69967 10.9041-4.32129Q12.0425-2.94291 13.9893-2.94291Z"/>
  </g>
  <g id="Thin-S" transform="matrix(1 0 0 1 823.139 696)">
   <path d="M12.9883-3.2833Q13.7658-3.2833 14.4387-3.52931Q15.1115-3.77532 15.9808-4.29688L62.7737-31.6991Q64.2283-32.5587 64.9022-33.333Q65.5762-34.1072 65.5762-35.2051Q65.5762-36.3029 64.9022-37.0772Q64.2283-37.8514 62.7737-38.7111L15.9808-66.1133Q15.1115-66.6348 14.4387-66.8808Q13.7658-67.1269 12.9883-67.1269Q11.502-67.1269 10.6338-66.0889Q9.76562-65.0509 9.76562-63.2657L9.76562-7.14446Q9.76562-5.35928 10.6338-4.32129Q11.502-3.2833 12.9883-3.2833Z"/>
  </g>
  <g id="Ultralight-S" transform="matrix(1 0 0 1 526.818 696)">
   <path d="M12.4756-3.45764Q13.1096-3.45764 13.644-3.64723Q14.1785-3.83682 14.9452-4.29688L62.5687-32.3143Q63.6642-32.9689 64.2357-33.6201Q64.8071-34.2712 64.8071-35.2051Q64.8071-36.1389 64.2357-36.7901Q63.6642-37.4413 62.5687-38.0959L14.9452-66.1133Q14.1785-66.5733 13.644-66.7629Q13.1096-66.9525 12.4756-66.9525Q11.2251-66.9525 10.4954-66.0889Q9.76562-65.2252 9.76562-63.7169L9.76562-6.69327Q9.76562-5.18494 10.4954-4.32129Q11.2251-3.45764 12.4756-3.45764Z"/>
  </g>
 </g>
</svg>
